<svg width="30" height="30" viewBox="0 0 30 30" fill="none" xmlns="http://www.w3.org/2000/svg">
<path d="M15.233 18.19C14.4617 18.19 14.0117 18.9238 14.0117 19.9063C14.0117 20.895 14.4755 21.5938 15.2405 21.5938C16.0117 21.5938 16.4542 20.8588 16.4542 19.8763C16.4542 18.9688 16.0192 18.19 15.233 18.19V18.19Z" fill="#F8F8F8"/>
<path d="M17.5 2.5H7.5C6.83696 2.5 6.20107 2.76339 5.73223 3.23223C5.26339 3.70107 5 4.33696 5 5V25C5 25.663 5.26339 26.2989 5.73223 26.7678C6.20107 27.2366 6.83696 27.5 7.5 27.5H22.5C23.163 27.5 23.7989 27.2366 24.2678 26.7678C24.7366 26.2989 25 25.663 25 25V10L17.5 2.5ZM11.4437 21.8175C10.9112 22.26 10.1025 22.4688 9.11375 22.4688C8.52 22.4688 8.10125 22.4313 7.81625 22.3938V17.43C8.32746 17.3564 8.84353 17.3217 9.36 17.3263C10.32 17.3263 10.9425 17.4988 11.4287 17.8663C11.9537 18.2563 12.2837 18.8787 12.2837 19.7687C12.2837 20.7375 11.9312 21.405 11.4437 21.8175V21.8175ZM15.1813 22.5C13.6813 22.5 12.805 21.3675 12.805 19.9275C12.805 18.4138 13.7713 17.2825 15.2638 17.2825C16.815 17.2825 17.6625 18.4438 17.6625 19.8388C17.6613 21.495 16.6563 22.5 15.1813 22.5V22.5ZM21 21.5475C21.3437 21.5475 21.7263 21.4713 21.9525 21.3825L22.125 22.2738C21.915 22.3788 21.4425 22.4913 20.8288 22.4913C19.0825 22.4913 18.1825 21.405 18.1825 19.965C18.1825 18.2413 19.4113 17.2825 20.9413 17.2825C21.5338 17.2825 21.9825 17.4025 22.185 17.5075L21.9525 18.415C21.6482 18.2892 21.3218 18.2255 20.9925 18.2275C20.085 18.2275 19.38 18.775 19.38 19.9C19.38 20.9113 19.98 21.5475 21 21.5475V21.5475ZM17.5 11.25H16.25V5L22.5 11.25H17.5Z" fill="#0A4EB4"/>
<path d="M9.47914 18.2038C9.22539 18.2038 9.06039 18.2263 8.96289 18.2488V21.555C9.06039 21.5775 9.21789 21.5775 9.35914 21.5775C10.3941 21.585 11.0679 21.0163 11.0679 19.8088C11.0754 18.7588 10.4616 18.2038 9.47914 18.2038V18.2038Z" fill="#1046D2"/>
</svg>
