<svg width="30" height="30" viewBox="0 0 30 30" fill="none" xmlns="http://www.w3.org/2000/svg">
<g clip-path="url(#clip0_1322_56)">
<path d="M0 27.1875H30V30H0V27.1875Z" fill="#D0D0D0"/>
<path d="M4.6875 27.1875H11.25V28.125H4.6875V27.1875Z" fill="#D0D0D0"/>
<path d="M4.6875 27.1875H11.25V28.125H4.6875V27.1875Z" fill="#3E4347"/>
<path d="M3.28125 9.375H26.7188V27.1875H3.28125V9.375Z" fill="#FFC7CE"/>
<path d="M5.625 19.6875H10.3125V27.1875H5.625V19.6875Z" fill="#E84D88"/>
<path d="M5.625 12.1875H10.3125V16.875H5.625V12.1875ZM19.6875 12.1875H24.375V16.875H19.6875V12.1875ZM12.6562 12.1875H17.3438V16.875H12.6562V12.1875ZM19.6875 19.6875H24.375V24.375H19.6875V19.6875ZM12.6562 19.6875H17.3438V24.375H12.6562V19.6875Z" fill="#D6EEF0"/>
<path d="M6.09375 7.5H23.9062V9.375H6.09375V7.5Z" fill="#D0D0D0"/>
<path d="M9.375 24.375C9.63388 24.375 9.84375 24.1651 9.84375 23.9062C9.84375 23.6474 9.63388 23.4375 9.375 23.4375C9.11612 23.4375 8.90625 23.6474 8.90625 23.9062C8.90625 24.1651 9.11612 24.375 9.375 24.375Z" fill="#FFDD7D"/>
<path d="M5.15625 16.875H10.7812V17.8125H5.15625V16.875ZM12.1875 16.875H17.8125V17.8125H12.1875V16.875ZM19.2188 16.875H24.8438V17.8125H19.2188V16.875ZM12.1875 24.375H17.8125V25.3125H12.1875V24.375ZM19.2188 24.375H24.8438V25.3125H19.2188V24.375Z" fill="#9450E0"/>
<path d="M5.625 12.1875V15H6.09375C6.89063 15 7.5 14.3906 7.5 13.5938V12.1875H5.625ZM10.3125 12.1875V15H9.84375C9.04687 15 8.4375 14.3906 8.4375 13.5938V12.1875H10.3125ZM6.09375 15H5.625V16.875H7.5V16.4062C7.5 15.6094 6.89063 15 6.09375 15ZM9.84375 15C9.04687 15 8.4375 15.6094 8.4375 16.4062V16.875H10.3125V15H9.84375ZM12.6562 12.1875V15H13.125C13.9219 15 14.5312 14.3906 14.5312 13.5938V12.1875H12.6562ZM17.3438 12.1875V15H16.875C16.0781 15 15.4688 14.3906 15.4688 13.5938V12.1875H17.3438ZM13.125 15H12.6562V16.875H14.5312V16.4062C14.5312 15.6094 13.9219 15 13.125 15ZM16.875 15C16.0781 15 15.4688 15.6094 15.4688 16.4062V16.875H17.3438V15H16.875ZM19.6875 12.1875V15H20.1562C20.9531 15 21.5625 14.3906 21.5625 13.5938V12.1875H19.6875ZM24.375 12.1875V15H23.9062C23.1094 15 22.5 14.3906 22.5 13.5938V12.1875H24.375ZM20.1562 15H19.6875V16.875H21.5625V16.4062C21.5625 15.6094 20.9531 15 20.1562 15ZM23.9062 15C23.1094 15 22.5 15.6094 22.5 16.4062V16.875H24.375V15H23.9062ZM12.6562 19.6875V22.5H13.125C13.9219 22.5 14.5312 21.8906 14.5312 21.0938V19.6875H12.6562ZM17.3438 19.6875V22.5H16.875C16.0781 22.5 15.4688 21.8906 15.4688 21.0938V19.6875H17.3438ZM13.125 22.5H12.6562V24.375H14.5312V23.9062C14.5312 23.1094 13.9219 22.5 13.125 22.5ZM16.875 22.5C16.0781 22.5 15.4688 23.1094 15.4688 23.9062V24.375H17.3438V22.5H16.875ZM19.6875 19.6875V22.5H20.1562C20.9531 22.5 21.5625 21.8906 21.5625 21.0938V19.6875H19.6875ZM24.375 19.6875V22.5H23.9062C23.1094 22.5 22.5 21.8906 22.5 21.0938V19.6875H24.375ZM20.1562 22.5H19.6875V24.375H21.5625V23.9062C21.5625 23.1094 20.9531 22.5 20.1562 22.5ZM23.9062 22.5C23.1094 22.5 22.5 23.1094 22.5 23.9062V24.375H24.375V22.5H23.9062ZM17.0156 0C16.125 0 15.375 0.421875 15 1.07812C14.625 0.421875 13.875 0 12.9844 0C11.7656 0 10.7812 0.84375 10.7812 1.875C10.7812 3.75 15 7.5 15 7.5C15 7.5 19.2188 3.75 19.2188 1.875C19.2188 0.84375 18.2344 0 17.0156 0Z" fill="#E84D88"/>
<path d="M4.6875 28.125H11.25V29.0625H4.6875V28.125Z" fill="#94989B"/>
</g>
<defs>
<clipPath id="clip0_1322_56">
<rect width="30" height="30" fill="white"/>
</clipPath>
</defs>
</svg>
