<svg width="30" height="30" viewBox="0 0 30 30" fill="none" xmlns="http://www.w3.org/2000/svg">
<path d="M22.5985 7.34156L22.0116 7.29187L19.5605 8.33203C19.5605 8.33203 20.6813 8.49328 20.7268 8.51578C20.7732 8.53921 21.9423 7.81359 22.074 7.78312C22.2029 7.75218 22.5985 7.34156 22.5985 7.34156" fill="#BE1E2D"/>
<path d="M28.2008 7.79344L22.5992 7.34157L20.3398 8.51719L23.0914 9.33938L25.7783 9.9736L27.807 8.23969L28.2008 7.79344Z" fill="#C1BFC0"/>
<path d="M25.0584 9.37499L20.0625 8.28609L20.3569 10.3073L23.7984 11.7136L24.8756 11.9287L25.3397 10.7184L25.0584 9.37499Z" fill="#E0D9DB"/>
<path d="M25.8555 9.51047L29.3219 7.935C29.3219 7.935 27.9644 9.35531 28.0834 11.3447L25.8555 12.0984V9.51047" fill="#CC293D"/>
<path d="M24.877 9.33937V11.8758L25.8566 12.0984L26.2326 11.5772L26.1459 9.75046L26.2326 9.51703L25.633 9.33937H24.877Z" fill="#BE1E2D"/>
<path d="M26.268 11.9292C26.1995 11.8566 22.6033 10.9594 22.6033 10.9594L21.332 12.105L22.4542 13.5984L23.1902 14.82L24.6381 14.5256L25.7917 13.3261L26.268 11.9292" fill="#737475"/>
<path d="M25.059 15.9703L18.8105 18.9731L18.834 17.6583L19.6084 17.0611L21.3324 16.6519L22.9252 15.8606L24.548 15.0375L26.1043 14.6156L25.059 15.9703Z" fill="#243438"/>
<path d="M21.9652 9.7125L22.7789 10.1527V11.3203L21.412 12.2625L19.6805 12.4031L18.7383 11.7141L19.703 10.0383L21.84 9.54047L21.9652 9.7125Z" fill="#BE1E2D"/>
<path d="M16.1582 8.77781C16.1582 8.77781 20.5574 7.32984 22.3616 9.2564L20.6338 9.66328L18.4757 10.0387L16.1582 8.77781" fill="#CC293D"/>
<path d="M18.6855 9.09515C18.6855 9.09515 19.9863 8.01046 22.3615 9.2564V9.87375L18.6855 11.7141V9.09515" fill="#D3314C"/>
<path d="M16.1582 8.77782L18.9571 8.96719V11.6873L16.1582 11.025V8.77782Z" fill="#BE1E2D"/>
<path d="M18.8101 17.8828L20.5182 17.1497V17.5434L25.0585 15.2198V13.8398L23.4741 14.4506L21.354 15.5437L19.8319 15.8212L18.9554 16.05L18.8101 17.8828ZM13.1241 11.115L16.3674 10.4245L20.9152 11.9883L19.9346 12.9352L17.0194 13.1906C17.0194 13.1906 14.4343 13.2061 14.2782 12.8358C14.1235 12.4659 12.9146 12.4617 12.8837 12.2587C12.8504 12.0548 13.1241 11.115 13.1241 11.115" fill="#243438"/>
<path d="M19.215 13.7344L15.7523 13.8398L9.9375 16.8178V18.45L14.3798 19.3922L18.4847 16.0922L19.215 13.7344Z" fill="#939598"/>
<path d="M3.07617 20.2641C3.07617 20.2641 4.63195 21.7556 7.32773 21.3802L7.25039 21.2597V20.3489L6.9157 20.3761L4.10602 19.6069H3.20367L3.07617 20.2641" fill="#BF3413"/>
<path d="M1.17628 16.8178C1.17628 16.8178 0.653628 14.347 2.94535 13.1906C2.94535 13.1906 3.35832 12.9183 4.38394 13.0931C4.38394 13.0931 6.9691 13.5234 6.9691 14.182C6.9691 14.8388 6.63207 15.0136 6.63207 15.0136L4.7116 16.388L3.51957 17.0616H2.58957L1.17394 16.8178" fill="#2E4044"/>
<path d="M3.57656 16.8178C3.57656 16.8178 3.88078 14.2927 5.32172 13.8342C5.32172 13.8342 6.52313 13.3542 7.19672 14.4891C7.87406 15.6239 5.64609 15.9956 5.64609 15.9956L3.57422 16.8178" fill="#243438"/>
<path d="M0.115234 17.7328L2.12711 16.8178L6.19211 17.1075L6.29242 18.9187L3.86195 20.6531L0.281641 19.4587L0.115234 17.7328Z" fill="#CC293D"/>
<path d="M3.33094 19.7156L0.28125 18.8766L0.339375 19.3922L3.30516 20.325L3.33094 19.7156Z" fill="#D0C9CC"/>
<path d="M10.9043 11.2828C10.9043 11.2828 12.4905 10.6214 14.8638 11.1956C14.8638 11.1956 13.3001 11.3859 13.1032 11.7159L12.7498 11.9911C12.7498 11.9911 11.8798 11.6447 11.8334 11.633C11.7893 11.6208 10.9043 11.2828 10.9043 11.2828" fill="#CC293D"/>
<path d="M10.9043 11.2828L10.9816 12.577L13.368 11.7328L10.9043 11.2828Z" fill="#BE1E2D"/>
<path d="M20.7793 15.2527L23.8243 13.9411V15.1758L20.7793 16.5V15.2527Z" fill="#E0D9DB"/>
<path d="M18.1406 12.4031C18.1406 12.4031 22.5098 11.0944 24.3023 12.8663L22.5877 13.3889L20.4445 13.7339L18.1406 12.4031Z" fill="#CC293D"/>
<path d="M0 17.1056L0.114375 18.0408L2.58938 18.7041L2.47266 17.5434L0 17.1056Z" fill="#D0C9CC"/>
<path d="M2.58938 18.7041L3.67734 18.2386L3.51891 17.0611L2.47266 17.5434L2.58938 18.7041Z" fill="#A5A2A3"/>
<path d="M13.1804 11.6306L18.1388 12.4031V14.6897C18.1388 14.6897 10.187 18.0038 9.44727 18.5845L7.41852 20.4516C7.41852 20.4516 5.29273 20.9672 3.19977 19.6791L2.94336 17.2013C2.94336 17.2013 6.3882 13.0467 13.1804 11.6306" fill="#BE1E2D"/>
<path d="M3.20312 18.0408C3.20312 18.0408 4.09375 18.5461 5.99313 18.6548C5.99313 18.6548 6.34375 18.7744 6.41641 19.1236L6.63109 20.6527L4.09328 20.3269L3.49094 20.0991L3.28563 19.7311L3.20312 18.0403" fill="#243438"/>
<path d="M3.20258 19.7156C3.20258 19.7156 4.26055 20.5575 6.96664 20.5519L7.0107 21.2555C7.0107 21.2555 4.85352 21.5306 3.2757 20.3086L3.20117 19.7156" fill="#D0C9CC"/>
<path d="M4.01578 16.5469L2.49047 16.0922L0 17.1056L2.47266 17.5434L4.01578 16.8178V16.5469Z" fill="#D8D4D5"/>
<path d="M2.94531 17.2069C2.94531 17.2069 3.55609 18.5995 6.77547 17.9555C6.77547 17.9555 13.9239 13.1039 18.1427 12.2883L13.1842 11.5163C13.1842 11.5158 6.54203 13.0317 2.94719 17.2064" fill="#DB3A0E"/>
<path d="M20.7891 12.8667C20.7891 12.8667 22.1503 11.8683 24.6398 13.0158V13.5825L20.7891 15.2756V12.8667" fill="#BE1E2D"/>
<path d="M18.1406 12.4031L20.7891 12.8667V15.2756L18.1406 14.6906V12.4031Z" fill="#BE1E2D"/>
<path d="M18.7072 14.2242C18.7072 14.2242 17.0708 14.4267 17.8668 16.282L18.5989 17.0766L19.955 16.3748L20.7814 16.5V15.2526L19.8613 15.0661C19.8608 15.0661 19.7211 14.1764 18.7072 14.2242" fill="#C1BFC0"/>
<path d="M15.5624 15.217C15.5624 15.217 14.1642 15.1463 13.8145 15.5906C13.8145 15.5906 12.457 16.5483 12.6665 19.2127L12.8062 21.0581L12.8999 21.2916C12.8999 21.2916 15.5198 22.2263 16.5464 22.1555C16.5464 22.1555 17.4773 21.9914 18.0145 21.4317C18.0145 21.4317 19.5323 20.0766 19.0195 16.9463C19.0195 16.9463 18.7471 15.6497 17.0653 15.3952L15.5624 15.217" fill="#2E4044"/>
<path d="M18.4223 19.1499C18.2367 20.1258 17.6714 20.8369 17.16 20.7375C16.6486 20.6409 16.3856 19.7714 16.5712 18.7964C16.7569 17.8205 17.3236 17.1094 17.835 17.2078C18.3469 17.3053 18.6094 18.1744 18.4223 19.1499Z" fill="#D0C9CC"/>
<path d="M27.0222 10.9172C27.0222 10.9172 25.909 10.8567 25.6291 11.2369C25.6291 11.2369 24.5491 12.0577 24.7169 14.3395L24.8271 15.9211L24.9007 16.1217C24.9007 16.1217 26.9871 16.9219 27.8036 16.8619C27.8036 16.8619 28.5452 16.7212 28.9736 16.2412C28.9736 16.2412 30.1807 15.0797 29.7724 12.398C29.7724 12.398 29.5549 11.287 28.2166 11.0691L27.0222 10.9172" fill="#2E4044"/>
<path d="M29.3015 14.287C29.1506 15.1223 28.7015 15.7317 28.2951 15.6483C27.8887 15.5639 27.6792 14.8186 27.8264 13.9833C27.9754 13.148 28.4245 12.5386 28.8328 12.6225C29.2392 12.7059 29.4487 13.4517 29.3015 14.287Z" fill="#D0C9CC"/>
<path d="M7.12391 19.958L9.13578 19.043L13.1131 19.5361L13.8856 21.0113L10.8805 22.3753L7.07422 21.4088L7.12391 19.958Z" fill="#CC293D"/>
<path d="M8.03516 18.7223L10.3555 17.8219L13.4867 18.3047L13.1131 19.5361L10.8805 20.4872L8.08813 19.8375L8.03516 18.7223Z" fill="#D8D4D5"/>
<path d="M6.96484 20.5538L7.01219 21.2578L10.8273 22.1578V21.443L6.96484 20.5538ZM8.03359 18.7224L10.8273 19.3781L10.8789 20.4872L8.08656 19.8375L8.03359 18.7224Z" fill="#D0C9CC"/>
<path d="M10.8281 19.3781L13.4859 18.3047L13.1123 19.5361L10.8797 20.4872L10.8281 19.3781Z" fill="#A5A2A3"/>
<path d="M15.0898 11.3297C15.0898 11.3297 15.1189 9.31359 17.0178 9.25547C17.0178 9.25547 18.7564 9.12422 18.4494 11.2575C18.1442 13.3903 18.1588 11.4469 18.0702 11.4623C17.982 11.4764 15.6158 11.7108 15.6158 11.7108L15.0898 11.3297" fill="#2E3192"/>
<path d="M15.1322 10.7569C15.1322 10.7569 15.2779 10.4105 15.9511 10.425C15.9511 10.425 17.7445 10.425 17.8551 10.8488C17.8551 10.8488 18.0904 11.5505 15.209 11.4188C15.2095 11.4188 14.9025 11.2425 15.1322 10.7569" fill="#939598"/>
<path d="M29.3207 7.935L28.2004 7.79344L24.877 9.33938L26.0943 9.57891L29.3207 7.935Z" fill="#BE1E2D"/>
<path d="M14.5291 11.7281L13.1823 11.5186C13.1823 11.5186 6.54016 13.0345 2.94531 17.2092C2.94531 17.2092 3.03203 17.4052 3.30953 17.6175C7.28875 13.3233 12.8477 12.0324 14.5291 11.7281" fill="#CC293D"/>
<path d="M4.46094 18.067C5.01828 18.1589 5.76969 18.1561 6.77562 17.9555C6.77562 17.9555 13.9241 13.1039 18.1428 12.2883L16.5509 12.0399C10.1061 13.0978 5.69937 16.8858 4.46281 18.0666" fill="#CC293D"/>
<path d="M14.5286 11.7281C12.8472 12.0323 7.28828 13.3233 3.30859 17.6175C3.53969 17.7923 3.90484 17.9784 4.46031 18.0694C5.69875 16.8886 10.1041 13.1006 16.5484 12.0426L14.5286 11.7281" fill="white"/>
<path d="M21.8809 8.65781L23.8932 7.44609L25.5512 7.57968L23.0668 8.93437L21.8809 8.65781Z" fill="#CC293D"/>
<path d="M13.8852 16.1498C13.8852 16.1498 13.2341 16.8506 13.2027 17.6723L15.6407 18.1828C15.6407 18.1828 15.8849 17.1633 16.5491 16.5572L13.8852 16.1498M25.6495 11.6991C25.6495 11.6991 25.0884 12.3052 25.0607 13.0139L27.1649 13.4555C27.1649 13.4555 27.3768 12.5747 27.9491 12.0516L25.6495 11.6991ZM2.37977 13.8398C2.31695 13.8455 1.66211 14.6438 1.66211 14.9644L3.57742 15.3947C3.57742 15.3947 3.9618 14.3714 4.3457 14.1169L2.37977 13.8398Z" fill="#939598"/>
</svg>
