<svg width="30" height="30" viewBox="0 0 30 30" fill="none" xmlns="http://www.w3.org/2000/svg">
<path d="M29.0625 29.0625H0.9375V26.8125L29.0625 19.9219V29.0625Z" fill="#83BF4F"/>
<path d="M0.9375 20.7656L29.0625 18.8438V19.5469L0.9375 24.75V20.7656Z" fill="#94989B"/>
<path d="M0.9375 19.5469L29.0625 17.8125V18.75L0.9375 20.7656V19.5469ZM0.9375 23.2031L29.0625 19.2656V19.7813L0.9375 25.7812V23.2031Z" fill="#3E4347"/>
<path d="M0.9375 25.125L29.0625 19.6406V19.9219L0.9375 27.7031V25.125Z" fill="#C5D0D8"/>
<path d="M22.2188 5.57812C21.7969 5.29687 20.7656 5.20313 20.25 5.29688C19.5938 5.39063 17.9062 6.5625 17.9062 6.5625C17.9062 6.5625 16.9688 5.39062 16.0312 4.64062C15.9844 4.64062 15.9844 4.6875 15.9375 4.6875C14.5312 5.76563 11.8125 8.39063 10.3594 9.42188C9.84375 9.79688 8.625 10.6406 8.01563 10.6406H3.65625C3.46875 10.6406 3.28125 10.3594 3.28125 10.125C3.28125 9.14063 4.78125 6.42188 6.09375 4.3125C4.82813 5.625 3.84375 7.17188 3.14062 8.76563C2.4375 10.3125 1.96875 11.9062 1.64062 13.2656C1.35937 14.4375 1.17188 15.4687 1.125 16.1719L1.07812 16.7344C1.03125 16.9688 1.03125 17.1094 1.03125 17.1094L17.9531 17.3437L29.0625 17.5313V10.0312C27.7031 9.1875 23.0625 6.09375 22.2188 5.57812" fill="#DFECF4"/>
<path d="M19.8281 2.85938C19.2656 2.57812 18.0469 2.15625 17.3906 2.01563C17.0156 1.96875 16.5938 1.92188 16.0781 1.875C17.2969 2.39063 18.4688 3.09375 18.4688 3.09375C18.4688 3.09375 16.7812 4.125 16.0781 4.59375C17.0156 5.34375 17.9531 6.51563 17.9531 6.51563C17.9531 6.51563 19.6875 5.39063 20.2969 5.25C20.7656 5.15625 21.7969 5.29688 22.2656 5.53125C23.1094 6.04688 27.7969 9.09375 29.1094 9.98438V9.375C29.0625 9.42188 22.2656 4.125 19.8281 2.85938Z" fill="#42ADE2"/>
<path d="M16.0313 1.92187C15.5156 1.875 14.9062 1.875 14.25 1.875C11.625 1.92188 9.14062 2.15625 7.64062 3C6.9375 3.375 6.46875 3.89062 6.04687 4.3125C4.78125 6.42187 3.28125 9.14062 3.28125 10.0781C3.28125 10.3125 3.46875 10.5938 3.65625 10.5938H8.01563C8.625 10.5938 9.84375 9.75 10.3594 9.375C11.8125 8.39063 14.5312 5.76562 15.9375 4.6875C15.9844 4.6875 15.9844 4.64063 16.0313 4.59375C16.7344 4.125 18.4219 3.09375 18.4219 3.09375C18.4219 3.09375 17.2969 2.39062 16.0313 1.92187M24.7031 9.46875V12.7969C25.0313 12.8906 25.3594 12.9844 25.7344 13.125V9.98437C25.3594 9.79687 25.0313 9.60938 24.7031 9.46875ZM26.2031 10.2187V13.2656C26.4844 13.3594 26.7187 13.4531 27 13.5469V10.6875C26.7187 10.5 26.4375 10.3594 26.2031 10.2187Z" fill="#3E4347"/>
<path d="M14.1094 15C15.8906 14.3906 19.2187 12.4219 21.0469 12.0938C21.375 12.0469 22.0781 12.1406 22.4062 12.1875C22.8281 12.2813 23.4844 12.4219 24.1875 12.6563V9.23438C23.4844 8.90625 22.875 8.67188 22.4531 8.57813C22.125 8.48437 21.5156 8.48437 21.1875 8.57813C19.125 9.32813 15.7031 12.8438 13.7344 13.875C12.1875 14.6719 9 16.1719 7.35937 16.1719H1.07812C1.03125 16.4063 1.03125 16.5938 1.03125 16.7344H7.54687C9.23437 16.6875 12.4687 15.5625 14.1094 15Z" fill="#42ADE2"/>
<path d="M28.4062 11.4375V14.0156C28.6406 14.1094 28.875 14.1562 29.0625 14.25V11.8125C28.875 11.7188 28.6406 11.5781 28.4062 11.4375ZM27.375 10.8281V13.6406C27.6563 13.7344 27.8906 13.8281 28.125 13.875V11.25C27.8438 11.1094 27.6094 10.9688 27.375 10.8281M0.984375 17.0625C0.984375 17.0625 1.59375 19.125 3.32812 19.0312L29.0625 18.2344V17.5313L0.984375 17.0625" fill="#3E4347"/>
<path d="M2.76562 19.0312C2.76562 19.0312 3.89062 19.7812 3 20.5781C2.53125 21 3.14063 21.7969 4.96875 21.6562C11.0156 21.0469 29.0625 19.1719 29.0625 19.1719V18.2344L2.76562 19.0312Z" fill="#62727A"/>
<path d="M11.3438 13.4531C10.5938 14.2031 9.60938 14.4375 9.14062 13.9687C8.67188 13.5 8.90625 12.5156 9.65625 11.7187C10.4063 10.9687 11.3906 10.7344 11.8594 11.2031C12.375 11.6719 12.1406 12.7031 11.3438 13.4531ZM2.10938 13.6406C2.4375 13.6406 2.67187 13.0781 2.625 12.375C2.57812 11.8594 2.4375 11.4375 2.20312 11.25C1.96875 11.9531 1.78125 12.6094 1.64062 13.2188C1.78125 13.5 1.92187 13.6406 2.10938 13.6406" fill="white"/>
</svg>
