<svg width="30" height="30" viewBox="0 0 30 30" fill="none" xmlns="http://www.w3.org/2000/svg">
<path d="M22.0875 19.5605C22.0875 19.5605 27.0703 19.2272 28.1119 17.3133C29.1591 15.4031 30.5006 10.6519 25.5609 10.1939C20.6245 9.73688 21.1959 12.7444 21.9216 13.4892C22.6523 14.2303 25.3242 14.2247 26.04 13.9739C26.7558 13.7222 27.8976 14.6273 27.2334 16.11C26.5711 17.595 22.0875 19.5623 22.0875 19.5623" fill="#926C48"/>
<path d="M5.96349 4.14328C5.39162 4.52438 5.0349 5.22469 4.78693 5.8261C4.12271 7.43016 5.18302 7.77047 5.19568 7.76954C5.90818 8.0625 6.75896 8.45954 7.14943 4.73063C7.20849 4.13579 6.51849 3.77297 5.96349 4.14328" fill="#A87C51"/>
<path d="M15.2113 16.3322C14.9734 16.3171 14.7352 16.3063 14.4969 16.2998C13.5388 16.2797 12.8061 16.5337 12.5821 16.9659C12.3655 17.385 12.5708 18.053 13.161 18.8503C14.0249 20.0175 14.5719 20.1853 14.9057 20.2055C15.2258 20.228 15.5624 20.1202 15.951 19.9969C16.2048 19.9111 16.4628 19.8382 16.7239 19.7784C18.0486 19.4977 19.1277 19.8422 19.8139 20.7445C21.0646 22.3903 20.6596 25.3345 20.4486 26.453C20.6821 26.7591 21.4569 27.4223 22.1938 27.4716C22.3991 27.4847 23.0319 27.5283 23.5738 26.4164C23.6905 25.838 23.938 22.3336 21.9753 19.6177C20.5489 17.6456 18.2746 16.5403 15.2113 16.3317" fill="#926C48"/>
<path d="M21.2111 16.223C20.964 16.2064 20.7166 16.1953 20.4691 16.1897C19.4758 16.1686 18.7131 16.4339 18.4783 16.8825C18.2561 17.3184 18.4689 18.0131 19.0816 18.8391C19.9788 20.0536 20.5488 20.2251 20.8928 20.25C21.2275 20.2734 21.5772 20.1628 21.9822 20.0325C22.2455 19.9429 22.5135 19.8681 22.7852 19.8084C24.1619 19.5155 25.2831 19.8717 25.9975 20.8087C27.2978 22.5201 26.8783 25.5816 26.6561 26.7403C26.9003 27.0623 27.7028 27.7495 28.4692 27.8006C28.6834 27.8142 29.3402 27.8606 29.9031 26.7042C30.0274 26.1028 30.2824 22.462 28.2414 19.6401C26.7616 17.5903 24.3972 16.4414 21.2111 16.2267" fill="#A87C51"/>
<path d="M11.5299 19.7859C10.6477 18.5639 9.43367 17.6761 7.91304 17.1272C7.90367 17.7258 7.96273 18.3122 8.18492 18.8433C8.42351 19.4123 9.24523 20.7511 9.36898 20.9128C10.6196 22.5581 10.2165 25.5042 10.0037 26.6217C10.2385 26.9278 11.012 27.5902 11.7484 27.6403C11.9555 27.6544 12.5884 27.6966 13.127 26.5847C13.2488 26.0067 13.493 22.5019 11.5299 19.7859" fill="#926C48"/>
<path d="M10.7691 16.3941C10.522 16.3781 10.2746 16.367 10.0271 16.3608C9.03148 16.3397 8.26742 16.6031 8.03632 17.0531C7.81226 17.4886 8.0232 18.1828 8.63773 19.0092C9.53867 20.2242 10.1049 20.3963 10.4509 20.4202C10.7837 20.4417 11.1338 20.332 11.5388 20.2027C11.7905 20.1216 12.053 20.0372 12.3399 19.9772C13.7166 19.6842 14.8398 20.0405 15.5537 20.9794C16.8526 22.6884 16.4344 25.7513 16.2141 26.9109C16.4565 27.2311 17.2613 27.9178 18.0254 27.9703C18.2419 27.9848 18.8963 28.0294 19.4593 26.8739C19.5835 26.2725 19.8371 22.6317 17.798 19.8098C16.3159 17.7586 13.9515 16.6116 10.7691 16.3969" fill="#A87C51"/>
<path d="M13.872 14.2542C10.0456 13.9205 7.24859 13.6233 7.00437 16.4133C6.76202 19.2042 9.66499 21.7378 13.4891 22.0711C15.6744 22.2623 17.6872 21.6905 19.0559 20.6442C19.2298 20.662 19.4019 20.6841 19.5795 20.6813C21.7869 20.6461 23.5503 19.0763 23.5203 17.1717C23.4889 15.3717 16.2069 14.4567 13.872 14.2533" fill="#A87C51"/>
<path d="M21.7172 15.4294C19.7817 15.1369 18.3628 14.8838 18.2517 17.152C18.1425 19.4241 23.3381 20.9775 24.644 20.692C25.7376 20.4525 26.6461 19.4034 26.624 17.8514C26.5997 16.3856 22.9031 15.6038 21.7172 15.4275" fill="#A87C51"/>
<path d="M22.434 14.4619C16.7429 14.4314 19.1293 17.1112 19.0186 19.3805C18.908 21.6534 24.053 20.0105 25.359 19.7255C26.4507 19.4845 27.3629 18.4364 27.3352 16.8848C27.3132 15.4186 23.633 14.4656 22.434 14.4605M16.1897 16.9312C16.4176 15.0858 8.80786 6.06562 7.33505 6.49641C5.8163 6.94406 3.77161 7.24828 3.86021 8.57156C4.18974 13.5286 9.18896 20.7328 10.4602 20.5762C12.2475 20.3512 15.9572 18.78 16.1902 16.9312" fill="#A87C51"/>
<path d="M8.77758 7.18687C8.57602 7.2239 8.37258 7.25812 8.16914 7.29328C8.21742 7.44046 8.28398 7.57828 8.33367 7.72171C8.6482 7.62843 9.00164 7.65515 9.3218 7.9214C11.3829 9.64218 13.9493 13.2131 14.3191 15.9277C14.5005 17.2542 14.1602 18.5142 13.4885 19.5731C14.8465 18.9023 16.062 17.9616 16.1913 16.9303C16.3765 15.4406 11.457 9.28265 8.77758 7.1864M10.3057 18.5986C12.4334 17.8345 9.70242 15.0323 9.14555 14.2655C7.80023 12.4097 6.74367 9.98624 6.0518 7.71234C5.28633 7.90453 4.54242 8.16093 3.86133 8.56124V8.57062C4.08164 11.9184 6.43289 16.2839 8.33133 18.7223C8.97164 18.8559 9.63961 18.8372 10.3057 18.5986" fill="#926C48"/>
<path d="M1.72585 12.0248C3.2985 12.6825 5.12428 12.4158 6.60835 12.0661C10.566 11.1319 9.58538 8.3836 9.5685 8.36391C9.03038 6.4186 8.48991 5.09954 1.0321 9.71954C-0.154309 10.4541 0.206628 11.3883 1.72585 12.0248" fill="#A87C51"/>
<path d="M8.89606 3.95344C8.11137 4.4761 7.62481 5.43375 7.2845 6.255C6.37793 8.44922 7.82637 8.91469 7.84137 8.91282C8.81825 9.315 9.98403 9.85969 10.517 4.75735C10.6018 3.94594 9.6545 3.44813 8.89606 3.95344Z" fill="#A87C51"/>
<path d="M7.21435 8.30062C7.22185 8.78812 6.90357 9.18703 6.49997 9.19359C6.09685 9.20109 5.76732 8.81156 5.75794 8.32499C5.75044 7.83656 6.06872 7.43671 6.47185 7.43015C6.87357 7.42359 7.20685 7.81265 7.21435 8.30062" fill="#25333A"/>
<path d="M13.4422 12.4284C12.8295 14.9714 9.05184 16.372 6.85621 16.5773C5.56668 16.6973 6.19012 17.7281 6.99309 17.6531C9.68137 17.4023 14.2976 16.7723 15.0415 13.6828C15.1451 13.253 13.5875 11.835 13.445 12.4284" fill="#BE202E"/>
<path d="M10.712 18.0759C10.712 18.7622 10.253 19.3181 9.68867 19.3181C9.12242 19.3181 8.66211 18.7622 8.66211 18.0759C8.66211 17.3916 9.12289 16.8356 9.68867 16.8356C10.253 16.8356 10.712 17.3916 10.712 18.0759Z" fill="#F7EC35"/>
<path d="M0 9.9689C0 8.98781 0.834375 9.00562 1.97391 9.00562C3.11391 9.00562 4.12359 8.98781 4.12359 9.9689C4.12359 10.9514 3.20016 11.7473 2.06062 11.7473C0.923437 11.7473 0 10.9514 0 9.9689Z" fill="#25333A"/>
</svg>
