<svg width="38" height="30" viewBox="0 0 38 30" fill="none" xmlns="http://www.w3.org/2000/svg">
<g clip-path="url(#clip0_1323_290)">
<path d="M8.4375 9.375C11.0273 9.375 13.125 7.27734 13.125 4.6875C13.125 2.09766 11.0273 0 8.4375 0C5.84766 0 3.75 2.09766 3.75 4.6875C3.75 7.27734 5.84766 9.375 8.4375 9.375ZM30 9.375C32.5898 9.375 34.6875 7.27734 34.6875 4.6875C34.6875 2.09766 32.5898 0 30 0C27.4102 0 25.3125 2.09766 25.3125 4.6875C25.3125 7.27734 27.4102 9.375 30 9.375ZM0 17.502C0 18.1875 0.5625 18.75 1.24805 18.75H13.793C12.2344 17.373 11.2559 15.3633 11.2559 13.125C11.2559 12.6797 11.2969 12.2461 11.3672 11.8184C10.5703 11.4492 9.68555 11.25 8.75391 11.25H6.25195C2.80078 11.25 0 14.0508 0 17.502ZM18.75 18.75C20.1562 18.75 21.4395 18.2344 22.4238 17.3848C22.5703 17.168 22.7285 16.957 22.8926 16.7578C23.0508 16.5645 23.2266 16.4004 23.4199 16.2715C24.0234 15.3691 24.375 14.291 24.375 13.125C24.375 10.0195 21.8555 7.5 18.75 7.5C15.6445 7.5 13.125 10.0195 13.125 13.125C13.125 16.2305 15.6445 18.75 18.75 18.75ZM22.582 22.2773C21.9785 21.9316 21.5215 21.3281 21.3633 20.625H15.3105C10.998 20.625 7.5 24.123 7.5 28.4355C7.5 29.2969 8.19726 30 9.06445 30H26.6719C26.5488 29.6953 26.4844 29.3613 26.4844 29.0391V28.8633C26.4082 28.8223 26.3262 28.7754 26.25 28.7285L26.0977 28.8164C25.1133 29.3848 23.7246 29.2852 22.8926 28.248C22.6289 27.9199 22.3887 27.5742 22.166 27.2168L22.1602 27.2051L22.1543 27.1934L22.0137 26.9531L22.0078 26.9414L22.002 26.9297C21.8027 26.5664 21.627 26.1914 21.4746 25.7988C20.9941 24.5566 21.6035 23.3027 22.5879 22.7344L22.7461 22.6465V22.377L22.5879 22.2891L22.582 22.2773ZM31.248 11.25H28.752C27.8203 11.25 26.9355 11.4551 26.1387 11.8184C26.2148 12.2402 26.25 12.6797 26.25 13.125C26.25 14.1445 26.0449 15.1113 25.6816 15.9961C25.8281 16.0488 25.9687 16.1133 26.0977 16.1895L26.25 16.2773C26.3262 16.2305 26.4023 16.1836 26.4844 16.1426V15.9668C26.4844 14.8301 27.2637 13.6758 28.582 13.4707C29.0449 13.4004 29.5195 13.3594 30 13.3594C30.4805 13.3594 30.9551 13.3945 31.418 13.4707C32.7363 13.6758 33.5156 14.8301 33.5156 15.9668V16.1426C33.5918 16.1836 33.6738 16.2305 33.75 16.2773L33.9023 16.1895C34.8867 15.6211 36.2754 15.7207 37.1074 16.7578C37.2422 16.9219 37.3711 17.0977 37.4941 17.2676C37.3711 13.9219 34.623 11.25 31.248 11.25ZM36.5977 20.8535C36.9668 20.6426 37.1543 20.2031 36.9961 19.7988C36.873 19.4766 36.7266 19.166 36.5625 18.8672L36.4277 18.6328C36.2461 18.334 36.0469 18.0527 35.8301 17.7832C35.5605 17.4492 35.0859 17.3906 34.7168 17.6074L33.6562 18.2227C33.1348 17.7773 32.5371 17.4258 31.875 17.1914V15.9609C31.875 15.5332 31.5879 15.1523 31.166 15.0879C30.7852 15.0293 30.3984 15 30 15C29.6016 15 29.2148 15.0293 28.834 15.0879C28.4121 15.1523 28.125 15.5332 28.125 15.9609V17.1914C27.4687 17.4258 26.8652 17.7773 26.3437 18.2227L25.2773 17.6074C24.9082 17.3965 24.4336 17.4551 24.1641 17.7832C23.9473 18.0527 23.748 18.3398 23.5664 18.6387L23.4316 18.8672C23.2676 19.166 23.1211 19.4766 22.998 19.7988C22.8457 20.1973 23.0273 20.6367 23.3965 20.8477L24.4629 21.4629C24.4043 21.7969 24.3691 22.1426 24.3691 22.4941C24.3691 22.8457 24.4043 23.1914 24.4629 23.5195L23.3965 24.1348C23.0273 24.3457 22.8398 24.7852 22.998 25.1836C23.1211 25.5059 23.2676 25.8105 23.4316 26.1094L23.5723 26.3496C23.748 26.6484 23.9473 26.9297 24.1641 27.1992C24.4336 27.5332 24.9082 27.5918 25.2773 27.375L26.3437 26.7773C26.8652 27.2227 27.4687 27.5742 28.125 27.8086V29.0391C28.125 29.4668 28.4121 29.8477 28.834 29.9121C29.2148 29.9707 29.6016 30 30 30C30.3984 30 30.7852 29.9707 31.166 29.9121C31.5879 29.8477 31.875 29.4668 31.875 29.0391V27.8086C32.5312 27.5742 33.1348 27.2227 33.6562 26.7773L34.7227 27.3926C35.0918 27.6035 35.5664 27.5449 35.8359 27.2168C36.0527 26.9473 36.252 26.666 36.4277 26.3672L36.5684 26.1211C36.7324 25.8223 36.8789 25.5176 37.002 25.1953C37.1543 24.7969 36.9727 24.3574 36.6035 24.1465L35.5371 23.5313C35.5957 23.1973 35.6309 22.8516 35.6309 22.5059C35.6309 22.1602 35.5957 21.8086 35.5371 21.4746L36.6035 20.8594L36.5977 20.8535ZM32.3437 22.5C32.3437 23.7949 31.2949 24.8438 30 24.8438C28.7051 24.8438 27.6562 23.7949 27.6562 22.5C27.6562 21.2051 28.7051 20.1562 30 20.1562C31.2949 20.1562 32.3437 21.2051 32.3437 22.5Z" fill="#28540D"/>
</g>
<defs>
<clipPath id="clip0_1323_290">
<rect width="37.5" height="30" fill="white"/>
</clipPath>
</defs>
</svg>
