<svg width="30" height="30" viewBox="0 0 30 30" fill="none" xmlns="http://www.w3.org/2000/svg">
<path d="M26.25 24.375H3.75V14.375L15 3.75L26.25 14.375V24.375Z" fill="#E8EAF6"/>
<path d="M24.375 13.125L21.25 10V5.625H24.375V13.125ZM3.75 24.375H26.25V27.5H3.75V24.375Z" fill="#C5CAE9"/>
<path d="M15 2.6875L2.5 14.3125L3.75 15.6875L15 5.25L26.25 15.6875L27.5 14.3125L15 2.6875Z" fill="#B71C1C"/>
<path d="M11.25 17.5H18.75V27.5H11.25V17.5Z" fill="#D84315"/>
<path d="M13.125 10.625H16.875V14.375H13.125V10.625Z" fill="#01579B"/>
<path d="M17.1875 22.1875C17 22.1875 16.875 22.3125 16.875 22.5V23.75C16.875 23.9375 17 24.0625 17.1875 24.0625C17.375 24.0625 17.5 23.9375 17.5 23.75V22.5C17.5 22.3125 17.375 22.1875 17.1875 22.1875Z" fill="#FF8A65"/>
</svg>
