<svg width="30" height="30" viewBox="0 0 30 30" fill="none" xmlns="http://www.w3.org/2000/svg">
<path d="M19.6836 10.3219H2.80859V28.1344H19.6836V10.3219V10.3219Z" fill="url(#paint0_linear_1322_212)"/>
<path d="M19.6836 10.3219H2.80859V28.1344H19.6836V10.3219V10.3219Z" fill="url(#paint1_linear_1322_212)"/>
<path d="M19.6836 10.3219H2.80859V28.1344H19.6836V10.3219V10.3219Z" fill="url(#paint2_linear_1322_212)"/>
<path d="M19.6836 10.3219H2.80859V28.1344H19.6836V10.3219V10.3219Z" fill="url(#paint3_radial_1322_212)"/>
<g filter="url(#filter0_ii_1322_212)">
<path d="M5.98672 19.6969H4.31797C3.99922 19.6969 3.74609 19.4438 3.74609 19.125V14.6438C3.74609 14.325 3.99922 14.0719 4.31797 14.0719H5.98672C6.30547 14.0719 6.55859 14.325 6.55859 14.6438V19.125C6.55859 19.4438 6.30547 19.6969 5.98672 19.6969Z" fill="url(#paint4_linear_1322_212)"/>
</g>
<path d="M27.1836 10.3219H10.3086V28.1344H27.1836V10.3219V10.3219Z" fill="url(#paint5_linear_1322_212)"/>
<path d="M27.1836 10.3219H10.3086V28.1344H27.1836V10.3219V10.3219Z" fill="url(#paint6_linear_1322_212)"/>
<path d="M27.1836 10.3219H10.3086V28.1344H27.1836V10.3219V10.3219Z" fill="url(#paint7_linear_1322_212)"/>
<g filter="url(#filter1_i_1322_212)">
<path d="M1.87109 10.3219C1.87109 9.80625 2.29297 9.38438 2.80859 9.38438H27.1836C27.6992 9.38438 28.1211 9.80625 28.1211 10.3219C28.1211 10.8375 27.6992 11.2594 27.1836 11.2594H2.80859C2.29297 11.2594 1.87109 10.8375 1.87109 10.3219V10.3219Z" fill="url(#paint8_linear_1322_212)"/>
<path d="M1.87109 10.3219C1.87109 9.80625 2.29297 9.38438 2.80859 9.38438H27.1836C27.6992 9.38438 28.1211 9.80625 28.1211 10.3219C28.1211 10.8375 27.6992 11.2594 27.1836 11.2594H2.80859C2.29297 11.2594 1.87109 10.8375 1.87109 10.3219V10.3219Z" fill="url(#paint9_radial_1322_212)"/>
</g>
<g filter="url(#filter2_i_1322_212)">
<path d="M7.49609 3.75V28.1344H22.4961V3.75H7.49609V3.75Z" fill="url(#paint10_linear_1322_212)"/>
</g>
<path d="M7.49609 3.75V28.1344H22.4961V3.75H7.49609V3.75Z" fill="url(#paint11_linear_1322_212)"/>
<path d="M7.49609 3.75V28.1344H22.4961V3.75H7.49609V3.75Z" fill="url(#paint12_linear_1322_212)"/>
<g filter="url(#filter3_ii_1322_212)">
<path d="M25.6742 19.6969H24.0055C23.6867 19.6969 23.4336 19.4438 23.4336 19.125V14.6438C23.4336 14.325 23.6867 14.0719 24.0055 14.0719H25.6742C25.993 14.0719 26.2461 14.325 26.2461 14.6438V19.125C26.2461 19.4438 25.993 19.6969 25.6742 19.6969Z" fill="url(#paint13_linear_1322_212)"/>
</g>
<g filter="url(#filter4_f_1322_212)">
<path d="M18.1098 7.63125H11.4723C11.2379 7.63125 11.041 7.455 11.041 7.22625V6.26531C11.041 6.045 11.2285 5.85938 11.4723 5.85938H18.1191C18.3535 5.85938 18.5504 6.03563 18.5504 6.26531V7.21781C18.5453 7.33063 18.4964 7.43702 18.4141 7.51438C18.3319 7.59175 18.2227 7.63401 18.1098 7.63219V7.63125Z" fill="#775461"/>
</g>
<g filter="url(#filter5_i_1322_212)">
<path d="M18.3148 7.50938H11.6773C11.443 7.50938 11.2461 7.32188 11.2461 7.07813V6.05625C11.2461 5.82188 11.4336 5.625 11.6773 5.625H18.3242C18.5586 5.625 18.7555 5.8125 18.7555 6.05625V7.06875C18.7461 7.3125 18.5586 7.50938 18.3148 7.50938V7.50938Z" fill="url(#paint14_linear_1322_212)"/>
<path d="M18.3148 7.50938H11.6773C11.443 7.50938 11.2461 7.32188 11.2461 7.07813V6.05625C11.2461 5.82188 11.4336 5.625 11.6773 5.625H18.3242C18.5586 5.625 18.7555 5.8125 18.7555 6.05625V7.06875C18.7461 7.3125 18.5586 7.50938 18.3148 7.50938V7.50938Z" fill="url(#paint15_linear_1322_212)"/>
<path d="M18.3148 7.50938H11.6773C11.443 7.50938 11.2461 7.32188 11.2461 7.07813V6.05625C11.2461 5.82188 11.4336 5.625 11.6773 5.625H18.3242C18.5586 5.625 18.7555 5.8125 18.7555 6.05625V7.06875C18.7461 7.3125 18.5586 7.50938 18.3148 7.50938V7.50938Z" fill="url(#paint16_linear_1322_212)"/>
</g>
<g filter="url(#filter6_f_1322_212)">
<path d="M18.5508 9.06375C18.5508 8.835 18.3633 8.64188 18.1195 8.64188H11.482C11.2477 8.64188 11.0508 8.82563 11.0508 9.06375V10.0528C11.0508 10.2816 11.2383 10.4738 11.482 10.4738H13.432C13.6664 10.4738 13.8633 10.6566 13.8633 10.8956V11.8838C13.8633 12.1125 14.0508 12.3047 14.2945 12.3047H15.307C15.5414 12.3047 15.7383 12.1219 15.7383 11.8828V10.8853C15.7383 10.6566 15.9258 10.4644 16.1695 10.4644H18.1195C18.3539 10.4644 18.5508 10.2816 18.5508 10.0425V9.06469V9.06375Z" fill="#775461"/>
</g>
<g filter="url(#filter7_i_1322_212)">
<path d="M18.7461 8.87813C18.7461 8.64375 18.5586 8.44688 18.3148 8.44688H11.6773C11.443 8.44688 11.2461 8.63438 11.2461 8.87813V9.89063C11.2461 10.125 11.4336 10.3219 11.6773 10.3219H13.6273C13.8617 10.3219 14.0586 10.5094 14.0586 10.7531V11.7656C14.0586 12 14.2461 12.1969 14.4898 12.1969H15.5023C15.7367 12.1969 15.9336 12.0094 15.9336 11.7656V10.7438C15.9336 10.5094 16.1211 10.3125 16.3648 10.3125H18.3148C18.5492 10.3125 18.7461 10.125 18.7461 9.88125V8.87813V8.87813Z" fill="url(#paint17_linear_1322_212)"/>
<path d="M18.7461 8.87813C18.7461 8.64375 18.5586 8.44688 18.3148 8.44688H11.6773C11.443 8.44688 11.2461 8.63438 11.2461 8.87813V9.89063C11.2461 10.125 11.4336 10.3219 11.6773 10.3219H13.6273C13.8617 10.3219 14.0586 10.5094 14.0586 10.7531V11.7656C14.0586 12 14.2461 12.1969 14.4898 12.1969H15.5023C15.7367 12.1969 15.9336 12.0094 15.9336 11.7656V10.7438C15.9336 10.5094 16.1211 10.3125 16.3648 10.3125H18.3148C18.5492 10.3125 18.7461 10.125 18.7461 9.88125V8.87813V8.87813Z" fill="url(#paint18_linear_1322_212)"/>
<path d="M18.7461 8.87813C18.7461 8.64375 18.5586 8.44688 18.3148 8.44688H11.6773C11.443 8.44688 11.2461 8.63438 11.2461 8.87813V9.89063C11.2461 10.125 11.4336 10.3219 11.6773 10.3219H13.6273C13.8617 10.3219 14.0586 10.5094 14.0586 10.7531V11.7656C14.0586 12 14.2461 12.1969 14.4898 12.1969H15.5023C15.7367 12.1969 15.9336 12.0094 15.9336 11.7656V10.7438C15.9336 10.5094 16.1211 10.3125 16.3648 10.3125H18.3148C18.5492 10.3125 18.7461 10.125 18.7461 9.88125V8.87813V8.87813Z" fill="url(#paint19_linear_1322_212)"/>
</g>
<path d="M8.43359 25.05H6.55859V28.1344H8.43359V25.05Z" fill="url(#paint20_linear_1322_212)"/>
<path d="M8.43359 25.05H6.55859V28.1344H8.43359V25.05Z" fill="url(#paint21_linear_1322_212)"/>
<path d="M8.43359 25.05H6.55859V28.1344H8.43359V25.05Z" fill="url(#paint22_radial_1322_212)"/>
<g filter="url(#filter8_i_1322_212)">
<path d="M8.53672 26.2594H6.46484C6.00547 26.2594 5.62109 25.8844 5.62109 25.4156V23.3437C5.62109 22.8844 5.99609 22.5 6.46484 22.5H8.53672C8.99609 22.5 9.38047 22.875 9.38047 23.3437V25.4156C9.37109 25.8844 8.99609 26.2594 8.53672 26.2594V26.2594Z" fill="url(#paint23_linear_1322_212)"/>
<path d="M8.53672 26.2594H6.46484C6.00547 26.2594 5.62109 25.8844 5.62109 25.4156V23.3437C5.62109 22.8844 5.99609 22.5 6.46484 22.5H8.53672C8.99609 22.5 9.38047 22.875 9.38047 23.3437V25.4156C9.37109 25.8844 8.99609 26.2594 8.53672 26.2594V26.2594Z" fill="url(#paint24_linear_1322_212)"/>
</g>
<path d="M7.96484 24.3844H7.02734C6.76484 24.3844 6.55859 24.1781 6.55859 23.9156C6.55859 23.6531 6.76484 23.4469 7.02734 23.4469H7.96484C8.22734 23.4469 8.43359 23.6531 8.43359 23.9156C8.43359 24.1688 8.22734 24.3844 7.96484 24.3844Z" fill="url(#paint25_radial_1322_212)"/>
<path d="M7.96484 24.3844H7.02734C6.76484 24.3844 6.55859 24.1781 6.55859 23.9156C6.55859 23.6531 6.76484 23.4469 7.02734 23.4469H7.96484C8.22734 23.4469 8.43359 23.6531 8.43359 23.9156C8.43359 24.1688 8.22734 24.3844 7.96484 24.3844Z" fill="url(#paint26_radial_1322_212)"/>
<g filter="url(#filter9_i_1322_212)">
<path d="M17.7992 28.1344H12.1836V23.7469C12.1836 23.0269 12.7545 22.4484 13.4661 22.4484H16.5167C16.8612 22.4514 17.1905 22.5907 17.4326 22.8357C17.6746 23.0808 17.8098 23.4118 17.8086 23.7563V28.1344H17.7992V28.1344Z" fill="url(#paint27_linear_1322_212)"/>
<path d="M17.7992 28.1344H12.1836V23.7469C12.1836 23.0269 12.7545 22.4484 13.4661 22.4484H16.5167C16.8612 22.4514 17.1905 22.5907 17.4326 22.8357C17.6746 23.0808 17.8098 23.4118 17.8086 23.7563V28.1344H17.7992V28.1344Z" fill="url(#paint28_linear_1322_212)"/>
</g>
<g filter="url(#filter10_i_1322_212)">
<path d="M6.55859 2.8125C6.55859 2.29687 6.98047 1.875 7.49609 1.875H22.4961C23.0117 1.875 23.4336 2.29687 23.4336 2.8125C23.4336 3.32813 23.0117 3.75 22.4961 3.75H7.49609C6.98047 3.75 6.55859 3.3375 6.55859 2.8125V2.8125Z" fill="url(#paint29_linear_1322_212)"/>
<path d="M6.55859 2.8125C6.55859 2.29687 6.98047 1.875 7.49609 1.875H22.4961C23.0117 1.875 23.4336 2.29687 23.4336 2.8125C23.4336 3.32813 23.0117 3.75 22.4961 3.75H7.49609C6.98047 3.75 6.55859 3.3375 6.55859 2.8125V2.8125Z" fill="url(#paint30_linear_1322_212)"/>
<path d="M6.55859 2.8125C6.55859 2.29687 6.98047 1.875 7.49609 1.875H22.4961C23.0117 1.875 23.4336 2.29687 23.4336 2.8125C23.4336 3.32813 23.0117 3.75 22.4961 3.75H7.49609C6.98047 3.75 6.55859 3.3375 6.55859 2.8125V2.8125Z" fill="url(#paint31_radial_1322_212)"/>
</g>
<g filter="url(#filter11_ii_1322_212)">
<path d="M13.6405 14.0597H10.8477C10.5888 14.0597 10.3789 14.2696 10.3789 14.5284V16.4053C10.3789 16.6642 10.5888 16.8741 10.8477 16.8741H13.6405C13.8994 16.8741 14.1092 16.6642 14.1092 16.4053V14.5284C14.1092 14.2696 13.8994 14.0597 13.6405 14.0597Z" fill="url(#paint32_linear_1322_212)"/>
</g>
<g filter="url(#filter12_ii_1322_212)">
<path d="M19.2147 14.0597H16.4219C16.163 14.0597 15.9531 14.2696 15.9531 14.5284V16.4053C15.9531 16.6642 16.163 16.8741 16.4219 16.8741H19.2147C19.4736 16.8741 19.6834 16.6642 19.6834 16.4053V14.5284C19.6834 14.2696 19.4736 14.0597 19.2147 14.0597Z" fill="url(#paint33_linear_1322_212)"/>
</g>
<g filter="url(#filter13_ii_1322_212)">
<path d="M13.6405 17.7759H10.8477C10.5888 17.7759 10.3789 17.9858 10.3789 18.2447V20.1216C10.3789 20.3804 10.5888 20.5903 10.8477 20.5903H13.6405C13.8994 20.5903 14.1092 20.3804 14.1092 20.1216V18.2447C14.1092 17.9858 13.8994 17.7759 13.6405 17.7759Z" fill="url(#paint34_linear_1322_212)"/>
</g>
<g filter="url(#filter14_ii_1322_212)">
<path d="M19.2147 17.7759H16.4219C16.163 17.7759 15.9531 17.9858 15.9531 18.2447V20.1216C15.9531 20.3804 16.163 20.5903 16.4219 20.5903H19.2147C19.4736 20.5903 19.6834 20.3804 19.6834 20.1216V18.2447C19.6834 17.9858 19.4736 17.7759 19.2147 17.7759Z" fill="url(#paint35_linear_1322_212)"/>
</g>
<defs>
<filter id="filter0_ii_1322_212" x="3.51172" y="13.9313" width="3.32812" height="6" filterUnits="userSpaceOnUse" color-interpolation-filters="sRGB">
<feFlood flood-opacity="0" result="BackgroundImageFix"/>
<feBlend mode="normal" in="SourceGraphic" in2="BackgroundImageFix" result="shape"/>
<feColorMatrix in="SourceAlpha" type="matrix" values="0 0 0 0 0 0 0 0 0 0 0 0 0 0 0 0 0 0 127 0" result="hardAlpha"/>
<feOffset dx="-0.234375" dy="0.234375"/>
<feGaussianBlur stdDeviation="0.375"/>
<feComposite in2="hardAlpha" operator="arithmetic" k2="-1" k3="1"/>
<feColorMatrix type="matrix" values="0 0 0 0 0.0705882 0 0 0 0 0.501961 0 0 0 0 0.878431 0 0 0 1 0"/>
<feBlend mode="normal" in2="shape" result="effect1_innerShadow_1322_212"/>
<feColorMatrix in="SourceAlpha" type="matrix" values="0 0 0 0 0 0 0 0 0 0 0 0 0 0 0 0 0 0 127 0" result="hardAlpha"/>
<feOffset dx="0.28125" dy="-0.140625"/>
<feGaussianBlur stdDeviation="0.28125"/>
<feComposite in2="hardAlpha" operator="arithmetic" k2="-1" k3="1"/>
<feColorMatrix type="matrix" values="0 0 0 0 0.290196 0 0 0 0 0.85098 0 0 0 0 1 0 0 0 1 0"/>
<feBlend mode="normal" in2="effect1_innerShadow_1322_212" result="effect2_innerShadow_1322_212"/>
</filter>
<filter id="filter1_i_1322_212" x="1.87109" y="9.15" width="26.4844" height="2.10938" filterUnits="userSpaceOnUse" color-interpolation-filters="sRGB">
<feFlood flood-opacity="0" result="BackgroundImageFix"/>
<feBlend mode="normal" in="SourceGraphic" in2="BackgroundImageFix" result="shape"/>
<feColorMatrix in="SourceAlpha" type="matrix" values="0 0 0 0 0 0 0 0 0 0 0 0 0 0 0 0 0 0 127 0" result="hardAlpha"/>
<feOffset dx="0.234375" dy="-0.234375"/>
<feGaussianBlur stdDeviation="0.28125"/>
<feComposite in2="hardAlpha" operator="arithmetic" k2="-1" k3="1"/>
<feColorMatrix type="matrix" values="0 0 0 0 0.686275 0 0 0 0 0.184314 0 0 0 0 0.231373 0 0 0 1 0"/>
<feBlend mode="normal" in2="shape" result="effect1_innerShadow_1322_212"/>
</filter>
<filter id="filter2_i_1322_212" x="7.49609" y="3.75" width="15.4688" height="24.4781" filterUnits="userSpaceOnUse" color-interpolation-filters="sRGB">
<feFlood flood-opacity="0" result="BackgroundImageFix"/>
<feBlend mode="normal" in="SourceGraphic" in2="BackgroundImageFix" result="shape"/>
<feColorMatrix in="SourceAlpha" type="matrix" values="0 0 0 0 0 0 0 0 0 0 0 0 0 0 0 0 0 0 127 0" result="hardAlpha"/>
<feOffset dx="0.46875" dy="0.09375"/>
<feGaussianBlur stdDeviation="0.46875"/>
<feComposite in2="hardAlpha" operator="arithmetic" k2="-1" k3="1"/>
<feColorMatrix type="matrix" values="0 0 0 0 0.447059 0 0 0 0 0.356863 0 0 0 0 0.407843 0 0 0 1 0"/>
<feBlend mode="normal" in2="shape" result="effect1_innerShadow_1322_212"/>
</filter>
<filter id="filter3_ii_1322_212" x="23.1992" y="13.9313" width="3.32812" height="6" filterUnits="userSpaceOnUse" color-interpolation-filters="sRGB">
<feFlood flood-opacity="0" result="BackgroundImageFix"/>
<feBlend mode="normal" in="SourceGraphic" in2="BackgroundImageFix" result="shape"/>
<feColorMatrix in="SourceAlpha" type="matrix" values="0 0 0 0 0 0 0 0 0 0 0 0 0 0 0 0 0 0 127 0" result="hardAlpha"/>
<feOffset dx="-0.234375" dy="0.234375"/>
<feGaussianBlur stdDeviation="0.375"/>
<feComposite in2="hardAlpha" operator="arithmetic" k2="-1" k3="1"/>
<feColorMatrix type="matrix" values="0 0 0 0 0.0705882 0 0 0 0 0.501961 0 0 0 0 0.878431 0 0 0 1 0"/>
<feBlend mode="normal" in2="shape" result="effect1_innerShadow_1322_212"/>
<feColorMatrix in="SourceAlpha" type="matrix" values="0 0 0 0 0 0 0 0 0 0 0 0 0 0 0 0 0 0 127 0" result="hardAlpha"/>
<feOffset dx="0.28125" dy="-0.140625"/>
<feGaussianBlur stdDeviation="0.28125"/>
<feComposite in2="hardAlpha" operator="arithmetic" k2="-1" k3="1"/>
<feColorMatrix type="matrix" values="0 0 0 0 0.501961 0 0 0 0 1 0 0 0 0 1 0 0 0 1 0"/>
<feBlend mode="normal" in2="effect1_innerShadow_1322_212" result="effect2_innerShadow_1322_212"/>
</filter>
<filter id="filter4_f_1322_212" x="10.7598" y="5.57812" width="8.07227" height="2.33537" filterUnits="userSpaceOnUse" color-interpolation-filters="sRGB">
<feFlood flood-opacity="0" result="BackgroundImageFix"/>
<feBlend mode="normal" in="SourceGraphic" in2="BackgroundImageFix" result="shape"/>
<feGaussianBlur stdDeviation="0.140625" result="effect1_foregroundBlur_1322_212"/>
</filter>
<filter id="filter5_i_1322_212" x="11.2461" y="5.39062" width="7.74414" height="2.11875" filterUnits="userSpaceOnUse" color-interpolation-filters="sRGB">
<feFlood flood-opacity="0" result="BackgroundImageFix"/>
<feBlend mode="normal" in="SourceGraphic" in2="BackgroundImageFix" result="shape"/>
<feColorMatrix in="SourceAlpha" type="matrix" values="0 0 0 0 0 0 0 0 0 0 0 0 0 0 0 0 0 0 127 0" result="hardAlpha"/>
<feOffset dx="0.234375" dy="-0.234375"/>
<feGaussianBlur stdDeviation="0.1875"/>
<feComposite in2="hardAlpha" operator="arithmetic" k2="-1" k3="1"/>
<feColorMatrix type="matrix" values="0 0 0 0 0.843137 0 0 0 0 0.188235 0 0 0 0 0.223529 0 0 0 1 0"/>
<feBlend mode="normal" in2="shape" result="effect1_innerShadow_1322_212"/>
</filter>
<filter id="filter6_f_1322_212" x="10.7695" y="8.36063" width="8.0625" height="4.22531" filterUnits="userSpaceOnUse" color-interpolation-filters="sRGB">
<feFlood flood-opacity="0" result="BackgroundImageFix"/>
<feBlend mode="normal" in="SourceGraphic" in2="BackgroundImageFix" result="shape"/>
<feGaussianBlur stdDeviation="0.140625" result="effect1_foregroundBlur_1322_212"/>
</filter>
<filter id="filter7_i_1322_212" x="11.2461" y="8.2125" width="7.73438" height="3.98438" filterUnits="userSpaceOnUse" color-interpolation-filters="sRGB">
<feFlood flood-opacity="0" result="BackgroundImageFix"/>
<feBlend mode="normal" in="SourceGraphic" in2="BackgroundImageFix" result="shape"/>
<feColorMatrix in="SourceAlpha" type="matrix" values="0 0 0 0 0 0 0 0 0 0 0 0 0 0 0 0 0 0 127 0" result="hardAlpha"/>
<feOffset dx="0.234375" dy="-0.234375"/>
<feGaussianBlur stdDeviation="0.1875"/>
<feComposite in2="hardAlpha" operator="arithmetic" k2="-1" k3="1"/>
<feColorMatrix type="matrix" values="0 0 0 0 0.843137 0 0 0 0 0.188235 0 0 0 0 0.223529 0 0 0 1 0"/>
<feBlend mode="normal" in2="shape" result="effect1_innerShadow_1322_212"/>
</filter>
<filter id="filter8_i_1322_212" x="5.62109" y="22.3594" width="4.04102" height="3.9" filterUnits="userSpaceOnUse" color-interpolation-filters="sRGB">
<feFlood flood-opacity="0" result="BackgroundImageFix"/>
<feBlend mode="normal" in="SourceGraphic" in2="BackgroundImageFix" result="shape"/>
<feColorMatrix in="SourceAlpha" type="matrix" values="0 0 0 0 0 0 0 0 0 0 0 0 0 0 0 0 0 0 127 0" result="hardAlpha"/>
<feOffset dx="0.28125" dy="-0.140625"/>
<feGaussianBlur stdDeviation="0.140625"/>
<feComposite in2="hardAlpha" operator="arithmetic" k2="-1" k3="1"/>
<feColorMatrix type="matrix" values="0 0 0 0 0.756863 0 0 0 0 0.219608 0 0 0 0 0.231373 0 0 0 1 0"/>
<feBlend mode="normal" in2="shape" result="effect1_innerShadow_1322_212"/>
</filter>
<filter id="filter9_i_1322_212" x="11.7148" y="22.4484" width="6.09375" height="6.15469" filterUnits="userSpaceOnUse" color-interpolation-filters="sRGB">
<feFlood flood-opacity="0" result="BackgroundImageFix"/>
<feBlend mode="normal" in="SourceGraphic" in2="BackgroundImageFix" result="shape"/>
<feColorMatrix in="SourceAlpha" type="matrix" values="0 0 0 0 0 0 0 0 0 0 0 0 0 0 0 0 0 0 127 0" result="hardAlpha"/>
<feOffset dx="-0.46875" dy="0.46875"/>
<feGaussianBlur stdDeviation="0.46875"/>
<feComposite in2="hardAlpha" operator="arithmetic" k2="-1" k3="1"/>
<feColorMatrix type="matrix" values="0 0 0 0 0.121569 0 0 0 0 0.0901961 0 0 0 0 0.14902 0 0 0 1 0"/>
<feBlend mode="normal" in2="shape" result="effect1_innerShadow_1322_212"/>
</filter>
<filter id="filter10_i_1322_212" x="6.55859" y="1.64062" width="17.1094" height="2.10938" filterUnits="userSpaceOnUse" color-interpolation-filters="sRGB">
<feFlood flood-opacity="0" result="BackgroundImageFix"/>
<feBlend mode="normal" in="SourceGraphic" in2="BackgroundImageFix" result="shape"/>
<feColorMatrix in="SourceAlpha" type="matrix" values="0 0 0 0 0 0 0 0 0 0 0 0 0 0 0 0 0 0 127 0" result="hardAlpha"/>
<feOffset dx="0.234375" dy="-0.234375"/>
<feGaussianBlur stdDeviation="0.28125"/>
<feComposite in2="hardAlpha" operator="arithmetic" k2="-1" k3="1"/>
<feColorMatrix type="matrix" values="0 0 0 0 0.686275 0 0 0 0 0.184314 0 0 0 0 0.231373 0 0 0 1 0"/>
<feBlend mode="normal" in2="shape" result="effect1_innerShadow_1322_212"/>
</filter>
<filter id="filter11_ii_1322_212" x="10.1445" y="13.9191" width="4.24609" height="3.18938" filterUnits="userSpaceOnUse" color-interpolation-filters="sRGB">
<feFlood flood-opacity="0" result="BackgroundImageFix"/>
<feBlend mode="normal" in="SourceGraphic" in2="BackgroundImageFix" result="shape"/>
<feColorMatrix in="SourceAlpha" type="matrix" values="0 0 0 0 0 0 0 0 0 0 0 0 0 0 0 0 0 0 127 0" result="hardAlpha"/>
<feOffset dx="-0.234375" dy="0.234375"/>
<feGaussianBlur stdDeviation="0.375"/>
<feComposite in2="hardAlpha" operator="arithmetic" k2="-1" k3="1"/>
<feColorMatrix type="matrix" values="0 0 0 0 0.0705882 0 0 0 0 0.501961 0 0 0 0 0.878431 0 0 0 1 0"/>
<feBlend mode="normal" in2="shape" result="effect1_innerShadow_1322_212"/>
<feColorMatrix in="SourceAlpha" type="matrix" values="0 0 0 0 0 0 0 0 0 0 0 0 0 0 0 0 0 0 127 0" result="hardAlpha"/>
<feOffset dx="0.28125" dy="-0.140625"/>
<feGaussianBlur stdDeviation="0.28125"/>
<feComposite in2="hardAlpha" operator="arithmetic" k2="-1" k3="1"/>
<feColorMatrix type="matrix" values="0 0 0 0 0.501961 0 0 0 0 1 0 0 0 0 1 0 0 0 1 0"/>
<feBlend mode="normal" in2="effect1_innerShadow_1322_212" result="effect2_innerShadow_1322_212"/>
</filter>
<filter id="filter12_ii_1322_212" x="15.7188" y="13.9191" width="4.24609" height="3.18938" filterUnits="userSpaceOnUse" color-interpolation-filters="sRGB">
<feFlood flood-opacity="0" result="BackgroundImageFix"/>
<feBlend mode="normal" in="SourceGraphic" in2="BackgroundImageFix" result="shape"/>
<feColorMatrix in="SourceAlpha" type="matrix" values="0 0 0 0 0 0 0 0 0 0 0 0 0 0 0 0 0 0 127 0" result="hardAlpha"/>
<feOffset dx="-0.234375" dy="0.234375"/>
<feGaussianBlur stdDeviation="0.375"/>
<feComposite in2="hardAlpha" operator="arithmetic" k2="-1" k3="1"/>
<feColorMatrix type="matrix" values="0 0 0 0 0.0705882 0 0 0 0 0.501961 0 0 0 0 0.878431 0 0 0 1 0"/>
<feBlend mode="normal" in2="shape" result="effect1_innerShadow_1322_212"/>
<feColorMatrix in="SourceAlpha" type="matrix" values="0 0 0 0 0 0 0 0 0 0 0 0 0 0 0 0 0 0 127 0" result="hardAlpha"/>
<feOffset dx="0.28125" dy="-0.140625"/>
<feGaussianBlur stdDeviation="0.28125"/>
<feComposite in2="hardAlpha" operator="arithmetic" k2="-1" k3="1"/>
<feColorMatrix type="matrix" values="0 0 0 0 0.501961 0 0 0 0 1 0 0 0 0 1 0 0 0 1 0"/>
<feBlend mode="normal" in2="effect1_innerShadow_1322_212" result="effect2_innerShadow_1322_212"/>
</filter>
<filter id="filter13_ii_1322_212" x="10.1445" y="17.6353" width="4.24609" height="3.18938" filterUnits="userSpaceOnUse" color-interpolation-filters="sRGB">
<feFlood flood-opacity="0" result="BackgroundImageFix"/>
<feBlend mode="normal" in="SourceGraphic" in2="BackgroundImageFix" result="shape"/>
<feColorMatrix in="SourceAlpha" type="matrix" values="0 0 0 0 0 0 0 0 0 0 0 0 0 0 0 0 0 0 127 0" result="hardAlpha"/>
<feOffset dx="-0.234375" dy="0.234375"/>
<feGaussianBlur stdDeviation="0.375"/>
<feComposite in2="hardAlpha" operator="arithmetic" k2="-1" k3="1"/>
<feColorMatrix type="matrix" values="0 0 0 0 0.0705882 0 0 0 0 0.501961 0 0 0 0 0.878431 0 0 0 1 0"/>
<feBlend mode="normal" in2="shape" result="effect1_innerShadow_1322_212"/>
<feColorMatrix in="SourceAlpha" type="matrix" values="0 0 0 0 0 0 0 0 0 0 0 0 0 0 0 0 0 0 127 0" result="hardAlpha"/>
<feOffset dx="0.28125" dy="-0.140625"/>
<feGaussianBlur stdDeviation="0.28125"/>
<feComposite in2="hardAlpha" operator="arithmetic" k2="-1" k3="1"/>
<feColorMatrix type="matrix" values="0 0 0 0 0.501961 0 0 0 0 1 0 0 0 0 1 0 0 0 1 0"/>
<feBlend mode="normal" in2="effect1_innerShadow_1322_212" result="effect2_innerShadow_1322_212"/>
</filter>
<filter id="filter14_ii_1322_212" x="15.7188" y="17.6353" width="4.24609" height="3.18938" filterUnits="userSpaceOnUse" color-interpolation-filters="sRGB">
<feFlood flood-opacity="0" result="BackgroundImageFix"/>
<feBlend mode="normal" in="SourceGraphic" in2="BackgroundImageFix" result="shape"/>
<feColorMatrix in="SourceAlpha" type="matrix" values="0 0 0 0 0 0 0 0 0 0 0 0 0 0 0 0 0 0 127 0" result="hardAlpha"/>
<feOffset dx="-0.234375" dy="0.234375"/>
<feGaussianBlur stdDeviation="0.375"/>
<feComposite in2="hardAlpha" operator="arithmetic" k2="-1" k3="1"/>
<feColorMatrix type="matrix" values="0 0 0 0 0.0705882 0 0 0 0 0.501961 0 0 0 0 0.878431 0 0 0 1 0"/>
<feBlend mode="normal" in2="shape" result="effect1_innerShadow_1322_212"/>
<feColorMatrix in="SourceAlpha" type="matrix" values="0 0 0 0 0 0 0 0 0 0 0 0 0 0 0 0 0 0 127 0" result="hardAlpha"/>
<feOffset dx="0.28125" dy="-0.140625"/>
<feGaussianBlur stdDeviation="0.28125"/>
<feComposite in2="hardAlpha" operator="arithmetic" k2="-1" k3="1"/>
<feColorMatrix type="matrix" values="0 0 0 0 0.501961 0 0 0 0 1 0 0 0 0 1 0 0 0 1 0"/>
<feBlend mode="normal" in2="effect1_innerShadow_1322_212" result="effect2_innerShadow_1322_212"/>
</filter>
<linearGradient id="paint0_linear_1322_212" x1="7.83266" y1="19.5675" x2="2.80859" y2="19.5675" gradientUnits="userSpaceOnUse">
<stop offset="0.069" stop-color="#645768"/>
<stop offset="0.283" stop-color="#978D9B"/>
</linearGradient>
<linearGradient id="paint1_linear_1322_212" x1="2.80859" y1="25.7522" x2="3.47891" y2="25.7522" gradientUnits="userSpaceOnUse">
<stop stop-color="#79757D"/>
<stop offset="1" stop-color="#79757D" stop-opacity="0"/>
</linearGradient>
<linearGradient id="paint2_linear_1322_212" x1="3.97672" y1="11.0156" x2="3.97672" y2="11.4769" gradientUnits="userSpaceOnUse">
<stop offset="0.434" stop-color="#714960"/>
<stop offset="1" stop-color="#714960" stop-opacity="0"/>
</linearGradient>
<radialGradient id="paint3_radial_1322_212" cx="0" cy="0" r="1" gradientUnits="userSpaceOnUse" gradientTransform="translate(6.99453 25.4006) rotate(180) scale(4.18602 3.19336)">
<stop stop-color="#6B5972"/>
<stop offset="1" stop-color="#6B5972" stop-opacity="0"/>
</radialGradient>
<linearGradient id="paint4_linear_1322_212" x1="3.53797" y1="16.8844" x2="6.81922" y2="16.8844" gradientUnits="userSpaceOnUse">
<stop stop-color="#50C5FF"/>
<stop offset="1" stop-color="#3C99E4"/>
</linearGradient>
<linearGradient id="paint5_linear_1322_212" x1="25.6564" y1="19.2281" x2="20.1195" y2="19.2281" gradientUnits="userSpaceOnUse">
<stop stop-color="#BFB6C6"/>
<stop offset="1" stop-color="#A297A0"/>
</linearGradient>
<linearGradient id="paint6_linear_1322_212" x1="22.1623" y1="11.1384" x2="22.1623" y2="11.5106" gradientUnits="userSpaceOnUse">
<stop stop-color="#875C74"/>
<stop offset="1" stop-color="#875C74" stop-opacity="0"/>
</linearGradient>
<linearGradient id="paint7_linear_1322_212" x1="27.1836" y1="23.2031" x2="26.5892" y2="23.2031" gradientUnits="userSpaceOnUse">
<stop stop-color="#DFDBE1"/>
<stop offset="1" stop-color="#DFDBE1" stop-opacity="0"/>
</linearGradient>
<linearGradient id="paint8_linear_1322_212" x1="14.997" y1="9.38156" x2="14.997" y2="11.2594" gradientUnits="userSpaceOnUse">
<stop stop-color="#FF8946"/>
<stop offset="1" stop-color="#E23F3C"/>
</linearGradient>
<radialGradient id="paint9_radial_1322_212" cx="0" cy="0" r="1" gradientUnits="userSpaceOnUse" gradientTransform="translate(8.13078 10.3219) rotate(158.194) scale(1.70327 3.19605)">
<stop offset="0.204" stop-color="#A33F2C"/>
<stop offset="1" stop-color="#A33F2C" stop-opacity="0"/>
</radialGradient>
<linearGradient id="paint10_linear_1322_212" x1="14.9961" y1="1.40625" x2="14.9961" y2="28.1344" gradientUnits="userSpaceOnUse">
<stop stop-color="#AF9FAA"/>
<stop offset="1" stop-color="#BCB1C2"/>
</linearGradient>
<linearGradient id="paint11_linear_1322_212" x1="13.6264" y1="28.8778" x2="13.6264" y2="26.1394" gradientUnits="userSpaceOnUse">
<stop stop-color="#B8ADC0"/>
<stop offset="1" stop-color="#B8ADC0" stop-opacity="0"/>
</linearGradient>
<linearGradient id="paint12_linear_1322_212" x1="22.4558" y1="21.4856" x2="21.6467" y2="21.4856" gradientUnits="userSpaceOnUse">
<stop stop-color="#D9D4DB"/>
<stop offset="1" stop-color="#D9D4DB" stop-opacity="0"/>
</linearGradient>
<linearGradient id="paint13_linear_1322_212" x1="23.6511" y1="16.8844" x2="26.2461" y2="16.8844" gradientUnits="userSpaceOnUse">
<stop stop-color="#58E6FF"/>
<stop offset="1" stop-color="#44B8FF"/>
</linearGradient>
<linearGradient id="paint14_linear_1322_212" x1="10.452" y1="6.56906" x2="15.5492" y2="6.56906" gradientUnits="userSpaceOnUse">
<stop stop-color="#FF534F"/>
<stop offset="1" stop-color="#FF8949"/>
</linearGradient>
<linearGradient id="paint15_linear_1322_212" x1="18.9186" y1="6.79688" x2="18.1273" y2="6.79688" gradientUnits="userSpaceOnUse">
<stop stop-color="#FFAA58"/>
<stop offset="1" stop-color="#FFAA58" stop-opacity="0"/>
</linearGradient>
<linearGradient id="paint16_linear_1322_212" x1="15.0008" y1="5.56594" x2="15.0008" y2="5.79375" gradientUnits="userSpaceOnUse">
<stop stop-color="#FF623E"/>
<stop offset="1" stop-color="#FF623E" stop-opacity="0"/>
</linearGradient>
<linearGradient id="paint17_linear_1322_212" x1="10.453" y1="10.3266" x2="15.5436" y2="10.3266" gradientUnits="userSpaceOnUse">
<stop stop-color="#FF534F"/>
<stop offset="1" stop-color="#FF8949"/>
</linearGradient>
<linearGradient id="paint18_linear_1322_212" x1="18.9092" y1="10.7794" x2="18.1189" y2="10.7794" gradientUnits="userSpaceOnUse">
<stop stop-color="#FFAA58"/>
<stop offset="1" stop-color="#FFAA58" stop-opacity="0"/>
</linearGradient>
<linearGradient id="paint19_linear_1322_212" x1="14.9961" y1="8.33063" x2="14.9961" y2="8.7825" gradientUnits="userSpaceOnUse">
<stop stop-color="#FF623E"/>
<stop offset="1" stop-color="#FF623E" stop-opacity="0"/>
</linearGradient>
<linearGradient id="paint20_linear_1322_212" x1="7.04328" y1="26.5884" x2="8.43547" y2="26.5884" gradientUnits="userSpaceOnUse">
<stop stop-color="#574167"/>
<stop offset="1" stop-color="#695E72"/>
</linearGradient>
<linearGradient id="paint21_linear_1322_212" x1="8.43359" y1="27.3047" x2="8.15141" y2="27.3047" gradientUnits="userSpaceOnUse">
<stop stop-color="#524958"/>
<stop offset="1" stop-color="#524958" stop-opacity="0"/>
</linearGradient>
<radialGradient id="paint22_radial_1322_212" cx="0" cy="0" r="1" gradientUnits="userSpaceOnUse" gradientTransform="translate(7.49609 25.3416) rotate(143.11) scale(2.44025 1.33875)">
<stop offset="0.123" stop-color="#402749"/>
<stop offset="1" stop-color="#402749" stop-opacity="0"/>
</radialGradient>
<linearGradient id="paint23_linear_1322_212" x1="5.26578" y1="24.3816" x2="8.95766" y2="24.3816" gradientUnits="userSpaceOnUse">
<stop stop-color="#EE3124"/>
<stop offset="1" stop-color="#FF874B"/>
</linearGradient>
<linearGradient id="paint24_linear_1322_212" x1="9.38047" y1="25.0491" x2="8.60609" y2="25.0491" gradientUnits="userSpaceOnUse">
<stop stop-color="#FFB462"/>
<stop offset="1" stop-color="#FFB462" stop-opacity="0"/>
</linearGradient>
<radialGradient id="paint25_radial_1322_212" cx="0" cy="0" r="1" gradientUnits="userSpaceOnUse" gradientTransform="translate(6.96547 23.9128) scale(1.46978 0.652313)">
<stop stop-color="#6A567A"/>
<stop offset="1" stop-color="#3E2A4E"/>
</radialGradient>
<radialGradient id="paint26_radial_1322_212" cx="0" cy="0" r="1" gradientUnits="userSpaceOnUse" gradientTransform="translate(6.55859 23.9156) scale(2.56004 1.26502)">
<stop offset="0.378" stop-color="#1D1624" stop-opacity="0"/>
<stop offset="1" stop-color="#1D1624"/>
</radialGradient>
<linearGradient id="paint27_linear_1322_212" x1="12.1845" y1="25.2891" x2="17.8002" y2="25.2891" gradientUnits="userSpaceOnUse">
<stop stop-color="#524163"/>
<stop offset="1" stop-color="#473D4F"/>
</linearGradient>
<linearGradient id="paint28_linear_1322_212" x1="12.1836" y1="26.9194" x2="13.4286" y2="26.9194" gradientUnits="userSpaceOnUse">
<stop stop-color="#66507E"/>
<stop offset="1" stop-color="#66507E" stop-opacity="0"/>
</linearGradient>
<linearGradient id="paint29_linear_1322_212" x1="14.997" y1="1.87219" x2="14.997" y2="3.75" gradientUnits="userSpaceOnUse">
<stop stop-color="#FF8946"/>
<stop offset="1" stop-color="#E23F3C"/>
</linearGradient>
<linearGradient id="paint30_linear_1322_212" x1="14.9961" y1="1.76625" x2="14.9961" y2="2.8125" gradientUnits="userSpaceOnUse">
<stop stop-color="#FF9853"/>
<stop offset="1" stop-color="#FF9853" stop-opacity="0"/>
</linearGradient>
<radialGradient id="paint31_radial_1322_212" cx="0" cy="0" r="1" gradientUnits="userSpaceOnUse" gradientTransform="translate(23.434 2.02959) rotate(144.093) scale(1.33463 1.44574)">
<stop stop-color="#FFAD6B"/>
<stop offset="1" stop-color="#FFAD6B" stop-opacity="0"/>
</radialGradient>
<linearGradient id="paint32_linear_1322_212" x1="10.6677" y1="15.4659" x2="14.1092" y2="15.4659" gradientUnits="userSpaceOnUse">
<stop stop-color="#58E6FF"/>
<stop offset="1" stop-color="#44B8FF"/>
</linearGradient>
<linearGradient id="paint33_linear_1322_212" x1="16.2419" y1="15.4659" x2="19.6834" y2="15.4659" gradientUnits="userSpaceOnUse">
<stop stop-color="#58E6FF"/>
<stop offset="1" stop-color="#44B8FF"/>
</linearGradient>
<linearGradient id="paint34_linear_1322_212" x1="10.6677" y1="19.1831" x2="14.1092" y2="19.1831" gradientUnits="userSpaceOnUse">
<stop stop-color="#58E6FF"/>
<stop offset="1" stop-color="#44B8FF"/>
</linearGradient>
<linearGradient id="paint35_linear_1322_212" x1="16.2419" y1="19.1831" x2="19.6834" y2="19.1831" gradientUnits="userSpaceOnUse">
<stop stop-color="#58E6FF"/>
<stop offset="1" stop-color="#44B8FF"/>
</linearGradient>
</defs>
</svg>
