<svg width="30" height="30" viewBox="0 0 30 30" fill="none" xmlns="http://www.w3.org/2000/svg">
<g clip-path="url(#clip0_1322_163)">
<path d="M16.1326 13.0064C16.1326 17.0944 13.103 20.4108 9.37414 20.4108C5.64383 20.4108 2.61523 17.092 2.61523 13.0064V9.05157C2.61523 4.9636 5.64383 1.64813 9.37414 1.64813C13.103 1.64813 16.1326 4.96219 16.1326 9.05157V13.0064Z" fill="#593212"/>
<path d="M0.250484 24.2386C0.365796 24.112 18.5172 24.2484 18.5172 24.2484V30.0886H0.212515C0.212515 30.0886 0.13564 24.3642 0.251421 24.2386" fill="#EA2E7C"/>
<path d="M11.6172 24.248C11.6172 24.248 29.6219 24.4139 29.7597 24.5208C29.9003 24.6281 29.7156 30.0909 29.7156 30.0909H11.6172V24.248Z" fill="#2BB273"/>
<path d="M24.5768 24.5484H29.7706L29.5681 23.1225C29.2521 20.8819 27.8449 19.1648 26.4288 19.2909C25.0132 19.418 24.1226 21.3338 24.4357 23.5767L24.5759 24.5484" fill="#2BB273"/>
<path d="M24.5761 24.5484H29.6362C29.6775 24.5189 29.7234 24.4936 29.7609 24.4688L29.5725 23.1225C29.2556 20.8819 27.8475 19.1648 26.4323 19.2909C25.0167 19.418 24.1279 21.3338 24.442 23.5767L24.5761 24.5484Z" fill="#2BB273"/>
<path d="M26.4566 24.5484V22.3317C26.4566 18.9623 23.399 16.2333 19.6279 16.2333C15.8545 16.2333 12.7949 18.9633 12.7949 22.3317V24.5484H26.4543" fill="#2BB273"/>
<path d="M4.77797 24.5812L4.90266 23.4778C5.18391 20.9859 4.40016 18.8555 3.15328 18.7125C1.90828 18.5752 0.670312 20.482 0.390469 22.9734L0.210938 24.5794H4.77797" fill="#EA2E7C"/>
<path d="M4.77852 24.5812L4.9032 23.4778C5.18445 20.9859 4.4007 18.8555 3.15383 18.7125C1.90883 18.5752 0.670859 20.482 0.391016 22.9734L0.224609 24.4687C0.265859 24.5006 0.312266 24.5391 0.358203 24.5784L4.77852 24.5794" fill="#EA2E7C"/>
<path d="M15.2488 24.5813V22.6092C15.2488 19.65 12.5605 17.2477 9.24367 17.2477C5.92492 17.2477 3.23242 19.6481 3.23242 22.6092V24.5813H15.2488Z" fill="#EA2E7C"/>
<path d="M5.97723 19.1897H12.5074C12.5604 19.1897 12.2135 16.4063 12.2135 16.0256C12.2135 15.998 6.21583 15.9769 6.21583 15.9769C6.21583 15.9769 5.9238 19.1897 5.97723 19.1897" fill="#EA2E7C"/>
<path d="M12.7079 15.9563H6.2021C6.13741 16.6725 5.76429 18.7584 5.96491 18.8939C6.14632 19.0167 8.4746 19.208 9.45429 19.208C10.4354 19.208 12.7637 19.0167 12.9446 18.8939C13.1457 18.7584 12.7721 16.6725 12.7079 15.9563" fill="#CB2874"/>
<path d="M23.8623 16.2328H17.3565C17.2923 16.9495 16.9182 19.035 17.1193 19.1705C17.3012 19.2937 19.629 19.4845 20.6087 19.4845C21.5884 19.4845 23.9181 19.2937 24.0986 19.1705C24.3001 19.0345 23.9265 16.9495 23.8623 16.2328" fill="#249260"/>
<path d="M13.3329 11.8927C13.1867 14.8931 16.3957 17.4811 20.5081 17.6827C24.6171 17.8852 28.0643 15.6211 28.2115 12.6202C28.3587 9.62438 25.3896 2.07328 21.2801 1.8736C17.1673 1.67156 13.4782 8.89969 13.3329 11.8927" fill="#FBBF67"/>
<path d="M29.6665 5.44921C29.2489 4.23093 28.609 3.70781 27.7231 3.14578C27.8806 3.00328 28.048 2.81624 28.2725 2.54437C28.3648 2.43281 28.5144 2.08031 28.2467 2.08781C26.2315 2.15437 24.6233 0.152807 21.9195 0.245151C20.1579 0.307963 16.6751 1.12406 16.4347 1.30171C15.004 2.34328 14.1195 4.07859 13.632 5.88937C13.5139 6.32859 14.1369 6.03046 14.2564 5.92874C14.3014 5.88937 14.3529 5.85703 14.3994 5.8214C14.3698 6.74906 14.1762 7.65468 14.21 8.5889C14.2254 9.08953 15.1133 8.29031 15.1925 8.08781C15.417 7.52156 15.6612 7.00874 15.9504 6.48374C15.9992 6.39093 16.0109 6.33703 16.0039 6.28921C16.0469 6.25378 16.0833 6.21092 16.1112 6.16265C16.5711 5.17812 17.2467 4.30977 18.0879 3.62203C19.2945 3.80624 20.1401 5.04749 21.9111 4.62796C25.339 3.81328 26.4326 6.10781 27.0908 9.37828C27.1798 9.83578 27.9336 9.19874 28.0236 8.98828C28.5608 7.78218 28.444 6.9014 28.2298 5.81203C28.4154 5.93859 28.5969 6.07499 28.76 6.24328C29.0398 6.45046 29.7898 5.80874 29.667 5.44921" fill="#633C17"/>
<path d="M19.4522 9.70969C19.4157 10.4423 18.8949 11.0123 18.2897 10.9852C17.6846 10.9542 17.2257 10.335 17.2618 9.60375C17.2974 8.87109 17.8149 8.29734 18.4219 8.32641C19.0257 8.35594 19.4879 8.97469 19.4522 9.70969M24.6563 9.96375C24.6197 10.6978 24.0994 11.2683 23.4961 11.2387C22.89 11.2092 22.4279 10.5914 22.4635 9.85641C22.5 9.12375 23.0194 8.55094 23.626 8.57906C24.2283 8.60906 24.6919 9.22828 24.6563 9.96375" fill="#25333A"/>
<path opacity="0.6" d="M19.8945 12.2391C19.8945 11.8209 20.2527 11.8308 20.735 11.8308C21.2211 11.8308 21.6495 11.8209 21.6495 12.2391C21.6495 12.6591 21.2558 12.9956 20.7716 12.9956C20.2878 12.9961 19.8945 12.6591 19.8945 12.2391Z" fill="#C27929"/>
<path d="M2.2793 11.8842C2.2793 14.7061 5.41008 16.9856 9.28008 16.9856C13.1407 16.9856 16.2734 14.7042 16.2734 11.8842C16.2734 9.06422 13.1407 2.11734 9.28008 2.11734C5.41055 2.11781 2.2793 9.06468 2.2793 11.8842" fill="#FBBF67"/>
<path d="M7.92305 9.55125C7.92305 10.2408 7.45945 10.8023 6.8932 10.8023C6.32367 10.8023 5.86523 10.2408 5.86523 9.55125C5.86523 8.85797 6.32414 8.30156 6.8932 8.30156C7.45898 8.3025 7.92305 8.8575 7.92305 9.55125ZM12.8187 9.55125C12.8187 10.2408 12.3565 10.8023 11.7888 10.8023C11.2184 10.8023 10.7552 10.2408 10.7552 9.55125C10.7552 8.85797 11.2174 8.30156 11.7888 8.30156C12.356 8.3025 12.8187 8.8575 12.8187 9.55125" fill="#25333A"/>
<path d="M23.593 14.2795C23.593 15.0279 23.2957 15.7457 22.7665 16.2749C22.2373 16.8041 21.5195 17.1014 20.7711 17.1014C20.0227 17.1014 19.3049 16.8041 18.7757 16.2749C18.2465 15.7457 17.9492 15.0279 17.9492 14.2795" fill="#633F1A"/>
<path d="M23.1099 14.5641C23.1099 15.1856 22.0416 15.6909 20.7249 15.6909C19.4091 15.6909 18.3418 15.1856 18.3418 14.5641" fill="white"/>
<path d="M12.2851 12.7031C12.285 13.5022 11.9675 14.2685 11.4024 14.8336C10.8374 15.3986 10.071 15.7161 9.27195 15.7162C8.47302 15.7159 7.70694 15.3983 7.1421 14.8333C6.57725 14.2682 6.25989 13.5021 6.25977 12.7031" fill="#633F1A"/>
<path d="M11.7711 13.0059C11.7711 13.6711 10.6292 14.2083 9.22203 14.2083C7.81672 14.2083 6.67578 13.6711 6.67578 13.0059" fill="white"/>
<path d="M2.83203 11.4642C2.83203 14.1023 5.75891 16.2398 9.37578 16.2398C12.9908 16.2398 15.9219 14.1023 15.9219 11.4642C15.9219 8.82937 12.9908 4.92281 9.37578 4.92281C5.75891 4.92281 2.83203 8.82937 2.83203 11.4642" fill="#FBBF67"/>
<path d="M8.10633 9.68532C8.10633 10.3303 7.67461 10.8544 7.14305 10.8544C6.61008 10.8544 6.18164 10.3303 6.18164 9.68532C6.18164 9.03704 6.61008 8.51672 7.14305 8.51672C7.67508 8.51672 8.10633 9.03563 8.10633 9.68532ZM12.6846 9.68532C12.6846 10.3303 12.2543 10.8544 11.7232 10.8544C11.1884 10.8544 10.7562 10.3303 10.7562 9.68532C10.7562 9.03704 11.1888 8.51672 11.7232 8.51672C12.2543 8.51672 12.6846 9.03563 12.6846 9.68532" fill="#25333A"/>
<path d="M9.37328 15.3577C9.81675 15.3577 10.1763 14.9982 10.1763 14.5547C10.1763 14.1112 9.81675 13.7517 9.37328 13.7517C8.92981 13.7517 8.57031 14.1112 8.57031 14.5547C8.57031 14.9982 8.92981 15.3577 9.37328 15.3577Z" fill="#633F1A"/>
<path d="M12.3559 12.6984C12.3557 13.5143 12.0315 14.2966 11.4546 14.8735C10.8777 15.4504 10.0954 15.7746 9.27953 15.7748C8.46366 15.7747 7.68123 15.4506 7.10432 14.8737C6.52741 14.2967 6.20325 13.5143 6.20312 12.6984" fill="#633F1A"/>
<path d="M11.8273 13.0064C11.8273 13.6856 10.6638 14.2364 9.22805 14.2364C7.79227 14.2364 6.62695 13.6861 6.62695 13.0064" fill="white"/>
<path d="M11.4211 2.74735C11.4951 1.60829 9.93139 0.999382 9.08718 0.882194C8.24155 0.765944 7.65468 0.950163 6.97874 1.20094C5.0353 1.91954 3.73968 3.60798 2.8078 5.31798C1.51874 7.20235 0.6103 9.21469 0.923425 11.5922C1.10577 12.9811 1.74327 14.2875 2.46327 15.4908C2.92124 16.2549 3.45702 16.972 3.89624 17.7469C4.1803 18.2484 3.83061 20.003 2.92124 20.077C2.01233 20.1483 2.02499 22.3908 4.13764 22.3833C6.11671 22.3749 6.84889 20.6217 6.4378 19.0341C6.02671 17.4474 4.2628 16.748 4.00639 15.3534C3.78092 14.1234 3.73452 12.2091 4.11374 11.0269C4.42217 9.94266 5.15108 8.16329 5.96764 7.38141C7.06452 6.33001 7.29327 6.29485 8.02124 5.54298C9.17952 4.35141 11.6236 4.41704 11.4225 2.74735" fill="#7C4622"/>
<path d="M11.4152 2.655C10.7412 3.3014 10.009 3.89531 9.26556 4.48172C7.80072 5.64 6.09119 6.50343 5.00931 8.03953C3.71462 9.88078 2.974 11.7764 3.19384 14.0123C3.3565 15.6455 4.5654 16.7175 5.0065 18.2292C5.41853 19.6402 4.84056 22.1348 2.68478 21.0511C2.07306 20.745 2.40119 22.3875 4.12947 22.3809C6.10947 22.3734 6.84587 20.6194 6.43572 19.0327C6.02462 17.4459 4.86915 16.8483 4.37509 15.3511C3.98275 14.1633 3.73244 12.2067 4.11165 11.025C5.27275 7.68984 7.3179 6.45609 8.1054 5.76422C8.42837 5.47968 10.9873 3.8114 11.4148 2.74265C11.4162 2.71359 11.4138 2.68406 11.4138 2.65312" fill="#593212"/>
<path d="M1.67009 13.8989C1.39259 11.9475 1.79946 9.96843 2.77352 8.22234C3.73259 6.50343 4.85477 5.06531 6.57087 3.95484C7.5679 3.30937 9.23149 2.37 10.2852 1.25953C9.90601 1.07437 9.50097 0.947625 9.08384 0.88359C8.23915 0.76734 7.6518 0.952028 6.97446 1.20281C5.03102 1.9214 3.73727 3.60937 2.80352 5.32031C1.51634 7.20468 0.606961 9.21609 0.919148 11.5945C1.03352 12.4687 1.32837 13.3092 1.7104 14.1131C1.69774 14.0414 1.6804 13.9697 1.67055 13.8989" fill="#864F28"/>
<path d="M16.0918 6.23718C15.3985 3.66187 13.5765 1.08421 11.4446 1.64812C10.0088 2.02781 9.14774 3.94828 9.2668 4.48406C9.49086 5.47734 11.3743 5.81999 12.3549 6.93562C13.209 7.90781 13.9454 8.59781 14.6649 9.62953C15.3062 10.5511 14.7666 12.6375 14.792 13.245C14.8159 13.8553 14.3471 15.4144 13.9477 16.0402C13.7218 16.3969 14.1268 16.875 14.4048 16.5881C16.9196 13.973 17.0841 9.93328 16.0918 6.23812" fill="#7C4622"/>
<path d="M14.3414 6.43406C15.4711 7.54922 16.1227 8.81625 16.4705 10.3177C16.5389 10.6162 16.5863 10.9331 16.6167 11.2645C16.7452 9.62531 16.5366 7.89703 16.0912 6.23531C15.398 3.66047 13.5755 1.08281 11.4436 1.64672C10.4348 1.91344 9.76266 2.93437 9.45703 3.70734C10.6467 4.99031 13.102 5.20781 14.3414 6.43359" fill="#864F28"/>
<path d="M14.4163 9.37499C15.0595 10.2961 14.7646 12.6347 14.7899 13.2431C14.8138 13.852 14.3451 15.4125 13.9462 16.0369C13.7826 16.297 13.9495 16.613 14.1585 16.6622C16.0626 13.973 16.5566 9.45234 14.2091 7.53796C12.6941 6.30374 10.641 5.91796 9.2793 4.66687C9.83195 5.61375 10.6443 6.28265 11.8279 7.05796C12.9613 7.80046 13.6968 8.34515 14.4163 9.37499" fill="#593212"/>
<path opacity="0.6" d="M9.82734 11.8172C9.82734 12.0783 9.60516 12.0736 9.30281 12.0736C8.99906 12.0736 8.73047 12.0792 8.73047 11.8172C8.73047 11.5542 8.97609 11.3438 9.27891 11.3438C9.58078 11.3438 9.82734 11.5533 9.82734 11.8172Z" fill="#C07929"/>
<path d="M17.9866 26.4844L18.1122 25.3809C18.3916 22.8905 17.6078 20.76 16.3628 20.6166C15.1178 20.4773 13.8812 22.3842 13.6009 24.8775L13.4219 26.4844H17.9866Z" fill="#F8AD41"/>
<path d="M17.9915 26.4844L18.1162 25.3809C18.3955 22.8905 17.6127 20.76 16.3668 20.6166C15.1223 20.4773 13.8862 22.3842 13.6049 24.8775L13.4395 26.3719C13.4793 26.407 13.5262 26.4459 13.5721 26.482H17.9929L17.9915 26.4844" fill="#EA2E7C"/>
<path d="M18.0415 26.5838H11.3473C11.2938 26.5838 11.6491 29.4389 11.6491 29.8233C11.6491 29.8509 17.7991 29.8772 17.7991 29.8772C17.7991 29.8772 18.0973 26.5819 18.0406 26.5819" fill="#1E75B8"/>
<path d="M11.8214 30.1313H17.5181C17.5669 30.1313 17.2903 29.5524 17.2903 29.2242C17.2903 29.2003 12.0558 29.1778 12.0558 29.1778C12.0558 29.1778 11.7759 30.1313 11.8214 30.1313Z" fill="#1E75B8"/>
<path d="M8.98047 23.8167C8.98047 26.1202 11.5375 27.9867 14.6955 27.9867C17.8506 27.9867 20.4081 26.1216 20.4081 23.8167C20.4081 21.5152 17.8511 15.8386 14.6955 15.8386C11.537 15.8377 8.98047 21.5152 8.98047 23.8167" fill="#FBBF67"/>
<path d="M21.8253 19.8375C21.425 18.7453 20.8667 18.2958 20.0966 17.8223C20.2236 17.685 20.3567 17.5055 20.5363 17.25C20.6094 17.1417 20.7177 16.8127 20.495 16.8309C18.8057 16.9842 17.3722 15.2273 15.1044 15.4336C13.626 15.5686 10.7366 16.4663 10.5407 16.6406C9.38003 17.6527 8.71113 19.2764 8.37597 20.9508C8.29441 21.3548 8.80534 21.0581 8.90191 20.9583C8.93659 20.9194 8.98066 20.8894 9.01488 20.8533C9.03081 21.7003 8.90566 22.5366 8.96988 23.3855C9.00456 23.8434 9.71706 23.0723 9.77706 22.8858C9.94113 22.3598 10.1249 21.8798 10.3485 21.3909C10.3855 21.3028 10.3925 21.2508 10.3855 21.2091C10.4191 21.1735 10.4468 21.1329 10.4675 21.0886C10.8346 20.1347 11.3577 19.3406 12.0261 18.6839C13.0489 18.795 13.8064 19.8909 15.2783 19.4306C18.1246 18.5358 19.1361 20.5791 19.8224 23.5345C19.9152 23.9498 20.5241 23.3325 20.5911 23.138C20.9928 22.0125 20.8593 21.2142 20.638 20.2289C20.7993 20.3363 20.9563 20.4534 21.0992 20.5992C21.3388 20.7788 21.9444 20.1586 21.8253 19.8375" fill="#633C17"/>
<path d="M13.5915 23.9531C13.5915 24.5161 13.2137 24.9741 12.7482 24.9741C12.2832 24.9741 11.9082 24.5161 11.9082 23.9531C11.9082 23.3883 12.2837 22.9298 12.7482 22.9298C13.2137 22.9298 13.5915 23.3887 13.5915 23.9531ZM17.588 23.9531C17.588 24.5161 17.2098 24.9741 16.7448 24.9741C16.2816 24.9741 15.9062 24.5161 15.9062 23.9531C15.9062 23.3883 16.2826 22.9298 16.7448 22.9298C17.2121 22.9298 17.588 23.3887 17.588 23.9531Z" fill="#25333A"/>
<path opacity="0.6" d="M14.293 25.3828C14.293 25.1906 14.4566 25.1939 14.6806 25.1939C14.9033 25.1939 15.102 25.1902 15.102 25.3828C15.102 25.5769 14.9211 25.7325 14.697 25.7325C14.4744 25.7325 14.293 25.5773 14.293 25.3828" fill="#C27929"/>
<path d="M16.2017 26.2158C16.2017 26.615 16.0432 26.9979 15.7611 27.2804C15.479 27.5629 15.0963 27.7218 14.697 27.7223C14.2976 27.7221 13.9147 27.5633 13.6323 27.2808C13.35 26.9982 13.1914 26.6152 13.1914 26.2158" fill="#633F1A"/>
<path d="M15.9413 26.3672C15.9413 26.6995 15.3713 26.9686 14.6691 26.9686C13.966 26.9686 13.3965 26.6995 13.3965 26.3672" fill="white"/>
</g>
<defs>
<clipPath id="clip0_1322_163">
<rect width="30" height="30" fill="white"/>
</clipPath>
</defs>
</svg>
