<svg width="30" height="30" viewBox="0 0 30 30" fill="none" xmlns="http://www.w3.org/2000/svg">
<path d="M28.2349 26.5253C28.2349 26.5253 28.2289 26.4953 28.2145 26.4391C28.2004 26.3826 28.1794 26.2986 28.148 26.1911C28.1185 26.082 28.0767 25.9509 28.027 25.7951C27.9802 25.6365 27.9096 25.468 27.8318 25.2747L27.7035 24.9722C27.6567 24.8674 27.6098 24.7548 27.5517 24.646C27.4957 24.5351 27.4369 24.4192 27.3733 24.3006C27.3083 24.1766 27.2416 24.0537 27.1729 23.9317C27.0259 23.6859 26.8625 23.4274 26.6851 23.1556C26.5935 23.0236 26.4958 22.8915 26.3968 22.7538C26.2953 22.6192 26.193 22.478 26.0836 22.3392C25.9712 22.2046 25.8574 22.0648 25.7378 21.9255C25.6172 21.7879 25.4984 21.6401 25.3658 21.5061C25.1048 21.2322 24.834 20.9436 24.535 20.6756C24.3866 20.5399 24.2372 20.3991 24.0805 20.2644C24.0001 20.1974 23.9192 20.1297 23.8374 20.062C23.8315 19.6409 23.7257 19.2271 23.5288 18.8548C23.5288 18.8548 23.3678 18.5497 23.0647 18.027C22.9875 17.8971 22.8971 17.756 22.799 17.6023C22.7002 17.449 22.5966 17.2813 22.4774 17.1074C22.2347 16.7622 21.965 16.37 21.6388 15.9646L21.3931 15.6519C21.308 15.5469 21.217 15.4431 21.1261 15.3364C20.943 15.124 20.7586 14.9009 20.5513 14.6861C20.3472 14.4687 20.1416 14.2425 19.9159 14.0252L19.5773 13.6935C19.463 13.5823 19.3419 13.4755 19.2229 13.365C19.1025 13.256 18.9813 13.146 18.8574 13.0373L18.4763 12.7163C18.2249 12.497 17.9506 12.297 17.6828 12.0876C17.6059 12.0292 17.5284 11.9715 17.4504 11.9145L17.3188 11.443C17.296 11.3578 17.2687 11.2748 17.2484 11.1884L17.1874 10.9301C17.1474 10.7582 17.106 10.5873 17.0624 10.4175C17.0391 10.3332 17.0237 10.2465 17.0066 10.1606C16.9899 10.0748 16.9724 9.98922 16.954 9.90381L16.846 9.3961C16.8096 9.22793 16.785 9.05813 16.7543 8.89178C16.6218 8.22698 16.5306 7.57922 16.4244 6.97647C16.4042 6.82512 16.3817 6.67641 16.3598 6.53069C16.3389 6.38777 16.3168 6.24503 16.2934 6.10248L16.2603 5.89541C16.2493 5.82715 16.2358 5.75977 16.2279 5.69309C16.2108 5.5632 16.1926 5.43345 16.1734 5.30385C16.1394 5.06664 16.1028 4.82981 16.0636 4.5934L16.0368 4.4311C16.0276 4.37807 16.018 4.32598 16.0112 4.27518L15.9679 3.98414C15.9241 3.69519 15.8749 3.40709 15.8203 3.12C15.7813 2.91879 15.7565 2.81028 15.7565 2.81028L15.7536 2.79768C15.7359 2.72176 15.6956 2.653 15.6379 2.60052C15.5803 2.54803 15.508 2.51429 15.4308 2.50376C15.3536 2.49323 15.2749 2.5064 15.2054 2.54154C15.1358 2.57668 15.0785 2.63212 15.0411 2.70053C15.0411 2.70053 14.9878 2.79826 14.8952 2.98371C14.7628 3.25144 14.6362 3.52199 14.5155 3.79518C14.3527 4.14627 14.1912 4.58203 14.0088 5.08641C13.9617 5.21652 13.9158 5.34703 13.871 5.47793C13.8245 5.61281 13.7847 5.75356 13.7414 5.89764C13.6969 6.04556 13.6536 6.19389 13.6118 6.3426C13.5682 6.49494 13.5237 6.65121 13.4809 6.81141C13.3269 7.45664 13.1633 8.16123 13.0604 8.92799C13.0383 9.09147 13.0118 9.25653 12.9913 9.42492C12.7719 9.33809 12.551 9.2591 12.3351 9.17965C12.0277 9.07694 11.7294 8.97305 11.4276 8.8919C11.2773 8.85018 11.132 8.80418 10.9832 8.7685L10.545 8.66274C10.2534 8.60028 9.97356 8.53781 9.69454 8.49698C9.55561 8.47541 9.42167 8.45051 9.28661 8.43364L8.89005 8.38735C8.76137 8.37205 8.63176 8.36344 8.50731 8.35401C8.38251 8.34492 8.26116 8.33631 8.14022 8.3335C8.02016 8.32922 7.90368 8.32506 7.79059 8.32324L7.45696 8.32776C7.40317 8.32899 7.35096 8.32875 7.29864 8.33127L7.14337 8.34123L6.85157 8.36151L6.57952 8.39397C6.49368 8.40422 6.41176 8.41442 6.33184 8.42994C6.17235 8.45965 6.04046 8.48069 5.89971 8.51573L5.71643 8.56002C5.68948 8.56694 5.66059 8.57344 5.63926 8.58065L5.58313 8.6018C5.44163 8.65494 5.36639 8.68565 5.36639 8.68565C5.14321 8.77864 4.96503 8.98032 4.91657 9.23561C4.83999 9.63914 5.10507 10.0283 5.50854 10.1049L5.51077 10.1053C5.51077 10.1053 5.59069 10.1205 5.74005 10.1445L5.79934 10.1541C5.81856 10.1581 5.83268 10.1647 5.85055 10.1698L5.96094 10.2049L6.2569 10.2979C6.28567 10.3075 6.31444 10.3149 6.34503 10.3255L6.43925 10.3589L6.63858 10.4292L6.85585 10.5134L6.96946 10.5576L7.0877 10.6073C7.40634 10.7348 7.76399 10.9085 8.14643 11.0969C8.33762 11.1964 8.5352 11.2979 8.73805 11.4109L8.89104 11.4944L9.04514 11.5846C9.1488 11.6445 9.25415 11.7025 9.35962 11.7655C9.5695 11.8961 9.78559 12.0226 10.002 12.1637C10.1106 12.2328 10.2201 12.3015 10.3285 12.3771L10.6589 12.5958L10.9884 12.8292C11.1001 12.9042 11.2099 12.9856 11.3202 13.0668C11.5426 13.2254 11.76 13.3983 11.9813 13.5661C12.3778 13.8817 12.7773 14.2002 13.1587 14.5417C13.1762 14.632 13.1938 14.7223 13.212 14.8129C13.2327 14.9314 13.2677 15.0499 13.2971 15.1689C13.3274 15.2881 13.3589 15.4071 13.3914 15.5258L13.4595 15.7729C13.2759 15.7509 13.091 15.7376 12.9091 15.7202L12.5761 15.6908C12.4661 15.679 12.3538 15.6792 12.2436 15.6731C12.0224 15.6644 11.8039 15.6537 11.5874 15.6479C11.3697 15.6468 11.1535 15.6502 10.9409 15.6518L10.6236 15.6586L10.3086 15.6764C10.1001 15.6892 9.89452 15.7053 9.6926 15.7197C9.48946 15.7401 9.28936 15.7677 9.09331 15.7913C8.99522 15.8039 8.89813 15.815 8.80192 15.8289C8.70559 15.8432 8.60962 15.8622 8.51499 15.8785C8.32933 15.9112 8.14403 15.9458 7.95911 15.9824C7.77794 16.0172 7.59993 16.0654 7.42719 16.108C7.25417 16.1528 7.08589 16.1903 6.92206 16.2418C6.75817 16.293 6.59885 16.3424 6.44475 16.3939C6.29065 16.445 6.14112 16.4909 5.99733 16.5516C5.85342 16.6086 5.71432 16.6628 5.58096 16.7187L5.3845 16.7999C5.32016 16.8255 5.258 16.8589 5.19677 16.8878C5.07448 16.9474 4.95717 17.0037 4.84573 17.0606L4.68237 17.1432C4.62893 17.1704 4.57842 17.1953 4.52569 17.2266C4.42186 17.2862 4.32372 17.3425 4.23202 17.3978C4.14541 17.4489 4.05952 17.5011 3.97438 17.5546C3.89487 17.6047 3.8177 17.6507 3.76057 17.6967C3.63846 17.7857 3.53716 17.8686 3.45372 17.9321C3.28807 18.0626 3.2013 18.1367 3.2013 18.1367C3.07145 18.2485 2.98561 18.4007 2.98069 18.5855C2.97155 18.9337 3.246 19.2188 3.5937 19.2188H3.59405C3.59405 19.2188 3.70813 19.2352 3.91907 19.2325C4.02389 19.2294 4.15485 19.2369 4.30579 19.2293C4.38395 19.2232 4.45743 19.233 4.53735 19.2367C4.61727 19.2413 4.70065 19.2458 4.78796 19.2489C4.87409 19.2516 4.96491 19.2551 5.06007 19.258C5.15458 19.2613 5.26251 19.2702 5.3688 19.2758C5.58471 19.2909 5.81042 19.292 6.05692 19.3195C6.30225 19.3435 6.55602 19.3546 6.82772 19.3922C6.96284 19.409 7.10018 19.4231 7.23999 19.4379C7.30948 19.4434 7.38143 19.4578 7.45309 19.4673L7.67018 19.4983L7.8905 19.5295C7.9645 19.5396 8.03844 19.5468 8.11444 19.5619C8.26573 19.5891 8.41895 19.6157 8.57393 19.6401C8.65151 19.6533 8.72915 19.6639 8.80796 19.6794C8.88688 19.6963 8.96628 19.7108 9.04602 19.7265C9.20563 19.757 9.36671 19.7899 9.5296 19.8188C9.69319 19.855 9.85819 19.8933 10.0247 19.9284L10.2756 19.9811L10.5291 20.0447C10.6989 20.0856 10.8699 20.1239 11.0421 20.1668C11.2143 20.2148 11.3881 20.2584 11.5626 20.3044C11.7371 20.348 11.9129 20.3993 12.0894 20.45L12.3548 20.5258C12.4434 20.5508 12.5328 20.5732 12.6215 20.6026C12.7996 20.6572 12.9778 20.7144 13.1577 20.7667C13.2477 20.7916 13.3374 20.8213 13.427 20.8517L13.6966 20.9411C14.0588 21.0489 14.4167 21.1895 14.7806 21.3064C14.9608 21.373 15.1399 21.4432 15.3214 21.5064C15.4117 21.5396 15.503 21.5691 15.5925 21.605L15.8612 21.7115C16.0401 21.7829 16.2225 21.8443 16.3997 21.9198L16.666 22.0308L16.9336 22.1374C17.0232 22.1716 17.111 22.21 17.1986 22.2489L17.4615 22.3637C17.6372 22.4384 17.8139 22.5098 17.9859 22.5896C18.1585 22.6666 18.3319 22.7419 18.506 22.8154C18.6776 22.8925 18.8471 22.9717 19.0182 23.046C19.1031 23.084 19.1885 23.1209 19.2743 23.1568L19.5254 23.2733C19.6915 23.3522 19.8604 23.424 20.0268 23.498C20.1892 23.5781 20.3539 23.652 20.5167 23.7268C20.5984 23.7636 20.6787 23.8022 20.7608 23.8371L20.9995 23.9511C21.1573 24.028 21.3169 24.0994 21.4746 24.171C21.6276 24.2463 21.7813 24.3202 21.9356 24.3928C22.2449 24.5331 22.5355 24.6838 22.8282 24.8198C22.9749 24.8878 23.115 24.9589 23.2542 25.0286C23.3934 25.098 23.5336 25.1631 23.6699 25.229L24.066 25.4285L24.4523 25.6162C24.6988 25.744 24.9374 25.8646 25.1683 25.9751C25.3793 26.087 25.5921 26.1956 25.8066 26.3009C25.9083 26.3502 26.0035 26.3997 26.0941 26.4483L26.3588 26.5843C26.7037 26.7513 26.9689 26.8958 27.1624 26.9874C27.2575 27.0345 27.3334 27.069 27.3847 27.0923C27.4356 27.1159 27.4633 27.1272 27.4633 27.1272L27.4926 27.1392C27.5922 27.18 27.7016 27.1904 27.8071 27.1689C27.8775 27.1548 27.9443 27.1269 28.0039 27.0869C28.0635 27.0468 28.1146 26.9955 28.1543 26.9357C28.1941 26.8759 28.2216 26.8089 28.2355 26.7385C28.2493 26.6681 28.2491 26.5956 28.2349 26.5253V26.5253Z" fill="#00B89C"/>
<path d="M29.2639 27.0721C29.2639 27.0721 29.2044 26.9572 29.0865 26.7471C28.9158 26.4454 28.7392 26.147 28.557 25.8521C28.4257 25.6439 28.2919 25.4372 28.1559 25.232C28.0081 25.0076 27.8466 24.7662 27.6657 24.5148C27.5736 24.3842 27.4804 24.2543 27.3862 24.1251C27.2897 23.9916 27.1906 23.8541 27.0853 23.7159C26.9777 23.5738 26.8689 23.4326 26.759 23.2922C26.6447 23.1445 26.5292 22.9976 26.4127 22.8516C26.1729 22.5543 25.9156 22.2504 25.6485 21.9359C25.3783 21.624 25.0898 21.3086 24.794 20.983C24.6714 20.8557 24.5475 20.7263 24.4223 20.5962L24.3392 20.4349C24.2965 20.3511 24.252 20.2685 24.2077 20.1853C24.1647 20.1014 24.1153 20.0204 24.0783 19.9331C24.0002 19.7605 23.9179 19.5896 23.8356 19.4177C23.7486 19.2478 23.6821 19.0683 23.6057 18.893L23.4931 18.6285L23.4365 18.4961L23.3868 18.3609L23.1847 17.8205C22.9334 17.0924 22.7218 16.3474 22.5589 15.5906C22.5247 15.3996 22.4874 15.2095 22.4507 15.0196C22.4299 14.9252 22.418 14.8286 22.4051 14.7324L22.3617 14.4448C22.3481 14.3489 22.3296 14.2541 22.3197 14.1574L22.2907 13.8676C22.2688 13.6748 22.2412 13.4837 22.2327 13.2891C22.22 13.0952 22.1961 12.9036 22.1866 12.71C22.1797 12.516 22.1656 12.3229 22.1548 12.1306C22.1445 11.7434 22.1244 11.3597 22.1258 10.9756C22.1153 10.5932 22.1279 10.211 22.1252 9.83491C22.1326 9.64635 22.1346 9.45868 22.1375 9.27276L22.1396 9.13366L22.1449 8.99467L22.154 8.7184C22.1605 8.35219 22.1828 7.99108 22.1913 7.63928L22.2152 7.11762C22.2196 7.03207 22.2215 6.94659 22.2241 6.86204C22.2267 6.77743 22.2327 6.69352 22.2368 6.61037L22.2772 5.6458L22.3075 4.76016L22.3171 4.35164C22.3216 4.21981 22.3235 4.09178 22.3254 3.96862L22.3297 3.28635C22.3285 3.07858 22.326 2.89237 22.3205 2.72848C22.3161 2.56489 22.3129 2.42561 22.3059 2.31112C22.301 2.19733 22.2944 2.10903 22.2899 2.0495C22.288 2.01925 22.2855 1.98905 22.2823 1.95891L22.2817 1.95364C22.2709 1.85976 22.2334 1.77097 22.1736 1.69776C22.1138 1.62456 22.0344 1.57 21.9446 1.54056C21.8548 1.51112 21.7584 1.50802 21.6669 1.53163C21.5754 1.55524 21.4926 1.60458 21.4283 1.67379C21.4283 1.67379 21.4068 1.69688 21.3681 1.74258C21.329 1.78817 21.2709 1.85584 21.1989 1.94555C21.0527 2.12414 20.846 2.38893 20.6017 2.73621L20.411 3.01125C20.3472 3.10887 20.2783 3.21065 20.2104 3.31811C20.0723 3.53233 19.9256 3.76547 19.7797 4.02094C19.7047 4.14786 19.6311 4.28022 19.5539 4.41645C19.4774 4.55315 19.4053 4.69664 19.3275 4.84295C19.2521 4.9902 19.174 5.14049 19.0982 5.29752L18.8729 5.78239C18.7955 5.95193 18.7218 6.12316 18.6519 6.29596C18.5816 6.47268 18.5046 6.65151 18.4359 6.83702C18.3016 7.21032 18.1593 7.59575 18.0419 8.00537C17.9142 8.41073 17.8098 8.83899 17.7066 9.27827C17.6587 9.50249 17.6144 9.72746 17.5737 9.95309C17.5286 10.1802 17.4949 10.414 17.4646 10.65C17.4339 10.886 17.397 11.1234 17.3824 11.3671L17.3531 11.7329C17.3442 11.8556 17.3314 11.9777 17.3299 12.1022C17.3243 12.3508 17.3155 12.6014 17.3138 12.8532L17.313 12.9477L17.3159 13.0428L17.3221 13.2334C17.3268 13.3606 17.3297 13.4883 17.3363 13.616C17.344 13.8713 17.3725 14.1287 17.3965 14.3866L17.4382 14.7735C17.4528 14.9026 17.4765 15.0316 17.4956 15.1608C17.4993 15.1836 17.5028 15.2064 17.5064 15.2292C17.3734 15.1549 17.2395 15.0822 17.1048 15.0111L16.3824 14.6466C16.2626 14.5857 16.1386 14.5311 16.0156 14.4754L15.6467 14.3089C15.5234 14.2544 15.4024 14.1967 15.2776 14.1453L14.9027 13.9947C13.904 13.5977 12.8826 13.2806 11.8694 13.0743C11.618 13.0175 11.3651 12.973 11.1145 12.9331C10.8639 12.893 10.6174 12.8481 10.3689 12.8257L10.0006 12.7852C9.8785 12.7723 9.7578 12.7571 9.63639 12.7507C9.39376 12.7369 9.15522 12.7208 8.91944 12.7122C7.9759 12.6863 7.08715 12.7252 6.27962 12.8383C5.47161 12.9396 4.74563 13.1036 4.11487 13.2789C3.95678 13.3206 3.80567 13.3695 3.66012 13.4172C3.52006 13.4622 3.3805 13.5089 3.24147 13.5571L3.04571 13.625L2.85633 13.6981C2.73299 13.7452 2.61645 13.7944 2.50624 13.8387C2.05706 14.0172 1.7543 14.1898 1.53405 14.3078C1.45083 14.3529 1.36844 14.3994 1.2869 14.4475C1.23106 14.4796 1.20241 14.4979 1.20241 14.4979C1.05139 14.5947 0.937748 14.7399 0.880143 14.9097C0.739577 15.3237 0.961178 15.7732 1.37514 15.9138C1.37514 15.9138 1.40731 15.9247 1.4693 15.9424C1.53135 15.9609 1.62329 15.9875 1.74276 16.0185C1.97878 16.0832 2.34346 16.1608 2.74946 16.2725C2.85276 16.2977 2.96122 16.3266 3.07383 16.3526L3.24657 16.3942L3.42991 16.4409C3.67881 16.5069 3.94583 16.5621 4.22731 16.6348C4.79028 16.7779 5.41313 16.9253 6.07331 17.1062C6.73518 17.2747 7.43227 17.4846 8.15503 17.7014C8.33473 17.7616 8.51731 17.8153 8.70106 17.8721L9.2543 18.0564L9.39399 18.1025C9.44092 18.1167 9.4878 18.1314 9.53426 18.1489L9.81493 18.249C10.0021 18.3181 10.1939 18.3737 10.3823 18.4505C11.1435 18.7233 11.9183 19.0342 12.705 19.3674C12.9019 19.4496 13.1005 19.5305 13.2974 19.6213L13.5942 19.7537C13.6933 19.7978 13.7929 19.8407 13.8908 19.8902L14.4859 20.1705C14.5851 20.2182 14.6827 20.2711 14.7817 20.32L15.0794 20.4674C15.2793 20.5618 15.4736 20.6732 15.6718 20.7749L15.9689 20.9287C16.0682 20.979 16.1651 21.0366 16.2632 21.0901C16.4584 21.2003 16.6574 21.3024 16.8528 21.412C17.0465 21.5249 17.2413 21.6359 17.4373 21.7448C18.2121 22.1957 18.9818 22.6471 19.7242 23.11C19.9097 23.2254 20.0963 23.3358 20.2786 23.4522C20.4618 23.5668 20.6418 23.6825 20.8236 23.7928L21.8831 24.4602L22.3941 24.7869C22.562 24.8946 22.7312 24.9959 22.8939 25.1017C23.2203 25.3124 23.5394 25.5127 23.8475 25.7053C23.9998 25.804 24.1509 25.8988 24.2988 25.9915C24.4027 26.0572 24.5069 26.1222 24.6116 26.1865L24.7432 26.2782C24.8141 26.3261 24.8876 26.369 24.9582 26.4136C25.257 26.5996 25.5581 26.7817 25.8616 26.9598L25.8992 26.9801L26.2631 27.201C26.4689 27.3251 26.6761 27.447 26.8845 27.5667C27.2618 27.7871 27.563 27.9574 27.7719 28.0703C27.9807 28.1832 28.0955 28.2404 28.0955 28.2404L28.1113 28.2483C28.233 28.3083 28.367 28.3388 28.5027 28.3374C28.6383 28.336 28.7717 28.3028 28.8922 28.2404C29.3176 28.0203 29.4839 27.4973 29.2639 27.0721V27.0721Z" fill="#009E83"/>
<path d="M24.2494 17.5435C24.0088 17.6137 23.7587 17.6455 23.5082 17.6378C23.3798 17.6338 23.3192 17.7936 23.4161 17.8779C23.586 18.026 23.7341 18.1973 23.856 18.3868C23.8697 18.4073 23.8829 18.4279 23.8954 18.4486C24.5769 19.5801 23.6808 20.1678 22.5493 20.8493C21.4178 21.5308 20.4793 22.048 19.7978 20.9165C19.784 20.8936 19.7707 20.8704 19.7577 20.8471C19.7082 20.7579 19.5818 20.7562 19.5246 20.8407L19.5232 20.8427C19.5097 20.8634 19.4959 20.8836 19.4818 20.9032C18.7077 21.9735 17.8159 21.3793 16.7456 20.6053C15.6753 19.8312 14.8317 19.1704 15.6058 18.1001C15.6921 17.9808 15.7892 17.8696 15.896 17.7681C15.9796 17.6888 15.9333 17.548 15.819 17.5339C15.697 17.5188 15.5764 17.4944 15.4581 17.4608C15.4345 17.4546 15.411 17.4479 15.3878 17.4405C14.1283 17.0422 14.412 16.0088 14.8103 14.7494C15.2086 13.49 15.5707 12.4814 16.8301 12.8797C16.9913 12.9306 17.1467 12.9985 17.2936 13.0823C17.396 13.1407 17.518 13.0488 17.4934 12.9335C17.4636 12.7928 17.4464 12.6497 17.4421 12.506C17.4409 12.4813 17.4402 12.4569 17.4402 12.4327C17.4402 11.1118 18.511 11.0707 19.8319 11.0707C21.1528 11.0707 22.2236 11.1118 22.2236 12.4327C22.2236 12.6442 22.1961 12.8493 22.1444 13.0446C22.1129 13.1641 22.2403 13.2623 22.3462 13.1986C22.5028 13.1046 22.6696 13.0288 22.8434 12.9726C22.8667 12.9646 22.89 12.9571 22.9133 12.9503C24.1816 12.5814 24.5201 13.5981 24.8891 14.8664C25.2582 16.1349 25.5177 17.1745 24.2494 17.5435V17.5435ZM17.7998 6.09545C17.4864 5.01809 17.1988 4.15441 16.1214 4.46783C16.1017 4.47357 16.0819 4.4799 16.0621 4.4867C15.9145 4.53442 15.7728 4.59882 15.6398 4.67865C15.5497 4.73279 15.4415 4.64936 15.4683 4.54781C15.5131 4.3782 15.5357 4.2035 15.5355 4.02809C15.5355 2.90602 14.6259 2.87109 13.5039 2.87109C12.3818 2.87109 11.4723 2.90602 11.4723 4.02809C11.4723 4.04865 11.4728 4.06939 11.4739 4.09031C11.4775 4.21241 11.4921 4.33393 11.5175 4.45342C11.5383 4.55139 11.4347 4.62943 11.3477 4.5798C11.2229 4.50869 11.0909 4.45102 10.954 4.40777C9.88417 4.06945 9.57655 4.92615 9.23823 5.99596C8.89991 7.06576 8.65891 7.94355 9.72872 8.28193C9.74829 8.28814 9.76821 8.29383 9.78849 8.29916C9.89044 8.32805 9.9928 8.34861 10.095 8.36121C10.1921 8.37322 10.2314 8.49281 10.1604 8.56019C10.0697 8.64639 9.98718 8.74079 9.91388 8.84221C9.25634 9.75141 9.97294 10.3127 10.8821 10.9703C11.7913 11.6278 12.5488 12.1325 13.2064 11.2233C13.219 11.2059 13.2311 11.1882 13.2428 11.1702C13.2913 11.0984 13.3987 11.0998 13.4408 11.1756C13.4517 11.1954 13.4631 11.2151 13.4749 11.2346C14.0538 12.1958 14.851 11.7565 15.8122 11.1776C16.7733 10.5987 17.5345 10.0995 16.9556 9.13828C16.945 9.1207 16.9338 9.10318 16.9222 9.08578C16.8186 8.92476 16.6928 8.77921 16.5484 8.65348C16.4661 8.58182 16.5176 8.44611 16.6267 8.44951C16.8342 8.45596 17.0462 8.43047 17.2563 8.36936C18.3337 8.056 18.1132 7.17281 17.7998 6.09545Z" fill="#FF929D"/>
<path d="M22.5217 15.7858L22.5181 15.7983C22.5157 15.8068 22.5119 15.8187 22.5066 15.8329L22.4872 15.8868C22.479 15.9063 22.47 15.9298 22.4589 15.9536C22.4479 15.9775 22.4357 16.0042 22.4216 16.0305C22.4078 16.0582 22.3921 16.0855 22.3751 16.1143C22.3391 16.1758 22.2988 16.2346 22.2546 16.2904C22.1619 16.4075 22.0445 16.519 21.9075 16.6075C21.8391 16.6521 21.7654 16.6899 21.6887 16.7234C21.6115 16.7575 21.533 16.7889 21.4534 16.8172C21.3882 16.8402 21.3222 16.861 21.2556 16.8797C21.2925 16.9378 21.3285 16.997 21.3618 17.0579C21.4023 17.132 21.4401 17.2076 21.4751 17.2845C21.5101 17.3605 21.54 17.4377 21.5615 17.5165C21.6049 17.6738 21.6184 17.8351 21.6097 17.9841C21.6057 18.0552 21.5967 18.1259 21.5827 18.1958C21.5762 18.2286 21.5698 18.2595 21.5616 18.2893C21.5548 18.3183 21.546 18.3463 21.5384 18.3715C21.5309 18.3966 21.522 18.4202 21.5151 18.4403L21.4937 18.4933C21.4894 18.5047 21.4846 18.5159 21.4792 18.5268L21.4737 18.5387C21.3433 18.817 21.0475 18.9653 20.7583 18.9226L20.7454 18.9206C20.7333 18.919 20.7213 18.9168 20.7094 18.9141L20.6534 18.9026C20.6329 18.8972 20.6084 18.8916 20.5833 18.884C20.5582 18.8764 20.53 18.8682 20.5019 18.8579C20.4725 18.8483 20.4433 18.8365 20.4124 18.8238C20.3465 18.7968 20.2825 18.7653 20.2211 18.7293C20.0921 18.6541 19.9651 18.5537 19.8581 18.4305C19.8043 18.3691 19.7565 18.3015 19.7125 18.2302C19.7001 18.2104 19.6883 18.19 19.6763 18.1697C19.661 18.1876 19.646 18.2058 19.6304 18.2232C19.575 18.2859 19.5164 18.3445 19.453 18.396C19.3267 18.4993 19.1847 18.5768 19.0449 18.6292C18.9782 18.6543 18.9099 18.6746 18.8404 18.6899C18.8077 18.6973 18.7769 18.7039 18.7463 18.7085C18.717 18.7139 18.6878 18.7172 18.6617 18.7204C18.6357 18.7237 18.6105 18.7251 18.5894 18.7269L18.5322 18.7288C18.517 18.7296 18.5046 18.7296 18.4957 18.7291L18.4826 18.7288C18.1753 18.7221 17.9201 18.5114 17.8423 18.2296L17.8388 18.217C17.8354 18.2053 17.8326 18.1935 17.8303 18.1815L17.8181 18.1256C17.8148 18.1047 17.81 18.08 17.8068 18.054C17.8035 18.0279 17.7997 17.9988 17.7978 17.9689C17.795 17.9371 17.7933 17.9052 17.7928 17.8733C17.7908 17.8021 17.7939 17.7308 17.8019 17.6601C17.8186 17.5117 17.8592 17.355 17.9285 17.2073C17.963 17.1333 18.0055 17.0622 18.0529 16.9932C18.0659 16.9738 18.0799 16.9548 18.0935 16.9356C18.071 16.9289 18.0482 16.9225 18.026 16.9153C17.9462 16.89 17.869 16.8601 17.7963 16.8229C17.6508 16.7492 17.5225 16.6505 17.4181 16.5438C17.3682 16.493 17.322 16.4387 17.2798 16.3813C17.2599 16.3544 17.2413 16.329 17.2248 16.3028C17.2079 16.2782 17.1931 16.2529 17.1796 16.2302C17.1662 16.2078 17.1547 16.1854 17.1445 16.1668L17.1196 16.1153C17.1141 16.1044 17.1091 16.0934 17.1046 16.0821L17.0996 16.07C16.9816 15.7861 17.0711 15.4676 17.2974 15.2825L17.3075 15.2742C17.3142 15.2684 17.324 15.2608 17.3365 15.252L17.3827 15.2183C17.4005 15.2068 17.4212 15.1924 17.4437 15.179C17.4663 15.1655 17.4913 15.1501 17.5178 15.1363C17.5447 15.1211 17.5731 15.1075 17.6034 15.0931C17.6677 15.0625 17.7341 15.0365 17.802 15.0152C17.9445 14.9705 18.1042 14.9442 18.2673 14.948C18.3489 14.9496 18.4311 14.9597 18.5134 14.9752C18.592 14.9893 18.671 15.0072 18.7495 15.0271L18.7488 15.0171C18.7449 14.9327 18.7441 14.8482 18.7465 14.7638C18.7484 14.6801 18.7555 14.5976 18.7708 14.5174C18.8008 14.357 18.8596 14.2062 18.9328 14.076C18.9676 14.0139 19.0068 13.9544 19.05 13.8978C19.0703 13.8711 19.0896 13.8462 19.11 13.823C19.1289 13.7999 19.1492 13.7786 19.167 13.7593C19.1848 13.7401 19.2031 13.7228 19.2181 13.7078L19.2605 13.6696C19.2694 13.6612 19.2787 13.6533 19.2883 13.6458L19.2984 13.6376C19.5379 13.4448 19.8687 13.4415 20.1098 13.6069L20.1205 13.6143C20.128 13.6191 20.138 13.6264 20.1499 13.6359L20.1952 13.6708C20.2113 13.6846 20.2308 13.7005 20.25 13.7183C20.2693 13.7362 20.2911 13.7559 20.3117 13.7775C20.3339 13.7991 20.355 13.8225 20.3772 13.8475C20.4219 13.8976 20.4662 13.9543 20.5075 14.0164C20.5904 14.1406 20.6603 14.2866 20.7024 14.4442C20.7237 14.523 20.737 14.6048 20.7452 14.6881C20.7533 14.7668 20.7587 14.8458 20.7612 14.9249C20.8402 14.8952 20.9203 14.8685 21.0013 14.8448C21.0815 14.8208 21.1622 14.8022 21.2432 14.7921C21.405 14.7713 21.5666 14.7807 21.7129 14.8103C21.7861 14.825 21.8553 14.8445 21.9186 14.8669C21.9502 14.878 21.9798 14.8887 22.0082 14.901C22.036 14.9119 22.0625 14.9245 22.0863 14.9356C22.1101 14.9466 22.1322 14.9587 22.1511 14.9683L22.2006 14.997C22.2139 15.0044 22.2244 15.011 22.2317 15.016L22.2426 15.0231C22.4999 15.1918 22.605 15.5055 22.5217 15.7858V15.7858ZM15.5517 6.22858L15.5425 6.22248C15.5339 6.2167 15.5251 6.2113 15.516 6.20631L15.474 6.18199C15.4579 6.17385 15.4392 6.16354 15.419 6.15422C15.3987 6.14479 15.3762 6.13406 15.3526 6.12481C15.3276 6.11424 15.3022 6.10459 15.2765 6.09586C15.2194 6.0757 15.161 6.05961 15.1017 6.0477C14.9704 6.02093 14.8357 6.0157 14.7027 6.03223C14.6331 6.04146 14.5644 6.05643 14.4972 6.07699C14.4284 6.09715 14.3604 6.11984 14.2933 6.14502C14.2911 6.07783 14.2866 6.01074 14.2797 5.94387C14.2733 5.87394 14.2611 5.80466 14.2433 5.73674C14.2076 5.60285 14.1481 5.47887 14.0778 5.37328C14.0444 5.3229 14.0073 5.27496 13.9671 5.22985C13.9492 5.20936 13.9307 5.18952 13.9115 5.17037C13.8939 5.15203 13.8755 5.13522 13.8591 5.1201C13.8428 5.10492 13.8261 5.09151 13.8125 5.07973L13.7741 5.05002C13.766 5.04353 13.7577 5.03741 13.7491 5.03168C13.7461 5.02958 13.743 5.02749 13.74 5.02541C13.5352 4.8849 13.2541 4.88772 13.0507 5.05149L13.0421 5.05846C13.0361 5.06303 13.028 5.06983 13.0185 5.07867L12.9825 5.11119C12.9697 5.12391 12.9542 5.13861 12.9391 5.15496C12.9239 5.17131 12.9067 5.18942 12.8906 5.20904C12.8733 5.22873 12.8569 5.24988 12.8397 5.27256C12.8029 5.32063 12.7697 5.37122 12.74 5.42397C12.6779 5.53453 12.628 5.66262 12.6025 5.79885C12.5898 5.86793 12.5829 5.93793 12.5818 6.00815C12.5798 6.07988 12.5804 6.15167 12.5837 6.22336C12.5838 6.22623 12.5842 6.22904 12.5843 6.23186C12.518 6.21477 12.4511 6.20005 12.3838 6.18774C12.3149 6.17426 12.2449 6.16654 12.1747 6.16465C12.0408 6.16212 11.9073 6.18139 11.7795 6.22172C11.7218 6.23974 11.6654 6.26185 11.6108 6.28787C11.585 6.30006 11.561 6.31166 11.5381 6.32461C11.5156 6.33633 11.4943 6.34934 11.4752 6.36082C11.4561 6.37219 11.4385 6.38444 11.4234 6.39422L11.3841 6.42281C11.3756 6.42871 11.3674 6.43501 11.3595 6.44168L11.351 6.44871C11.1587 6.60592 11.0827 6.87656 11.1829 7.11768L11.1872 7.12793C11.19 7.13496 11.1942 7.14457 11.2 7.15617L11.2211 7.19994C11.2297 7.2157 11.2395 7.23481 11.2509 7.25385C11.2624 7.27307 11.275 7.29457 11.2893 7.31549C11.3033 7.33764 11.3191 7.35932 11.336 7.38217C11.3719 7.43091 11.4111 7.47704 11.4535 7.52022C11.5471 7.61612 11.6556 7.69619 11.7748 7.75729C11.8366 7.78887 11.9022 7.8143 11.97 7.83574C11.9888 7.8419 12.0082 7.84735 12.0273 7.85309C12.0157 7.86938 12.0039 7.88555 11.9927 7.90201C11.9525 7.96061 11.9164 8.02102 11.8872 8.08389C11.8307 8.20539 11.7944 8.33527 11.7796 8.46844C11.7727 8.52853 11.7701 8.58904 11.7718 8.64949C11.7726 8.67791 11.7735 8.70469 11.7761 8.73082C11.7776 8.75613 11.7809 8.78086 11.7837 8.80307C11.7864 8.82516 11.7905 8.84619 11.7933 8.86395L11.8037 8.91141C11.8062 8.92412 11.8088 8.93432 11.8109 8.94153L11.8139 8.95219C11.88 9.1916 12.0967 9.37049 12.3578 9.37629L12.3689 9.37652C12.3764 9.37688 12.3869 9.37688 12.3999 9.37623L12.4484 9.37465C12.4664 9.37307 12.4877 9.3719 12.5098 9.36914C12.532 9.36645 12.5567 9.36363 12.5817 9.35901C12.6076 9.35514 12.6338 9.34945 12.6615 9.34324C12.7206 9.33017 12.7786 9.31292 12.8353 9.29162C12.9608 9.24483 13.0779 9.17792 13.182 9.09352C13.2359 9.04981 13.2856 9.00006 13.3327 8.94674C13.3459 8.93197 13.3587 8.91651 13.3717 8.90127C13.3819 8.91844 13.3919 8.93584 13.4025 8.95266C13.4398 9.01313 13.4804 9.07061 13.5261 9.12276C13.617 9.2274 13.7248 9.31266 13.8344 9.37658C13.8866 9.40714 13.9409 9.43397 13.9969 9.45686C14.0232 9.4677 14.048 9.47766 14.0729 9.48586C14.0967 9.49465 14.1207 9.50162 14.1421 9.50801C14.1634 9.51451 14.1842 9.51926 14.2016 9.52383L14.2492 9.53361C14.2618 9.53643 14.2722 9.53818 14.2797 9.53912L14.2907 9.54076C14.5364 9.57709 14.7877 9.45112 14.8985 9.21469L14.9032 9.20467C14.9065 9.19793 14.9108 9.18826 14.9154 9.17619L14.9336 9.13113C14.9394 9.11414 14.9469 9.0941 14.9533 9.07277C14.9598 9.05139 14.9673 9.0276 14.9731 9.00287C14.98 8.97756 14.9854 8.95137 14.9909 8.92348C15.0022 8.86758 15.0103 8.80699 15.0139 8.74371C15.0212 8.61709 15.0098 8.48004 14.9729 8.34651C14.9539 8.27889 14.9294 8.21296 14.8995 8.1494C14.8698 8.08407 14.8377 8.01987 14.8033 7.95692C14.7748 7.9055 14.7448 7.85503 14.7131 7.80557C14.7697 7.78973 14.8257 7.77204 14.8811 7.75254C14.9487 7.72842 15.0154 7.70182 15.081 7.67279C15.1456 7.64518 15.2078 7.61225 15.2669 7.57436C15.3833 7.49918 15.483 7.40444 15.5617 7.305C15.5994 7.25764 15.6336 7.20767 15.6641 7.15547C15.6785 7.13098 15.6919 7.10778 15.7035 7.08428C15.7156 7.06195 15.7259 7.03922 15.7352 7.01895C15.7447 6.99879 15.7524 6.97881 15.7593 6.96223L15.7757 6.91653C15.7794 6.90687 15.7827 6.89706 15.7855 6.88711L15.7887 6.87651C15.8594 6.6382 15.7702 6.37166 15.5517 6.22858V6.22858Z" fill="#FF473E"/>
<path d="M20.7925 16.3086C20.7925 16.8379 20.3634 17.267 19.8341 17.267C19.3047 17.267 18.8756 16.8379 18.8756 16.3086C18.8756 15.7792 19.3047 15.3502 19.8341 15.3502C20.3634 15.3502 20.7925 15.7793 20.7925 16.3086V16.3086ZM13.5058 6.50626C13.0562 6.50626 12.6917 6.87077 12.6917 7.32036C12.6917 7.76995 13.0562 8.13446 13.5058 8.13446C13.9555 8.13446 14.3199 7.76995 14.3199 7.32036C14.3199 6.87077 13.9554 6.50626 13.5058 6.50626V6.50626ZM13.6433 16.7243C13.2744 15.456 12.9358 14.4393 11.6675 14.8082C11.6443 14.815 11.621 14.8224 11.5976 14.8305C11.4239 14.8866 11.2571 14.9625 11.1005 15.0565C10.9945 15.1202 10.867 15.022 10.8986 14.9024C10.9513 14.7028 10.9779 14.4971 10.9778 14.2906C10.9778 12.9697 9.90699 12.9286 8.58611 12.9286C7.26523 12.9286 6.19443 12.9697 6.19443 14.2906C6.19443 14.3148 6.19507 14.3392 6.1963 14.3639C6.2007 14.51 6.21816 14.6529 6.24763 14.7914C6.27218 14.9067 6.15019 14.9986 6.04777 14.9402C5.90086 14.8565 5.7455 14.7886 5.58429 14.7376C4.32488 14.3393 3.96277 15.3479 3.56451 16.6073C3.16619 17.8667 2.88253 18.9001 4.14195 19.2984C4.16497 19.3057 4.18847 19.3124 4.21232 19.3187C4.33232 19.3527 4.4529 19.377 4.57314 19.3918C4.68751 19.4059 4.73374 19.5466 4.65019 19.626C4.54341 19.7275 4.44626 19.8386 4.35997 19.958C3.58589 21.0284 4.42947 21.6892 5.4998 22.4632C6.57013 23.2372 7.46193 23.8314 8.23595 22.7611C8.25013 22.7415 8.2639 22.7213 8.27738 22.7006L8.27878 22.6986C8.33597 22.6141 8.46236 22.6158 8.51187 22.705C8.52482 22.7282 8.53818 22.7514 8.552 22.7744C9.23351 23.9059 10.172 23.3887 11.3035 22.7072C12.435 22.0257 13.3311 21.438 12.6496 20.3065C12.637 20.2856 12.6238 20.265 12.6102 20.2447C12.4883 20.0552 12.3402 19.8839 12.1703 19.7358C12.0734 19.6515 12.134 19.4917 12.2624 19.4957C12.5067 19.5033 12.7562 19.4733 13.0036 19.4014C14.2719 19.0323 14.0122 17.9926 13.6433 16.7243V16.7243Z" fill="#FFB636"/>
<path d="M8.58457 19.4791C9.29359 19.4791 9.86836 18.9044 9.86836 18.1953C9.86836 17.4863 9.29359 16.9116 8.58457 16.9116C7.87555 16.9116 7.30078 17.4863 7.30078 18.1953C7.30078 18.9044 7.87555 19.4791 8.58457 19.4791Z" fill="#F8BBC6"/>
<path d="M10.996 16.881L10.9851 16.8738C10.975 16.867 10.9646 16.8607 10.9539 16.8548L10.9044 16.8261C10.8856 16.8165 10.8635 16.8044 10.8397 16.7934C10.8158 16.7823 10.7893 16.7697 10.7615 16.7588C10.7331 16.7465 10.7035 16.7358 10.6719 16.7248C10.6048 16.701 10.5361 16.6821 10.4663 16.6681C10.3199 16.6385 10.1583 16.6291 9.99651 16.6499C9.91547 16.66 9.83479 16.6787 9.75457 16.7026C9.6736 16.7264 9.59352 16.7531 9.51452 16.7827C9.51196 16.7036 9.5066 16.6246 9.49846 16.5459C9.49026 16.4627 9.47696 16.3809 9.45563 16.3021C9.41362 16.1445 9.34366 15.9985 9.2608 15.8742C9.22139 15.8149 9.17782 15.7585 9.13043 15.7053C9.10947 15.6812 9.08764 15.6579 9.06498 15.6353C9.04436 15.6137 9.02262 15.594 9.00328 15.5762C8.98412 15.5583 8.9645 15.5425 8.9485 15.5286L8.90321 15.4937C8.89374 15.4861 8.88392 15.4788 8.87379 15.4721C8.87021 15.4696 8.86664 15.4672 8.86307 15.4647C8.62202 15.2993 8.29114 15.3026 8.05166 15.4954L8.04153 15.5036C8.0345 15.509 8.025 15.517 8.01381 15.5274L7.97133 15.5657C7.95639 15.5807 7.93805 15.5979 7.9203 15.6172C7.90237 15.6364 7.88221 15.6578 7.86329 15.6809C7.84284 15.704 7.82356 15.729 7.80329 15.7556C7.76005 15.8122 7.72087 15.8718 7.68604 15.9339C7.61286 16.064 7.55409 16.2148 7.52409 16.3752C7.50879 16.4554 7.50164 16.5379 7.49977 16.6216C7.4974 16.706 7.49816 16.7905 7.50205 16.8749L7.50276 16.885C7.42471 16.8648 7.34597 16.8475 7.26668 16.833C7.18442 16.8176 7.10221 16.8075 7.02059 16.8059C6.85746 16.802 6.6978 16.8283 6.5553 16.8731C6.48411 16.8953 6.41725 16.9219 6.35666 16.9509C6.32643 16.9653 6.29801 16.9789 6.27112 16.9942C6.24457 17.0079 6.21955 17.0232 6.197 17.0368C6.1745 17.0502 6.15381 17.0646 6.136 17.0762L6.08977 17.1098C6.07729 17.1186 6.06756 17.1262 6.06077 17.132L6.05069 17.1403C5.82434 17.3254 5.73487 17.644 5.85287 17.9278L5.85786 17.9399C5.86108 17.9481 5.86606 17.9595 5.87291 17.9731L5.89776 18.0246C5.90795 18.0432 5.91944 18.0656 5.93291 18.0881C5.94639 18.1107 5.96121 18.136 5.97809 18.1607C5.99461 18.1868 6.01313 18.2122 6.03305 18.2392C6.07523 18.2966 6.12144 18.3508 6.17133 18.4017C6.27575 18.5084 6.40412 18.607 6.54961 18.6807C6.62233 18.7179 6.69955 18.7478 6.7793 18.7731C6.80151 18.7804 6.82424 18.7867 6.8468 18.7935C6.83315 18.8126 6.8192 18.8317 6.80614 18.8511C6.75873 18.92 6.71625 18.9912 6.6818 19.0652C6.61237 19.2128 6.57188 19.3695 6.55518 19.5179C6.54713 19.5887 6.54409 19.6599 6.5461 19.7311C6.54698 19.7645 6.54803 19.7961 6.55108 19.8268C6.55295 19.8566 6.55682 19.8857 6.5601 19.9118C6.56327 19.9378 6.56801 19.9625 6.57141 19.9835L6.58354 20.0394C6.58653 20.0543 6.58957 20.0663 6.59209 20.0749L6.59555 20.0875C6.67336 20.3693 6.92854 20.5799 7.23592 20.5867L7.24899 20.587C7.25784 20.5874 7.27026 20.5874 7.28549 20.5867L7.34268 20.5848C7.36377 20.583 7.38897 20.5816 7.41493 20.5783C7.44106 20.5751 7.47018 20.5718 7.49959 20.5663C7.53115 20.5613 7.56252 20.5551 7.59364 20.5478C7.66315 20.5324 7.73149 20.5121 7.79813 20.4871C7.93799 20.4347 8.08008 20.3572 8.20629 20.2539C8.26969 20.2024 8.32828 20.1439 8.3836 20.0811C8.39924 20.0637 8.41424 20.0454 8.42954 20.0276C8.44155 20.0478 8.45332 20.0683 8.46575 20.0881C8.50969 20.1593 8.55756 20.2269 8.61135 20.2884C8.71834 20.4115 8.84526 20.512 8.97428 20.5872C9.03873 20.6249 9.10336 20.6563 9.16559 20.6817C9.19659 20.6944 9.22577 20.7061 9.25512 20.7158C9.28313 20.7262 9.31131 20.7344 9.33651 20.7419C9.36153 20.7495 9.38614 20.7551 9.40659 20.7605L9.4626 20.772C9.47748 20.7753 9.48973 20.7774 9.49852 20.7785L9.51141 20.7804C9.80063 20.8232 10.0965 20.6749 10.2269 20.3965L10.2324 20.3847C10.2363 20.3767 10.2414 20.3654 10.2469 20.3512L10.2683 20.2982C10.2751 20.2781 10.284 20.2545 10.2915 20.2294C10.2991 20.2042 10.3079 20.1762 10.3148 20.1472C10.323 20.1174 10.3293 20.0865 10.3358 20.0537C10.3491 19.9878 10.3586 19.9165 10.3629 19.842C10.3715 19.6929 10.358 19.5316 10.3146 19.3744C10.2932 19.2956 10.2633 19.2183 10.2282 19.1423C10.1933 19.0654 10.1555 18.9899 10.1149 18.9158C10.0815 18.8552 10.0461 18.7958 10.0088 18.7376C10.0754 18.7189 10.1413 18.6981 10.2066 18.6751C10.2861 18.6467 10.3646 18.6154 10.4419 18.5812C10.5186 18.5478 10.5923 18.5099 10.6607 18.4654C10.7977 18.3769 10.915 18.2654 11.0077 18.1483C11.052 18.0926 11.0923 18.0337 11.1282 17.9722C11.1452 17.9433 11.161 17.9161 11.1747 17.8884C11.1889 17.8621 11.201 17.8353 11.212 17.8114C11.2231 17.7877 11.2321 17.7642 11.2404 17.7446L11.2597 17.6908C11.2651 17.6766 11.2689 17.6647 11.2712 17.6562L11.2749 17.6437C11.3582 17.3633 11.2531 17.0495 10.996 16.881V16.881Z" fill="#FFD469"/>
<path d="M8.58732 19.1247C9.11664 19.1247 9.54574 18.6956 9.54574 18.1663C9.54574 17.637 9.11664 17.2079 8.58732 17.2079C8.058 17.2079 7.62891 17.637 7.62891 18.1663C7.62891 18.6956 8.058 19.1247 8.58732 19.1247Z" fill="#FFB636"/>
</svg>
