<svg width="30" height="30" viewBox="0 0 30 30" fill="none" xmlns="http://www.w3.org/2000/svg">
<g clip-path="url(#clip0_1322_157)">
<path d="M17.4244 0H7.5C6.50544 0 5.55161 0.395088 4.84835 1.09835C4.14509 1.80161 3.75 2.75544 3.75 3.75V26.25C3.75 27.2446 4.14509 28.1984 4.84835 28.9016C5.55161 29.6049 6.50544 30 7.5 30H22.5C23.4946 30 24.4484 29.6049 25.1516 28.9016C25.8549 28.1984 26.25 27.2446 26.25 26.25V8.82562C26.2499 8.32838 26.0523 7.85155 25.7006 7.5L18.75 0.549375C18.3985 0.19772 17.9216 0.000106195 17.4244 0ZM17.8125 6.5625V2.8125L23.4375 8.4375H19.6875C19.1902 8.4375 18.7133 8.23996 18.3617 7.88832C18.01 7.53669 17.8125 7.05978 17.8125 6.5625ZM11.25 12.9056C11.25 12.7398 11.2939 12.5768 11.3774 12.4335C11.4609 12.2902 11.581 12.1716 11.7253 12.0898C11.8696 12.008 12.033 11.966 12.1989 11.968C12.3647 11.97 12.5271 12.016 12.6694 12.1012L19.2844 16.0706C19.4234 16.1539 19.5385 16.2717 19.6184 16.4127C19.6983 16.5537 19.7403 16.713 19.7403 16.875C19.7403 17.037 19.6983 17.1963 19.6184 17.3373C19.5385 17.4783 19.4234 17.5961 19.2844 17.6794L12.6694 21.6487C12.527 21.7341 12.3644 21.7801 12.1984 21.782C12.0324 21.7839 11.8688 21.7417 11.7245 21.6597C11.5801 21.5777 11.4601 21.4589 11.3767 21.3153C11.2934 21.1717 11.2496 21.0085 11.25 20.8425V12.9075V12.9056Z" fill="#3E3333"/>
</g>
<defs>
<clipPath id="clip0_1322_157">
<rect width="30" height="30" fill="white"/>
</clipPath>
</defs>
</svg>
