<svg width="30" height="30" viewBox="0 0 30 30" fill="none" xmlns="http://www.w3.org/2000/svg">
<path d="M0 21.7969H30V26.0156H0V21.7969Z" fill="#699635"/>
<path d="M0 3.98438H30V21.7969H0V3.98438Z" fill="#83BF4F"/>
<path d="M11.25 21.7969H18.75V26.0156H11.25V21.7969Z" fill="#94989B"/>
<path d="M1.875 5.85938H28.125V19.9219H1.875V5.85938Z" fill="#699635"/>
<path d="M3.28125 7.26562H26.7188V18.5156H3.28125V7.26562Z" fill="#83BF4F"/>
<path d="M21.0938 16.6406C23.1648 16.6406 24.8438 14.9617 24.8438 12.8906C24.8438 10.8196 23.1648 9.14062 21.0938 9.14062C19.0227 9.14062 17.3438 10.8196 17.3438 12.8906C17.3438 14.9617 19.0227 16.6406 21.0938 16.6406Z" fill="#699635"/>
<path d="M11.25 3.98438H18.75V21.7969H11.25V3.98438Z" fill="#D0D0D0"/>
<path d="M7.5 12.4219C6.98437 12.4219 6.5625 12 6.5625 11.4844C6.5625 10.9687 6.98437 10.5469 7.5 10.5469C8.01563 10.5469 8.4375 10.9687 8.4375 11.4844H9.375C9.375 10.5938 8.76563 9.89063 7.96875 9.65625V9.14062H7.03125V9.65625C6.23437 9.84375 5.625 10.5938 5.625 11.4844C5.625 12.5156 6.46875 13.3594 7.5 13.3594C8.01563 13.3594 8.4375 13.7812 8.4375 14.2969C8.4375 14.8125 8.01563 15.2344 7.5 15.2344C6.98437 15.2344 6.5625 14.8125 6.5625 14.2969H5.625C5.625 15.1875 6.23437 15.8906 7.03125 16.125V16.6406H7.96875V16.125C8.76563 15.9375 9.375 15.1875 9.375 14.2969C9.375 13.2656 8.53125 12.4219 7.5 12.4219Z" fill="white"/>
</svg>
