<svg width="30" height="30" viewBox="0 0 30 30" fill="none" xmlns="http://www.w3.org/2000/svg">
<path d="M22.5995 2.0209C23.3143 2.56933 23.9003 3.29648 24.328 4.10215C24.8319 5.05019 25.119 6.12305 25.0897 7.17187C25.8104 6.20508 25.9511 4.87793 25.3475 3.73652C24.785 2.67246 23.7186 2.05488 22.5995 2.0209ZM21.1757 2.37656C20.953 3.41426 21.1698 4.61543 21.7206 5.65664C22.2362 6.63281 23.0389 7.45312 23.9471 7.88086C24.1698 6.83789 23.9471 5.63672 23.3964 4.59551C22.8807 3.61933 22.0839 2.80312 21.1757 2.37656V2.37656ZM20.0331 3.17168C19.2069 4.14551 19.0136 5.55234 19.6522 6.75C20.285 7.95117 21.5565 8.58398 22.8221 8.45508C21.9725 7.88672 21.2753 7.0664 20.7889 6.15234C20.3026 5.23008 20.0214 4.19355 20.0331 3.17168V3.17168ZM21.5448 9.5039C21.1874 9.5039 20.4374 9.70312 19.7401 10.1367C18.9432 10.6348 18.1815 11.3906 17.8358 12.2051C17.7831 12.334 17.6132 12.9375 17.3964 13.6699C17.1854 14.4023 16.9042 15.2988 16.5292 16.1836C16.1542 17.0742 15.6913 17.9531 15.0878 18.668C14.4843 19.377 13.7167 19.9277 12.7675 20.0273C11.9999 20.1035 11.2675 19.7988 10.5936 19.3594C9.91394 18.9258 9.28113 18.3457 8.73035 17.7598C7.62293 16.5938 6.82605 15.4043 6.82605 15.4043L6.56824 15.0176L6.9198 14.7129C8.19129 13.6172 8.29676 12.2051 8.25574 11.0273C7.20105 11.584 6.2284 12.2988 5.89441 12.9434L5.67703 13.3535L5.24051 13.1895C4.63289 12.9609 4.00183 12.9199 3.34031 12.8555C2.89207 12.8145 2.42449 12.7559 1.96394 12.6035C1.94461 13.0957 2.19246 13.4707 2.62254 13.8574C3.20086 14.373 4.13308 14.7891 4.97508 15.041L5.33484 15.1465L5.35183 15.5215C5.35183 15.5215 5.42918 17.1797 5.80711 19.0312C6.18738 20.877 6.93738 22.8633 7.89832 23.4785C9.52723 24.5332 11.7421 24.9727 13.9569 24.832C13.8163 24.7031 13.6815 24.5742 13.5585 24.4453C13.0663 23.9473 12.6971 23.4902 12.4979 23.0625L13.4589 22.6172C13.5526 22.8223 13.869 23.2617 14.3085 23.7012C14.7421 24.1465 15.3046 24.6211 15.8964 25.0078C16.4882 25.3945 17.1151 25.6992 17.6659 25.8223C18.1346 25.9277 18.5214 25.9043 18.8554 25.752C18.8378 25.6758 18.8261 25.6055 18.7675 25.4707C18.621 25.1133 18.3456 24.6152 18.0409 24.1289C17.4432 23.1562 16.7518 22.2305 16.7518 22.2305L17.5956 21.5977C17.5956 21.5977 18.246 22.4766 18.8612 23.4492C19.5409 23.0742 20.1561 22.6348 20.6718 22.125C21.5682 21.2461 21.9315 18.9844 21.9432 16.9512C21.9491 14.9238 21.6854 13.1543 21.6854 13.1543L21.662 13.0195L21.7147 12.8906C21.8671 12.4922 22.0136 11.5371 21.9843 10.7461C21.9667 10.3535 21.9081 9.99023 21.8202 9.76758C21.7382 9.53906 21.6679 9.51562 21.6737 9.51562C21.6386 9.50976 21.5975 9.5039 21.5448 9.5039V9.5039ZM19.6874 11.1328C19.8272 11.1328 19.9614 11.1884 20.0603 11.2873C20.1592 11.3862 20.2147 11.5203 20.2147 11.6602C20.2147 11.8 20.1592 11.9341 20.0603 12.033C19.9614 12.1319 19.8272 12.1875 19.6874 12.1875C19.5475 12.1875 19.4134 12.1319 19.3145 12.033C19.2156 11.9341 19.16 11.8 19.16 11.6602C19.16 11.5203 19.2156 11.3862 19.3145 11.2873C19.4134 11.1884 19.5475 11.1328 19.6874 11.1328V11.1328ZM21.9081 22.2656C21.7616 22.4824 21.5975 22.6934 21.41 22.875C20.9413 23.332 20.4139 23.7422 19.8456 24.0996C20.3905 24.2637 20.9823 24.375 21.5858 24.4277C22.9921 24.5508 24.3925 24.3867 25.2069 24.1816C25.1776 24.1289 25.1425 24.0645 25.078 23.9766C24.8612 23.707 24.4686 23.3672 23.9823 23.0742C23.3846 22.7109 22.6464 22.4121 21.9081 22.2656V22.2656ZM7.76355 25.8398L5.74207 28.5352H24.2577L22.2362 25.8398H19.9393C19.9393 26.0684 19.8632 26.3789 19.5995 26.5547C18.9432 26.9766 18.1639 27.0176 17.4315 26.8477C16.6991 26.6836 15.9784 26.3262 15.3163 25.8867C15.2929 25.8691 15.2694 25.8574 15.246 25.8398H7.76355V25.8398Z" fill="#3B4B6B"/>
</svg>
