<svg width="30" height="30" viewBox="0 0 30 30" fill="none" xmlns="http://www.w3.org/2000/svg">
<path d="M2.5625 13.7188H7.375C7.22917 12.6563 6.91167 11.63 6.4225 10.64C5.9325 9.65083 5.32292 8.78125 4.59375 8.03125C4.01042 8.86458 3.55208 9.755 3.21875 10.7025C2.88542 11.6508 2.66667 12.6563 2.5625 13.7188ZM22.625 13.7188H27.4375C27.3333 12.6771 27.1146 11.6771 26.7812 10.7187C26.4479 9.76042 25.9896 8.875 25.4063 8.0625C24.6563 8.8125 24.0417 9.67708 23.5625 10.6562C23.0833 11.6354 22.7708 12.6563 22.625 13.7188V13.7188ZM4.59375 21.9375C5.32292 21.1875 5.9325 20.3229 6.4225 19.3438C6.91167 18.3646 7.22917 17.3437 7.375 16.2812H2.5625C2.66667 17.3437 2.88542 18.3492 3.21875 19.2975C3.55208 20.245 4.01042 21.125 4.59375 21.9375V21.9375ZM25.4063 21.9375C25.9896 21.125 26.4479 20.2396 26.7812 19.2812C27.1146 18.3229 27.3333 17.3229 27.4375 16.2812H22.625C22.7708 17.3437 23.0833 18.3646 23.5625 19.3438C24.0417 20.3229 24.6563 21.1875 25.4063 21.9375V21.9375ZM9.90625 13.7188H13.7188V2.5625C12.2396 2.72917 10.8596 3.11458 9.57875 3.71875C8.29708 4.32292 7.15625 5.125 6.15625 6.125C7.19792 7.14583 8.04167 8.29167 8.6875 9.5625C9.33333 10.8333 9.73958 12.2188 9.90625 13.7188ZM16.2812 13.7188H20.0938C20.2604 12.2188 20.6617 10.8279 21.2975 9.54625C21.9325 8.26542 22.7813 7.125 23.8438 6.125C22.8438 5.125 21.7029 4.32292 20.4212 3.71875C19.1404 3.11458 17.7604 2.72917 16.2812 2.5625V13.7188ZM13.7188 27.4375V16.2812H9.90625C9.73958 17.7812 9.33875 19.1667 8.70375 20.4375C8.06792 21.7083 7.21875 22.8438 6.15625 23.8438C7.15625 24.8438 8.29167 25.6508 9.5625 26.265C10.8333 26.88 12.2188 27.2708 13.7188 27.4375ZM16.2812 27.4375C17.7604 27.2708 19.1404 26.8854 20.4212 26.2813C21.7029 25.6771 22.8438 24.875 23.8438 23.875C22.7813 22.875 21.9325 21.7342 21.2975 20.4525C20.6617 19.1717 20.2604 17.7812 20.0938 16.2812H16.2812V27.4375Z" fill="#DB593C"/>
</svg>
