<svg width="30" height="30" viewBox="0 0 30 30" fill="none" xmlns="http://www.w3.org/2000/svg">
<path d="M24.7883 21.4148C22.9953 25.0148 19.2875 27.5016 14.9984 27.5016C10.6438 27.5016 6.88906 24.9398 5.13125 21.2461C4.45391 19.8234 4.0625 18.2414 4.0625 16.5633C4.0625 10.5328 8.96797 5.62734 14.9984 5.62734C21.0289 5.62734 25.9344 10.5328 25.9344 16.5633C25.9367 18.3094 25.5172 19.9523 24.7883 21.4148V21.4148Z" fill="white"/>
<path d="M15.7926 3.97031V2.175H16.8777V0.410156H13.116V2.175H14.2035V3.97031C7.61289 4.38281 2.37695 9.87187 2.37695 16.5633C2.37695 19.132 3.15039 21.525 4.47461 23.5195L3.64258 27.5297C3.64258 27.5297 3.11992 29.8781 5.43555 29.8781C7.47461 29.8781 14.8551 29.8078 14.8551 29.8078C14.8551 29.8078 22.2379 29.8781 24.2746 29.8781C26.5902 29.8781 26.0676 27.5297 26.0676 27.5297L25.3012 23.8383C26.759 21.7805 27.6191 19.2703 27.6191 16.5633C27.6215 9.87187 22.3832 4.38281 15.7926 3.97031V3.97031ZM24.7879 21.4148C22.9949 25.0148 19.2871 27.5016 14.998 27.5016C10.6434 27.5016 6.88867 24.9398 5.13086 21.2461C4.45352 19.8234 4.06211 18.2414 4.06211 16.5633C4.06211 10.5328 8.96758 5.62734 14.998 5.62734C21.0285 5.62734 25.934 10.5328 25.934 16.5633C25.9363 18.3094 25.5168 19.9523 24.7879 21.4148V21.4148Z" fill="#006CA2"/>
<path d="M15.8992 15.0047C15.8852 14.9953 15.8641 14.9906 15.8477 14.9812V7.26797H14.1203V15.0047C13.8395 15.1604 13.6055 15.3887 13.443 15.6656C13.1078 16.2469 13.1383 16.9312 13.4547 17.4703L11.425 20.9625L11.8 21.1805L12.918 21.832L13.2977 21.1805L14.9406 18.3539C15.5805 18.375 16.2133 18.0586 16.5578 17.4633C17.0547 16.6055 16.7617 15.5039 15.8992 15.0047V15.0047ZM14.7484 17.1937C14.6228 17.1435 14.5151 17.0568 14.4391 16.9449C14.3631 16.833 14.3223 16.7009 14.3219 16.5656C14.3219 16.193 14.6266 15.8883 14.9992 15.8883C15.0461 15.8883 15.0883 15.9047 15.1305 15.9141C15.2852 15.9445 15.4187 16.0219 15.5148 16.1391C15.6109 16.2562 15.6766 16.4016 15.6766 16.5656C15.6766 16.8516 15.5008 17.093 15.25 17.1937C15.1703 17.2242 15.0883 17.2453 14.9969 17.2453C14.9102 17.2453 14.8258 17.2242 14.7484 17.1937V17.1937ZM24.7656 16.2398C24.6484 16.0336 24.4375 15.8883 24.1844 15.8883C23.8094 15.8883 23.507 16.193 23.507 16.5656C23.507 16.7455 23.5783 16.918 23.7053 17.0454C23.8322 17.1728 24.0045 17.2447 24.1844 17.2453C24.4375 17.2453 24.6508 17.1 24.7656 16.8937C24.8219 16.7953 24.8617 16.6875 24.8617 16.5656C24.8617 16.4437 24.8219 16.3383 24.7656 16.2398ZM19.9328 8.025C19.832 7.96641 19.7219 7.94531 19.6117 7.94297C19.3727 7.93594 19.1359 8.04844 19.007 8.27109C18.962 8.34806 18.9327 8.43319 18.9209 8.52155C18.909 8.60992 18.9148 8.69976 18.9379 8.78587C18.961 8.87198 19.001 8.95264 19.0555 9.0232C19.11 9.09375 19.178 9.15278 19.2555 9.19687C19.5813 9.38203 19.9938 9.27422 20.1813 8.95078C20.3055 8.73281 20.2867 8.47734 20.1695 8.27344C20.1109 8.175 20.0383 8.08594 19.9328 8.025ZM10.3867 7.94297C10.2766 7.94531 10.1687 7.96406 10.068 8.025C9.9625 8.08594 9.8875 8.175 9.82891 8.27812C9.71172 8.47969 9.69297 8.73281 9.81953 8.95078C9.86375 9.02814 9.92289 9.09596 9.99353 9.15029C10.0642 9.20462 10.1449 9.24438 10.231 9.26728C10.3171 9.29017 10.4069 9.29573 10.4952 9.28365C10.5835 9.27156 10.6685 9.24207 10.7453 9.19687C11.0687 9.01172 11.1766 8.59687 10.9914 8.27109C10.8648 8.04844 10.6281 7.93594 10.3867 7.94297V7.94297ZM23.2938 12.5625C23.5164 12.4336 23.6289 12.1945 23.6219 11.9555C23.6195 11.8453 23.6008 11.7375 23.5422 11.6367C23.4789 11.5312 23.3898 11.4562 23.2914 11.4C23.0875 11.2828 22.8344 11.2641 22.6188 11.3906C22.5414 11.4345 22.4735 11.4933 22.4189 11.5636C22.3644 11.6339 22.3243 11.7142 22.301 11.8001C22.2777 11.8859 22.2716 11.9756 22.2831 12.0638C22.2946 12.152 22.3234 12.2371 22.368 12.3141C22.5555 12.6375 22.9703 12.7477 23.2938 12.5625V12.5625ZM7.38203 11.3859C7.16406 11.2617 6.91094 11.2781 6.70937 11.3953C6.61094 11.4516 6.51953 11.5266 6.45625 11.632C6.39766 11.7328 6.37891 11.843 6.37422 11.9531C6.36719 12.1922 6.48203 12.4289 6.70234 12.5578C7.02578 12.7453 7.44297 12.6328 7.63047 12.3094C7.81797 11.9859 7.70547 11.5734 7.38203 11.3859V11.3859ZM5.81172 15.8883C5.56094 15.8883 5.35 16.0312 5.23281 16.2352C5.17891 16.3336 5.13672 16.4414 5.13672 16.5633C5.13672 16.6852 5.17891 16.793 5.23281 16.8914C5.35 17.0953 5.56094 17.2383 5.81172 17.2383C6.18672 17.2406 6.49141 16.9359 6.49141 16.5609C6.49141 16.1906 6.18672 15.8883 5.81172 15.8883V15.8883ZM6.70469 20.5711C6.48203 20.7 6.36953 20.9367 6.37656 21.1758V21.1828C6.37891 21.2906 6.40234 21.3984 6.45859 21.4969C6.51953 21.6047 6.61094 21.6773 6.71172 21.7359C6.91328 21.8531 7.16875 21.8695 7.38438 21.7453C7.59297 21.6234 7.70313 21.4078 7.71016 21.1828C7.71484 21.0609 7.69844 20.9344 7.63281 20.8195C7.44297 20.4961 7.02813 20.3836 6.70469 20.5711ZM10.7453 23.932C10.5893 23.8426 10.4041 23.8188 10.2305 23.8658C10.0569 23.9128 9.9091 24.0268 9.81953 24.1828C9.69531 24.3984 9.71406 24.6516 9.83125 24.8578C9.8875 24.9562 9.9625 25.0477 10.068 25.1086C10.1687 25.1672 10.2789 25.1883 10.3891 25.1906C10.6305 25.1953 10.8672 25.0828 10.9937 24.8625C11.1789 24.5367 11.0687 24.1195 10.7453 23.932V23.932ZM14.9992 25.0734C14.6242 25.0734 14.3219 25.3758 14.3219 25.7508C14.3219 26.0039 14.4672 26.2148 14.6711 26.332C14.7695 26.3859 14.8773 26.4281 14.9992 26.4281C15.1211 26.4281 15.2266 26.3859 15.3273 26.332C15.5336 26.2148 15.6742 26.0016 15.6742 25.7508C15.6744 25.662 15.6571 25.574 15.6233 25.4919C15.5895 25.4097 15.5398 25.3351 15.4771 25.2722C15.4144 25.2093 15.34 25.1593 15.258 25.1252C15.176 25.0911 15.088 25.0735 14.9992 25.0734V25.0734ZM19.2508 23.9344C18.9273 24.1219 18.8172 24.532 19.0047 24.8602C19.1336 25.0828 19.3727 25.1953 19.6117 25.1883C19.7219 25.1859 19.8297 25.1648 19.9305 25.1062C20.0383 25.0453 20.1109 24.9562 20.1695 24.8555C20.2867 24.6539 20.3055 24.3984 20.1789 24.1805C20.0882 24.025 19.9396 23.9119 19.7657 23.8658C19.5917 23.8196 19.4066 23.8443 19.2508 23.9344V23.9344ZM23.2938 20.5711C22.968 20.3836 22.5531 20.4961 22.3656 20.8195C22.3 20.9344 22.2836 21.0586 22.2883 21.1805C22.2977 21.4055 22.4055 21.6211 22.6164 21.743C22.8344 21.8672 23.0875 21.8508 23.2914 21.7312C23.3898 21.675 23.4812 21.6 23.5422 21.4945C23.5984 21.3961 23.6195 21.2883 23.6242 21.1805V21.1758C23.6289 20.9391 23.5164 20.7 23.2938 20.5711V20.5711Z" fill="#2F2F2F"/>
<path d="M2.73925 8.28515C2.77411 8.29177 2.80995 8.29123 2.8446 8.28357C2.87925 8.27592 2.91198 8.26131 2.94081 8.24062L11.1838 2.55469C11.3033 2.47031 11.3338 2.30625 11.2517 2.18672C10.333 0.853123 9.00409 0.11953 7.51347 0.11953C6.73769 0.11953 5.94784 0.318748 5.16269 0.707811C4.97446 0.534753 4.73303 0.430761 4.47796 0.412877C4.2229 0.394992 3.96932 0.464275 3.75878 0.609373C3.54823 0.754596 3.39337 0.967154 3.31968 1.21209C3.24599 1.45702 3.25785 1.71974 3.35331 1.95703C2.50722 2.74687 1.96347 3.66094 1.76659 4.64062C1.52988 5.82422 1.81581 7.07812 2.5705 8.17265C2.608 8.23125 2.67128 8.27109 2.73925 8.28515V8.28515ZM27.0603 8.24062C27.1049 8.27109 27.1564 8.28984 27.2103 8.28984C27.2267 8.28984 27.2408 8.2875 27.2572 8.28515C27.3252 8.27109 27.3885 8.23359 27.4283 8.17265C28.183 7.07812 28.4689 5.82187 28.2322 4.64062C28.0377 3.66094 27.4916 2.74687 26.6455 1.95703C26.7406 1.72002 26.7522 1.45775 26.6787 1.21322C26.6051 0.968688 26.4506 0.756414 26.2406 0.611203C26.0305 0.465992 25.7774 0.396463 25.5226 0.414016C25.2679 0.431569 25.0266 0.535163 24.8385 0.707811C24.051 0.318748 23.2635 0.11953 22.4853 0.11953C20.9924 0.11953 19.6658 0.853123 18.7494 2.18672C18.665 2.30625 18.6955 2.47031 18.8174 2.55469L27.0603 8.24062V8.24062Z" fill="#FCC21B"/>
</svg>
