<svg width="30" height="30" viewBox="0 0 30 30" fill="none" xmlns="http://www.w3.org/2000/svg">
<path d="M18.004 6.06438C25.3265 10.8519 21.3927 22.7738 16.2402 26.2125C12.0027 29.04 5.61711 25.3506 3.08398 19.8575L3.50898 19.475L3.27586 18.7525L4.08336 19.4113C5.83961 20.5906 6.45711 19.735 6.63336 18.0938C6.63336 18.0938 6.85586 11.3125 8.48336 8.4875C10.3459 5.25188 15.1146 4.175 18.004 6.06438Z" stroke="white" stroke-width="0.625" stroke-linecap="round" stroke-linejoin="round"/>
<path d="M17.4938 16.6481C19.3015 16.6481 20.767 14.9496 20.767 12.8544C20.767 10.7591 19.3015 9.06062 17.4938 9.06062C15.6861 9.06062 14.2207 10.7591 14.2207 12.8544C14.2207 14.9496 15.6861 16.6481 17.4938 16.6481Z" stroke="white" stroke-width="0.625" stroke-linecap="round" stroke-linejoin="round"/>
<path d="M14.959 5.14C15.4103 4.34 15.5753 3.55563 14.8997 2.8125C16.5984 2.81375 16.6034 4.05437 17.1522 4.87437L17.3434 3.8325C17.9522 4.1575 18.1303 4.94625 18.0022 6.06375M21.8772 12.1769L24.1872 12.3125L22.029 14.2237L23.1884 14.8844L21.9303 15.7562M21.599 17.5994C19.8865 17.8088 18.1953 19.6612 17.5134 22.0681C17.0126 23.9572 15.98 25.6629 14.5384 26.9825M5.16342 19.9269C4.89133 20.8415 4.79943 21.8003 4.89279 22.75M19.894 12.6525C17.9009 9.7125 15.7772 10.0463 15.6647 14.4588C16.6115 11.6131 17.8134 10.965 19.894 12.6525ZM10.7128 22.0681C11.1803 20.5719 11.8878 18.4631 12.8803 17.8175C14.5609 16.7237 16.6065 18.2775 16.4934 19.9637C16.3671 20.9908 16.0369 21.9823 15.5223 22.8801C15.0077 23.7778 14.3189 24.5638 13.4965 25.1919C12.2553 24.375 11.1678 23.4469 10.7128 22.0688V22.0681Z" stroke="white" stroke-width="0.625" stroke-linecap="round" stroke-linejoin="round"/>
<path d="M13.4976 25.1925C12.5357 25.9506 10.3901 25.7325 8.43945 23.5131C9.52883 23.8144 10.2476 23.2394 10.7138 22.0681M25.3357 7.97688C26.1095 8.11438 26.2057 7.9175 26.6957 7.48813L25.6763 10.92" stroke="white" stroke-width="0.625" stroke-linecap="round" stroke-linejoin="round"/>
<path d="M26.2489 11.9275C26.6172 11.9275 26.9158 11.6289 26.9158 11.2606C26.9158 10.8923 26.6172 10.5938 26.2489 10.5938C25.8806 10.5938 25.582 10.8923 25.582 11.2606C25.582 11.6289 25.8806 11.9275 26.2489 11.9275Z" stroke="white" stroke-width="0.625" stroke-linecap="round" stroke-linejoin="round"/>
<path d="M25.3791 12.7162L23.9766 13.8006" stroke="white" stroke-width="0.625" stroke-linecap="round" stroke-linejoin="round"/>
</svg>
