<svg width="30" height="30" viewBox="0 0 30 30" fill="none" xmlns="http://www.w3.org/2000/svg">
<path d="M5.25 21.0938V25.9687C5.2499 26.2949 5.3773 26.6082 5.605 26.8418C5.8327 27.0753 6.14268 27.2106 6.46875 27.2187H11.3438M18.6563 27.1875H23.5313C23.8628 27.1875 24.1807 27.0558 24.4151 26.8214C24.6496 26.587 24.7813 26.269 24.7813 25.9375V21.0625M11.3438 2.8125H6.46875C6.14268 2.82065 5.8327 2.95594 5.605 3.18948C5.3773 3.42303 5.2499 3.73632 5.25 4.0625V8.9375M24.75 8.90625V4.03125C24.7418 3.70518 24.6066 3.3952 24.373 3.1675C24.1395 2.9398 23.8262 2.8124 23.5 2.8125H18.625M9.5125 7.9375H20.4813M20.4813 12.6437H9.5125M9.5125 17.3563H15.6062M9.5125 22.0625H13.1688M16.25 20.525V22.0625H17.75C17.9096 22.0586 18.0617 21.9937 18.175 21.8812L23.2375 16.8125L21.4563 15.0375L16.3937 20.1C16.2949 20.219 16.2437 20.3704 16.25 20.525V20.525Z" stroke="#080853" stroke-width="0.625" stroke-linecap="round" stroke-linejoin="round"/>
<path d="M24.607 15.4375C24.6513 15.3944 24.6864 15.3429 24.7104 15.286C24.7344 15.2291 24.7468 15.168 24.7468 15.1063C24.7468 15.0445 24.7344 14.9834 24.7104 14.9265C24.6864 14.8696 24.6513 14.8181 24.607 14.775V14.775L23.532 13.6625C23.4426 13.5777 23.324 13.5304 23.2008 13.5304C23.0775 13.5304 22.9589 13.5777 22.8695 13.6625L21.457 15.0438L23.2383 16.8188L24.607 15.4375Z" stroke="#080853" stroke-width="0.625" stroke-linecap="round" stroke-linejoin="round"/>
</svg>
