<svg width="30" height="30" viewBox="0 0 30 30" fill="none" xmlns="http://www.w3.org/2000/svg">
<path d="M1.96875 11.3906C1.96875 11.3906 1.45313 8.48438 3.60938 9.79688C3.60938 9.79688 3.79688 6.84375 5.625 8.90625C5.625 8.90625 6.60938 7.07813 7.6875 8.76563C9.14063 11.0156 10.125 14.5781 9.1875 20.4844L7.40625 19.3125C6.14062 15.6094 1.59375 15.1875 0.984375 13.1719C0.5625 11.7656 1.96875 11.3906 1.96875 11.3906M19.6406 8.25L24.2812 9.9375C23.25 4.3125 16.5 4.6875 16.5 4.6875C16.5 4.6875 19.6875 6.1875 19.6406 8.25" fill="#42ADE2"/>
<path d="M18.8906 9.28125L23.8125 9.9375C21.5625 4.6875 15.0469 6.51562 15.0469 6.51562C15.0469 6.51562 18.4687 7.26562 18.8906 9.28125Z" fill="#42ADE2"/>
<path d="M29.0625 13.5937L26.5312 12.9375V14.625C26.5312 14.5781 28.0781 14.3437 29.0625 13.5937M26.5312 12.8906L29.0625 11.625C27.375 10.3125 25.4531 10.7344 25.4531 10.7344L26.5312 12.8906V12.8906Z" fill="#FFD93B"/>
<path d="M14.1563 24.8438H15.1406V28.5469C15.2813 28.5938 16.125 28.5 16.5 28.5C17.3438 28.5 18.0469 29.1094 18.0469 29.1094H14.1563V24.8438ZM18.2813 24.8438H19.2656V28.5469C19.4063 28.5938 20.25 28.5 20.625 28.5C21.4688 28.5 22.1719 29.1094 22.1719 29.1094H18.2813V24.8438Z" fill="#E08828"/>
<path d="M4.6875 16.9688C2.85938 16.9688 6.60938 25.1719 15.6094 25.1719C21.7031 25.1719 26.8125 22.7344 26.8125 15.0938C26.8125 10.3594 23.8125 6.51563 17.6719 8.0625C11.4375 9.70313 14.625 16.9688 4.6875 16.9688Z" fill="#ECBD15"/>
<path d="M12.375 24.2344C19.6875 24.2344 18.9375 18.6094 25.4531 18.9844C23.0625 26.3906 12.375 24.2344 12.375 24.2344Z" fill="white"/>
<path d="M11.6716 13.6875C16.3591 9.09375 21.1403 16.5937 15.3747 19.5937C9.70282 22.5 5.81219 17.3438 5.81219 17.3438C5.81219 17.3438 8.67157 16.6406 11.6716 13.6875Z" fill="#297B9D"/>
<path d="M22.9219 12.8438C22.2747 12.8438 21.75 12.3191 21.75 11.6719C21.75 11.0247 22.2747 10.5 22.9219 10.5C23.5691 10.5 24.0938 11.0247 24.0938 11.6719C24.0938 12.3191 23.5691 12.8438 22.9219 12.8438Z" fill="#3E4347"/>
</svg>
