<svg width="30" height="30" viewBox="0 0 30 30" fill="none" xmlns="http://www.w3.org/2000/svg">
<path d="M28.0312 11.3906C28.0312 11.3906 28.5469 8.48438 26.3906 9.79688C26.3906 9.79688 26.2031 6.84375 24.375 8.90625C24.375 8.90625 23.3906 7.07813 22.3125 8.76563C20.8594 11.0156 19.875 14.5781 20.8125 20.4844L22.5938 19.3125C23.8594 15.6094 28.4063 15.1875 29.0156 13.1719C29.4375 11.7656 28.0312 11.3906 28.0312 11.3906M10.3594 8.25L5.71875 9.9375C6.75 4.3125 13.5 4.6875 13.5 4.6875C13.5 4.6875 10.3125 6.1875 10.3594 8.25" fill="#42ADE2"/>
<path d="M11.1094 9.28125L6.1875 9.9375C8.4375 4.6875 14.9531 6.51562 14.9531 6.51562C14.9531 6.51562 11.5313 7.26562 11.1094 9.28125Z" fill="#42ADE2"/>
<path d="M0.9375 13.5937L3.46875 12.9375V14.625C3.46875 14.5781 1.92187 14.3437 0.9375 13.5937M3.46875 12.8906L0.9375 11.625C2.625 10.3125 4.54687 10.7344 4.54687 10.7344L3.46875 12.8906V12.8906Z" fill="#FFD93B"/>
<path d="M15.8437 24.8438H14.8594V28.5469C14.7187 28.5938 13.875 28.5 13.5 28.5C12.6562 28.5 11.9531 29.1094 11.9531 29.1094H15.8437V24.8438ZM11.7187 24.8438H10.7344V28.5469C10.5937 28.5938 9.75 28.5 9.375 28.5C8.53125 28.5 7.82812 29.1094 7.82812 29.1094H11.7187V24.8438Z" fill="#E08828"/>
<path d="M25.3125 16.9688C27.1406 16.9688 23.3906 25.1719 14.3906 25.1719C8.29688 25.1719 3.1875 22.7344 3.1875 15.0938C3.1875 10.3594 6.1875 6.51563 12.3281 8.0625C18.5625 9.70313 15.375 16.9688 25.3125 16.9688Z" fill="#ECBD15"/>
<path d="M17.625 24.2344C10.3125 24.2344 11.0625 18.6094 4.54688 18.9844C6.9375 26.3906 17.625 24.2344 17.625 24.2344Z" fill="white"/>
<path d="M18.3284 13.6875C13.6409 9.09375 8.85968 16.5937 14.6253 19.5937C20.2972 22.5 24.1878 17.3437 24.1878 17.3437C24.1878 17.3437 21.3284 16.6406 18.3284 13.6875Z" fill="#297B9D"/>
<path d="M7.07812 12.8438C7.72533 12.8438 8.25 12.3191 8.25 11.6719C8.25 11.0247 7.72533 10.5 7.07812 10.5C6.43092 10.5 5.90625 11.0247 5.90625 11.6719C5.90625 12.3191 6.43092 12.8438 7.07812 12.8438Z" fill="#3E4347"/>
</svg>
