<svg width="30" height="30" viewBox="0 0 30 30" fill="none" xmlns="http://www.w3.org/2000/svg">
<path d="M5.74478 1.08633C5.0733 1.08164 4.36256 1.16133 3.63072 1.32012L7.62271 15.2988C6.79068 15 5.79576 14.9355 4.80494 15.1113C2.50982 15.5156 0.87037 17.0918 1.14166 18.6152C1.41353 20.1445 3.49361 21.0586 5.7899 20.6484C8.07974 20.2441 9.72037 18.6738 9.44498 17.1445C8.15006 12.4102 6.84342 7.59375 5.55494 2.83535C8.52506 3.04571 9.80826 4.68575 10.8629 6.36914C10.8337 2.71699 8.65396 1.10684 5.74478 1.08633V1.08633ZM23.9469 2.88516C23.1325 2.89102 22.2594 3.03692 21.3629 3.30821L26.4665 16.9277C25.611 16.6992 24.6149 16.7109 23.6364 16.9688C21.3864 17.5547 19.8747 19.2539 20.2672 20.7539C20.6598 22.2598 22.8102 22.9981 25.0602 22.4063C27.3161 21.8203 28.8219 20.1211 28.4294 18.6211C26.7536 14.0039 25.0719 9.31055 23.402 4.66407C26.3786 4.63477 27.7907 6.16992 28.9801 7.76367C28.6754 4.33301 26.6129 2.86465 23.9469 2.88516V2.88516ZM15.1403 9.58008L15.2458 24.1172C14.5251 23.6133 13.5817 23.2793 12.5739 23.1856C10.2653 22.9629 8.25553 24.0352 8.10904 25.5879C7.96256 27.1289 9.73209 28.5645 12.0407 28.7813C14.3669 29.0098 16.359 27.9316 16.5114 26.3848C16.5231 21.4746 16.5583 16.4883 16.5876 11.5547C19.3942 12.5508 20.1969 14.4727 20.7594 16.3828C21.9254 12.041 19.1247 9.80274 15.1403 9.58008V9.58008Z" fill="#080853"/>
</svg>
