<svg width="25" height="25" viewBox="0 0 25 25" fill="none" xmlns="http://www.w3.org/2000/svg">
<g clip-path="url(#clip0_1321_21)">
<path d="M2.31055 23.8242C3.35742 23.2813 4.86719 22.2168 6.86328 20.5703L4.5 18.2266C2.87305 20.2031 1.80859 21.7129 1.26562 22.7793C1.8457 22.7969 2.29102 23.2617 2.31055 23.8242Z" fill="#221F1F"/>
<path d="M0.952259 24.1328C1.10656 24.2871 1.45617 24.2305 1.9796 23.9785C2.07726 23.9395 2.19249 23.8809 2.29015 23.8242C2.28154 23.5493 2.16848 23.288 1.97399 23.0935C1.7795 22.899 1.51819 22.786 1.24327 22.7773C1.18468 22.8945 1.12609 22.9902 1.08898 23.0879C0.856556 23.6113 0.817493 23.9785 0.952259 24.1328V24.1328Z" fill="#616161"/>
<path d="M2.32617 22.1699C2.29492 22.1973 2.26172 22.2246 2.22852 22.2539C2.16797 22.3047 2.0957 22.3594 2.01758 22.3398C2.05273 22.1973 2.12891 22.0684 2.20312 21.9414C2.74609 21.0234 3.14258 20.3223 3.92773 19.5859C3.98047 19.5371 4.03906 19.4863 4.10938 19.4746C4.22461 19.457 4.32617 19.5508 4.38867 19.6465C4.45312 19.7441 4.55664 19.9297 4.53906 20.0527C4.52148 20.1836 4.37695 20.2617 4.2793 20.3496C3.56641 20.9922 3.05664 21.5391 2.32617 22.1699V22.1699Z" fill="#EEEEEE"/>
<path d="M21.0676 1.51952C20.8703 1.3457 20.5207 1.02734 20.5207 1.02734C20.3235 0.853509 20.0657 0.767571 19.7961 0.783196C19.5266 0.800775 19.2825 0.917962 19.1125 1.10937C18.3332 1.87109 17.552 2.63281 16.7727 3.39452C15.7102 4.43359 13.134 6.95898 12.9621 7.17382C12.7903 7.39062 12.9055 7.51171 12.925 7.5332C13.1828 7.8164 13.6457 7.85546 13.9836 7.67187C14.3196 7.48827 14.5325 7.12304 14.595 6.74413C14.636 6.49804 14.6516 6.37499 14.8332 6.21484C14.8996 6.15624 18.6008 2.70117 19.1672 2.05663C19.261 1.94921 19.5422 1.7246 19.8508 1.96093C19.8996 1.99804 20.97 2.90038 20.97 2.90038L21.6516 2.12695L21.6496 2.08202C21.6457 2.02929 21.6457 2.02929 21.0676 1.51952V1.51952Z" fill="#BDBDBD"/>
<path d="M14.336 10.7422L12.8438 9.25C6.76181 15.4121 4.62314 17.7773 4.09775 18.4551C4.00595 18.5742 4.01572 18.7422 4.12314 18.8496L6.24619 20.8965C6.35361 21.0039 6.52158 21.0137 6.64072 20.9219C7.31845 20.3965 9.68759 18.3379 15.8477 12.2559C15.8282 12.2344 14.336 10.7422 14.336 10.7422V10.7422Z" fill="#1565C0"/>
<path d="M20.4902 2.04493C20.3691 1.85743 20.0742 1.5918 19.8711 1.5C19.6387 1.39649 19.4668 1.49805 19.3184 1.62891C19.0566 1.85938 17.3164 3.66602 16.9355 4.14063C16.8926 4.19532 16.8477 4.25586 16.8477 4.32422C17.8418 3.38086 18.8535 2.44922 19.1758 2.16993C19.4219 1.95704 19.6602 1.76758 19.8535 1.96094C19.873 1.98047 20.0078 2.08789 20.252 2.29297L20.4902 2.04493Z" fill="#757575"/>
<path d="M24.0444 3.32031C24.2847 2.9746 23.9468 2.21484 23.4058 1.6914C22.8628 1.16796 22.1226 0.804681 21.7769 1.05273C21.4331 1.30077 17.2026 4.24999 12.3198 9.36718C12.1851 9.52148 12.1851 9.7539 12.3198 9.89062L15.2261 12.7969C15.3608 12.9316 15.5952 12.9512 15.7495 12.7969C20.8472 7.89452 23.8062 3.66601 24.0444 3.32031V3.32031Z" fill="#1565C0"/>
<path d="M5.73518 18.3672C5.51838 18.5371 4.8758 18.8418 5.36994 18.0684C5.48713 17.8867 5.88361 17.3965 6.05158 17.1992C6.69807 16.4336 10.4012 12.6895 11.0594 11.9981C11.5946 11.4356 12.0672 11.2988 12.2215 11.6895C12.327 11.959 12.1082 12.2715 10.9676 13.4863C10.0184 14.4941 6.85822 17.4785 5.73518 18.3672ZM16.3543 7.99805C16.3543 7.99805 15.6688 8.82618 15.1707 8.40625C14.7762 8.07227 15.6903 7.28125 15.6903 7.28125C15.7137 7.25586 18.8485 4.31055 19.7801 3.5625C20.1629 3.25391 20.6512 2.91016 20.786 3.0293C20.9207 3.14844 20.6981 3.52735 20.1102 4.11133C19.5203 4.69532 16.3758 7.97461 16.3543 7.99805Z" fill="#2196F3"/>
<path d="M14.1272 6.34766C13.9748 6.44727 14.0354 6.90235 13.9416 7.13477C13.8655 7.32032 13.8674 7.41797 14.0237 7.3711C14.1897 7.32032 14.3752 7.07032 14.3752 6.68164C14.3733 6.49219 14.2854 6.24219 14.1272 6.34766Z" fill="#EEEEEE"/>
<path d="M20.3223 2.13281L20.1465 2.26953C20.5566 2.52148 21.0742 2.91016 21.6074 3.44336C21.8437 3.67969 22.1699 4.05664 22.2832 4.28516C22.3887 4.50195 22.4277 4.83398 22.3379 5.14453C22.2402 5.48242 22.0859 5.63477 22.0234 5.97852C22.334 5.59375 22.9609 4.79102 22.9609 4.79102C22.9609 4.79102 22.6895 4.09375 21.7617 3.16406C20.834 2.23438 20.3223 2.13281 20.3223 2.13281V2.13281Z" fill="#0D47A1"/>
<path d="M23.4062 1.69141C22.9863 1.28711 22.4492 0.978516 22.0684 0.972656C22.0684 0.972656 22.7539 1.33984 23.1484 1.85352C23.5664 2.39648 23.8379 2.89062 23.6504 3.20117C23.3379 3.65039 20.5684 7.58203 15.6855 12.3145C15.6657 12.3339 15.6418 12.3487 15.6155 12.3578C15.5892 12.3669 15.5613 12.37 15.5336 12.3671C15.506 12.3641 15.4794 12.355 15.4557 12.3405C15.4319 12.326 15.4117 12.3064 15.3965 12.2832C15.1191 11.8555 14.748 11.4043 14.1934 10.8516C13.4004 10.0586 12.8887 9.70117 12.293 9.40039C12.293 9.40039 12.1563 9.47266 12.1211 9.71289C12.0977 9.86719 12.1113 9.99219 12.1113 9.99219L12.2793 9.83789C12.7461 10.0996 13.3145 10.5215 13.9199 11.1289C14.1797 11.3887 14.4141 11.6504 14.6172 11.9023C14.6445 11.9531 14.8477 12.3828 14.4316 13.0488C14.4316 13.0488 14.3691 13.1289 14.2754 13.2539C9.38672 18.0488 7.11328 20.0937 6.66602 20.3984C6.19727 20.7168 5.94922 20.6094 5.94922 20.6094C6.00781 20.668 6.13672 20.8125 6.28125 20.9258C6.42773 21.041 6.58594 20.9629 6.63867 20.9199C7.20508 20.4805 8.95117 18.9727 13.0977 14.9473C13.1035 14.9414 13.1094 14.9375 13.1133 14.9316C13.7227 14.3398 14.3848 13.6934 15.1016 12.9883C15.1055 12.9883 15.2285 13.002 15.3809 12.9785C15.6191 12.9434 15.709 12.832 15.709 12.832V12.8301C15.7227 12.8203 15.7363 12.8086 15.75 12.7969C20.8477 7.89453 23.8047 3.66602 24.0449 3.32031C24.2852 2.97461 23.9492 2.21484 23.4062 1.69141V1.69141Z" fill="#0D47A1"/>
<path d="M15.0547 9.99413C14.4551 9.39452 13.7578 8.8457 13.1348 8.52734C13.1348 8.52734 12.9805 8.51757 12.8359 8.67773C12.7266 8.79882 12.7012 8.9707 12.7012 8.9707C13.1738 9.17968 13.8652 9.62695 14.6445 10.4043C15.2305 10.9902 15.707 11.6074 15.9863 12.1465C16.043 12.2559 16.0859 12.3516 16.1191 12.4394C16.1191 12.4394 16.291 12.4414 16.4355 12.3164C16.5977 12.1738 16.5645 12.0019 16.5645 12.0019C16.2559 11.3555 15.6836 10.623 15.0547 9.99413V9.99413Z" fill="#FFC107"/>
<path d="M22.4902 2.56054C22.0859 2.15625 21.6367 1.77734 21.1973 1.4746C21.1973 1.4746 20.8965 1.35937 20.6211 1.61328C20.3457 1.86718 20.3242 2.13476 20.3242 2.13476C20.7344 2.38671 21.2246 2.76171 21.7578 3.29492C22.2559 3.79296 22.6738 4.3164 22.9609 4.79296C22.9609 4.79296 23.2656 4.76953 23.4805 4.51367C23.6953 4.25781 23.6191 3.91796 23.6191 3.91796C23.3105 3.45507 22.9141 2.98437 22.4902 2.56054V2.56054Z" fill="#BDBDBD"/>
<path d="M20.9358 1.71289C20.8323 1.73438 20.7347 1.81446 20.7288 1.91993C20.7229 2.02735 20.8089 2.11328 20.889 2.18555C21.139 2.41211 21.3987 2.64258 21.719 2.75C21.7893 2.77344 21.8811 2.78711 21.93 2.73047C21.9612 2.69532 21.9632 2.64258 21.9593 2.59571C21.9436 2.40235 21.846 2.22461 21.719 2.07813C21.5198 1.85157 21.2581 1.64649 20.9358 1.71289V1.71289Z" fill="#EEEEEE"/>
</g>
<defs>
<clipPath id="clip0_1321_21">
<rect width="25" height="25" fill="white"/>
</clipPath>
</defs>
</svg>
