<svg width="22" height="30" viewBox="0 0 22 30" fill="none" xmlns="http://www.w3.org/2000/svg">
<g clip-path="url(#clip0_1315_24)">
<path d="M10.9055 29.9242L2.24775 27.5207L0.318359 5.88083H21.5186L19.5873 27.5174L10.9055 29.9242V29.9242Z" fill="#264DE4"/>
<path d="M17.9352 26.1396L19.5856 7.65017H10.9199V28.0845L17.9352 26.1396V26.1396Z" fill="#F16529"/>
<path d="M4.74168 15.6761L4.97952 18.3302H10.9188V15.6761H4.74168ZM4.26367 10.3043L4.50492 12.9583H10.9188V10.3043H4.26367V10.3043ZM10.9188 22.569L10.9071 22.5721L7.95135 21.7739L7.76237 19.6572H5.0981L5.4699 23.8245L10.9066 25.3336L10.9188 25.3303V22.569Z" fill="#EBEBEB"/>
<path d="M5.30859 0H8.523V1.34427H6.65286V2.68853H8.52316V4.03271H5.30859V0ZM9.16596 0H12.3804V1.16892H10.5102V1.40269H12.3804V4.09122H9.16605V2.86371H11.0363V2.62994H9.16588V0H9.16596ZM13.0234 0H16.2379V1.16892H14.3677V1.40269H16.2379V4.09122H13.0234V2.86371H14.8936V2.62994H13.0235V0H13.0234Z" fill="#949494"/>
<path d="M17.0795 15.6761L17.5586 10.3043H10.9102V12.9583H14.65L14.4085 15.6761H10.9102V18.3302H14.1784L13.8703 21.7723L10.9102 22.5712V25.3324L16.3511 23.8245L16.391 23.3761L17.0148 16.3888L17.0795 15.6761V15.6761Z" fill="white"/>
</g>
<defs>
<clipPath id="clip0_1315_24">
<rect width="21.28" height="30" fill="white" transform="translate(0.279297)"/>
</clipPath>
</defs>
</svg>
