<svg width="22" height="30" viewBox="0 0 22 30" fill="none" xmlns="http://www.w3.org/2000/svg">
<g clip-path="url(#clip0_1315_18)">
<path d="M21.2393 5.88083L19.308 27.5174L10.6262 29.9242L1.96845 27.5207L0.0390625 5.88083H21.2393Z" fill="#57E426"/>
<path d="M10.6406 28.0845L17.6559 26.1396L19.3063 7.65017H10.6406V28.0845Z" fill="#F16529"/>
<path d="M6.8849 12.9583H10.6395V10.3043H3.98438L4.04787 11.0163L4.70022 18.3302H10.6395V15.6761H7.12748L6.8849 12.9583V12.9583ZM7.48307 19.6572H4.81881L5.19061 23.8245L10.6273 25.3336L10.6395 25.3303V22.569L10.6278 22.5721L7.67205 21.7739L7.48307 19.6572Z" fill="#EBEBEB"/>
<path d="M2.01172 0H3.36047V1.33255H4.59429V0H5.94313V4.03529H4.59438V2.68404H3.36056V4.03529H2.0118V0H2.01172ZM7.7167 1.3382H6.5295V0H10.2537V1.3382H9.06571V4.03529H7.71695V1.3382H7.71687H7.7167ZM10.8447 0H12.251L13.1161 1.41789L13.9804 0H15.3873V4.03529H14.044V2.03518L13.1161 3.46994H13.0929L12.1644 2.03518V4.03529H10.8447V0ZM16.0585 0H17.4077V2.7015H19.3044V4.03529H16.0584V0H16.0585Z" fill="#949494"/>
<path d="M10.6309 18.3302H13.8991L13.591 21.7723L10.6309 22.5712V25.3324L16.0718 23.8245L16.1117 23.3761L16.7355 16.3888L16.8002 15.6761H10.6309V18.3302ZM10.6309 12.9519V12.9583H17.0417L17.0949 12.3618L17.2159 11.0163L17.2793 10.3043H10.6309V12.9519V12.9519Z" fill="#F3F1F1"/>
</g>
<defs>
<clipPath id="clip0_1315_18">
<rect width="21.28" height="30" fill="white"/>
</clipPath>
</defs>
</svg>
