<svg width="22" height="31" viewBox="0 0 22 31" fill="none" xmlns="http://www.w3.org/2000/svg">
<path d="M8.84895 1H10.4339V2.31429L10.434 3.62859L10.4339 4.42196L9.77343 4.91082H7.92448L7 4.42196L7.46224 3.44426L8.38671 3.93311L8.84895 3.62859V1ZM11.0283 1H14V2.14286H12.271V2.37141H14V5H11.0284V3.79986H12.7573V3.57131H11.0282L11.0283 1Z" fill="#949494"/>
<path d="M10.878 6H0L2.4436 27.6851L10.878 30.2667L19.0601 27.6851L21 6H10.878Z" fill="#930031"/>
<path d="M11 28.4343L18.0153 26.4895L19.6657 8H11V28.4343Z" fill="#F16529"/>
<path d="M12.2963 18.9686C12.4902 19.3354 12.7912 19.6437 13.1645 19.8581C13.5378 20.0725 13.9683 20.1842 14.4066 20.1805C15.2925 20.1805 15.8587 19.7675 15.8587 19.1961C15.8587 18.5119 15.2775 18.2695 14.3016 17.8714L13.7672 17.657C12.2241 17.0445 11.1984 16.2745 11.1984 14.6496C11.201 14.2792 11.2862 13.9134 11.4487 13.5754C11.6111 13.2375 11.8472 12.9348 12.1418 12.6867C12.4365 12.4386 12.7833 12.2505 13.1601 12.1344C13.537 12.0183 13.9356 11.9767 14.3306 12.0124C14.9499 11.9706 15.5686 12.0999 16.1096 12.3842C16.6506 12.6684 17.09 13.0951 17.3728 13.611L15.7069 14.6094C15.5978 14.3531 15.4076 14.134 15.1618 13.9811C14.9159 13.8282 14.626 13.7489 14.3306 13.7536C14.202 13.7416 14.0721 13.7547 13.9491 13.7921C13.8262 13.8295 13.713 13.8904 13.6167 13.9709C13.5204 14.0514 13.4431 14.1498 13.3897 14.2597C13.3364 14.3696 13.3082 14.4887 13.3069 14.6094C13.3069 15.2079 13.7044 15.4502 14.6194 15.8212L15.1538 16.0347C16.9734 16.7619 18 17.5074 18 19.1699C18 20.9671 16.4869 21.9515 14.4563 21.9515C13.6649 21.9985 12.8758 21.8307 12.1843 21.4685C11.4928 21.1063 10.9284 20.5651 10.5591 19.9101L12.2963 18.9686ZM4.74094 19.1436C5.07656 19.7001 5.38219 20.17 6.11719 20.17C6.82031 20.17 7.26281 19.9136 7.26281 18.9152V12.1261H9.40125V18.9406C9.45104 19.3445 9.40291 19.7537 9.26042 20.1379C9.11794 20.5221 8.88473 20.8715 8.57806 21.1602C8.2714 21.449 7.8991 21.6697 7.48872 21.8061C7.07834 21.9424 6.64036 21.9909 6.20719 21.948C5.53798 21.9817 4.87349 21.8257 4.30107 21.5004C3.72865 21.1751 3.27508 20.6957 3 20.1254L4.74094 19.1436Z" fill="white"/>
</svg>
